<?xml version="1.0" encoding="UTF-8" standalone="no"?>
<svg
   xmlns:dc="http://purl.org/dc/elements/1.1/"
   xmlns:cc="http://creativecommons.org/ns#"
   xmlns:rdf="http://www.w3.org/1999/02/22-rdf-syntax-ns#"
   xmlns:svg="http://www.w3.org/2000/svg"
   xmlns="http://www.w3.org/2000/svg"
   xmlns:sodipodi="http://sodipodi.sourceforge.net/DTD/sodipodi-0.dtd"
   xmlns:inkscape="http://www.inkscape.org/namespaces/inkscape"
   inkscape:version="1.0 (4035a4fb49, 2020-05-01)"
   sodipodi:docname="drawingr4.svg"
   viewBox="0 0 569.23887 473.96329"
   height="125.40277mm"
   width="150.61111mm"
   xml:space="preserve"
   id="svg2"
   version="1.1"><metadata
     id="metadata8"><rdf:RDF><cc:Work
         rdf:about=""><dc:format>image/svg+xml</dc:format><dc:type
           rdf:resource="http://purl.org/dc/dcmitype/StillImage" /><dc:title></dc:title></cc:Work></rdf:RDF></metadata><defs
     id="defs6"><marker
       inkscape:isstock="true"
       style="overflow:visible;"
       id="marker2361"
       refX="0.0"
       refY="0.0"
       orient="auto"
       inkscape:stockid="Arrow1Lend"><path
         transform="scale(0.8) rotate(180) translate(12.5,0)"
         style="fill-rule:evenodd;stroke:#000000;stroke-width:1pt;stroke-opacity:1;fill:#000000;fill-opacity:1"
         d="M 0.0,0.0 L 5.0,-5.0 L -12.5,0.0 L 5.0,5.0 L 0.0,0.0 z "
         id="path2359" /></marker><marker
       inkscape:isstock="true"
       style="overflow:visible;"
       id="Arrow2Lend"
       refX="0.0"
       refY="0.0"
       orient="auto"
       inkscape:stockid="Arrow2Lend"><path
         transform="scale(1.1) rotate(180) translate(1,0)"
         d="M 8.7185878,4.0337352 L -2.2072895,0.016013256 L 8.7185884,-4.0017078 C 6.9730900,-1.6296469 6.9831476,1.6157441 8.7185878,4.0337352 z "
         style="fill-rule:evenodd;stroke-width:0.625;stroke-linejoin:round;stroke:#000000;stroke-opacity:1;fill:#000000;fill-opacity:1"
         id="path984" /></marker><marker
       inkscape:isstock="true"
       style="overflow:visible;"
       id="marker2211"
       refX="0.0"
       refY="0.0"
       orient="auto"
       inkscape:stockid="Arrow1Lend"><path
         transform="scale(0.8) rotate(180) translate(12.5,0)"
         style="fill-rule:evenodd;stroke:#000000;stroke-width:1pt;stroke-opacity:1;fill:#000000;fill-opacity:1"
         d="M 0.0,0.0 L 5.0,-5.0 L -12.5,0.0 L 5.0,5.0 L 0.0,0.0 z "
         id="path2209" /></marker><marker
       inkscape:stockid="Arrow1Send"
       orient="auto"
       refY="0.0"
       refX="0.0"
       id="marker2125"
       style="overflow:visible;"
       inkscape:isstock="true"><path
         id="path2123"
         d="M 0.0,0.0 L 5.0,-5.0 L -12.5,0.0 L 5.0,5.0 L 0.0,0.0 z "
         style="fill-rule:evenodd;stroke:#000000;stroke-width:1pt;stroke-opacity:1;fill:#000000;fill-opacity:1"
         transform="scale(0.2) rotate(180) translate(6,0)" /></marker><inkscape:perspective
       id="perspective2027"
       inkscape:persp3d-origin="218.0173 : 244.64512 : 1"
       inkscape:vp_z="2171.2248 : 428.60663 : 1"
       inkscape:vp_y="27.874405 : 528.97308 : 0"
       inkscape:vp_x="505.73958 : 541.8651 : 1"
       sodipodi:type="inkscape:persp3d" /><marker
       inkscape:stockid="Arrow1Sstart"
       orient="auto"
       refY="0.0"
       refX="0.0"
       id="marker1789"
       style="overflow:visible"
       inkscape:isstock="true"><path
         id="path1787"
         d="M 0.0,0.0 L 5.0,-5.0 L -12.5,0.0 L 5.0,5.0 L 0.0,0.0 z "
         style="fill-rule:evenodd;stroke:#000000;stroke-width:1pt;stroke-opacity:0.478599;fill:#000000;fill-opacity:0.478599"
         transform="scale(0.2) translate(6,0)" /></marker><marker
       inkscape:isstock="true"
       style="overflow:visible;"
       id="marker1737"
       refX="0.0"
       refY="0.0"
       orient="auto"
       inkscape:stockid="Arrow1Send"><path
         transform="scale(0.2) rotate(180) translate(6,0)"
         style="fill-rule:evenodd;stroke:#000000;stroke-width:1pt;stroke-opacity:0.478599;fill:#000000;fill-opacity:0.478599"
         d="M 0.0,0.0 L 5.0,-5.0 L -12.5,0.0 L 5.0,5.0 L 0.0,0.0 z "
         id="path1735" /></marker><marker
       inkscape:collect="always"
       inkscape:isstock="true"
       style="overflow:visible"
       id="Arrow1Sstart"
       refX="0.0"
       refY="0.0"
       orient="auto"
       inkscape:stockid="Arrow1Sstart"><path
         transform="scale(0.2) translate(6,0)"
         style="fill-rule:evenodd;stroke:#000000;stroke-width:1pt;stroke-opacity:1;fill:#000000;fill-opacity:1"
         d="M 0.0,0.0 L 5.0,-5.0 L -12.5,0.0 L 5.0,5.0 L 0.0,0.0 z "
         id="path975" /></marker><marker
       inkscape:collect="always"
       inkscape:isstock="true"
       style="overflow:visible;"
       id="Arrow1Send"
       refX="0.0"
       refY="0.0"
       orient="auto"
       inkscape:stockid="Arrow1Send"><path
         transform="scale(0.2) rotate(180) translate(6,0)"
         style="fill-rule:evenodd;stroke:#000000;stroke-width:1pt;stroke-opacity:1;fill:#000000;fill-opacity:1"
         d="M 0.0,0.0 L 5.0,-5.0 L -12.5,0.0 L 5.0,5.0 L 0.0,0.0 z "
         id="path978" /></marker><marker
       inkscape:collect="always"
       inkscape:stockid="Arrow1Lend"
       orient="auto"
       refY="0.0"
       refX="0.0"
       id="marker1480"
       style="overflow:visible;"
       inkscape:isstock="true"><path
         id="path1478"
         d="M 0.0,0.0 L 5.0,-5.0 L -12.5,0.0 L 5.0,5.0 L 0.0,0.0 z "
         style="fill-rule:evenodd;stroke:#000000;stroke-width:1pt;stroke-opacity:1;fill:#000000;fill-opacity:1"
         transform="scale(0.8) rotate(180) translate(12.5,0)" /></marker><marker
       inkscape:isstock="true"
       style="overflow:visible;"
       id="Arrow1Lend"
       refX="0.0"
       refY="0.0"
       orient="auto"
       inkscape:stockid="Arrow1Lend"><path
         transform="scale(0.8) rotate(180) translate(12.5,0)"
         style="fill-rule:evenodd;stroke:#000000;stroke-width:1pt;stroke-opacity:1;fill:#000000;fill-opacity:1"
         d="M 0.0,0.0 L 5.0,-5.0 L -12.5,0.0 L 5.0,5.0 L 0.0,0.0 z "
         id="path966" /></marker><marker
       inkscape:stockid="Arrow1Lend"
       orient="auto"
       refY="0"
       refX="0"
       id="marker1253-2"
       style="overflow:visible"
       inkscape:isstock="true"><path
         id="path1251-2"
         d="M 0,0 5,-5 -12.5,0 5,5 Z"
         style="fill:#000000;fill-opacity:1;fill-rule:evenodd;stroke:#000000;stroke-width:1pt;stroke-opacity:1"
         transform="matrix(-0.8,0,0,-0.8,-10,0)" /></marker><marker
       inkscape:stockid="Arrow1Lend"
       orient="auto"
       refY="0"
       refX="0"
       id="marker1253-9"
       style="overflow:visible"
       inkscape:isstock="true"><path
         id="path1251-6"
         d="M 0,0 5,-5 -12.5,0 5,5 Z"
         style="fill:#000000;fill-opacity:1;fill-rule:evenodd;stroke:#000000;stroke-width:1pt;stroke-opacity:1"
         transform="matrix(-0.8,0,0,-0.8,-10,0)" /></marker><marker
       inkscape:isstock="true"
       style="overflow:visible"
       id="marker1480-1"
       refX="0"
       refY="0"
       orient="auto"
       inkscape:stockid="Arrow1Lend"
       inkscape:collect="always"><path
         transform="matrix(-0.8,0,0,-0.8,-10,0)"
         style="fill:#000000;fill-opacity:1;fill-rule:evenodd;stroke:#000000;stroke-width:1pt;stroke-opacity:1"
         d="M 0,0 5,-5 -12.5,0 5,5 Z"
         id="path1478-1" /></marker></defs><sodipodi:namedview
     inkscape:current-layer="g10"
     inkscape:window-maximized="1"
     inkscape:window-y="-11"
     inkscape:window-x="-11"
     inkscape:cy="319.12902"
     inkscape:cx="286.95945"
     inkscape:zoom="1.28"
     units="mm"
     showgrid="false"
     id="namedview4"
     inkscape:window-height="1046"
     inkscape:window-width="1920"
     inkscape:pageshadow="2"
     inkscape:pageopacity="0"
     guidetolerance="10"
     gridtolerance="10"
     objecttolerance="10"
     borderopacity="1"
     bordercolor="#666666"
     pagecolor="#ffffff" /><g
     transform="matrix(1.3333333,0,0,-1.3333333,0,553.33333)"
     inkscape:label="ink_ext_XXXXXX"
     inkscape:groupmode="layer"
     id="g10"><path
       id="path1635"
       d="m 157.68141,333.27602 c 0.64136,3.38907 0.77033,6.90119 1.92405,10.1672 11.22456,31.77516 69.74603,41.40828 98.51129,29.77536 7.41685,-2.99944 17.42198,-6.10239 21.93415,-13.43522 19.62676,-31.89591 -35.53189,-74.6722 -65.41765,-76.61708 -7.99141,-0.52006 -14.54541,1.86731 -21.93415,4.35737 -11.77374,3.96783 -31.57029,14.58451 -35.01769,27.59666 -0.80126,3.02436 3.16034,17.41017 0,18.15571 z"
       style="fill:none;stroke:#000000;stroke-width:0.580973;stroke-linecap:butt;stroke-linejoin:miter;stroke-miterlimit:4;stroke-dasharray:3.48584, 3.48584;stroke-dashoffset:0;stroke-opacity:0.44358" /><text
       transform="scale(1.029441,-0.971401)"
       id="text1639"
       y="-297.25101"
       x="246.39459"
       style="font-style:normal;font-weight:normal;font-size:3.47468px;font-family:sans-serif;fill:#000000;fill-opacity:0.54863811;stroke:none;stroke-width:0.0868671;"
       xml:space="preserve"><tspan
         style="stroke-width:0.0868671;fill:#000000;fill-opacity:0.54863811;"
         y="-297.25101"
         x="246.39459"
         id="tspan1637"
         sodipodi:role="line">$\mathcal{M}$</tspan></text><path
       id="path1643"
       d="M 18.113276,249.22394 68.035222,199.30199"
       style="fill:none;stroke:#000000;stroke-width:0.572616px;stroke-linecap:butt;stroke-linejoin:miter;stroke-opacity:0.47859919;marker-start:url(#marker1789);marker-end:url(#marker1737)" /><path
       id="path1645"
       d="m 341.91626,199.89882 53.13842,53.13842"
       style="fill:none;stroke:#000000;stroke-width:0.53629px;stroke-linecap:butt;stroke-linejoin:miter;stroke-opacity:1;marker-start:url(#Arrow1Sstart);marker-end:url(#Arrow1Send)" /><text
       transform="scale(1,-1)"
       xml:space="preserve"
       style="font-style:normal;font-weight:normal;font-size:3.4247px;font-family:sans-serif;fill:#000000;fill-opacity:1;stroke:none;stroke-width:0.0856176"
       x="72.908875"
       y="-191.46436"
       id="text1639-9"><tspan
         sodipodi:role="line"
         id="tspan1637-8"
         x="72.908875"
         y="-191.46436"
         style="stroke-width:0.0856176">$\mathbb{R},\gamma$</tspan></text><text
       transform="scale(1,-1)"
       id="text1639-9-8"
       y="-192.11287"
       x="344.86554"
       style="font-style:normal;font-weight:normal;font-size:3.20744px;font-family:sans-serif;fill:#000000;fill-opacity:1;stroke:none;stroke-width:0.0801861"
       xml:space="preserve"><tspan
         style="stroke-width:0.0801861"
         y="-192.11287"
         x="344.86554"
         id="tspan1637-8-7"
         sodipodi:role="line">$\mathbb{R},L$</tspan></text><path
       id="path2017"
       d="m 226.31977,377.4128 c -4.40462,-2.19753 -8.65809,-4.57032 -13.02907,-6.75581 -45.19381,-22.59691 3.36661,-46.33687 -15.44186,-65.14535"
       style="fill:none;stroke:#000000;stroke-width:0.75px;stroke-linecap:butt;stroke-linejoin:miter;stroke-opacity:1;opacity:0.47402597" /><path
       id="path2019"
       d="m 67.075581,244.65699 c 14.242511,35.02865 48.266559,64.54652 82.999999,78.65697 9.43368,3.83244 19.71653,3.96402 28.95349,6.27326"
       style="fill:none;stroke:#000000;stroke-width:0.46771655;stroke-linecap:butt;stroke-linejoin:miter;stroke-opacity:1;stroke-miterlimit:4;stroke-dasharray:none;marker-end:url(#marker1480);opacity:0.53571429" /><g
       inkscape:corner7="-0.010379597 : 0.31415249 : 0.057073682 : 1"
       inkscape:corner0="0.1827816 : 0.31971867 : 0 : 1"
       inkscape:perspectiveID="#perspective2027"
       style="fill:#000000;fill-opacity:0.171206;stroke:#000000;stroke-width:0.623622;stroke-miterlimit:4;stroke-dasharray:none;stroke-dashoffset:0;stroke-opacity:0.291829"
       id="g2029"
       sodipodi:type="inkscape:box3d"><path
         points="168.00372,368.84565 167.88614,366.61422 202.4131,382.83298 202.51148,384.7 "
         d="m 202.51148,384.7 -34.50776,-15.85435 -0.11758,-2.23143 34.52696,16.21876 z"
         inkscape:box3dsidetype="3"
         style="fill:#000000;fill-opacity:0.171206;fill-rule:evenodd;stroke:#000000;stroke-width:0.38606;stroke-linejoin:round;stroke-opacity:0.291829"
         id="path2035"
         sodipodi:type="inkscape:box3dside" /><path
         points="167.88614,366.61422 247.52542,367.39769 268.05575,382.7478 202.4131,382.83298 "
         d="m 202.4131,382.83298 -34.52696,-16.21876 79.63928,0.78347 20.53033,15.35011 z"
         inkscape:box3dsidetype="13"
         style="fill:#000000;fill-opacity:0.171206;fill-rule:evenodd;stroke:#000000;stroke-width:0.38606;stroke-linejoin:round;stroke-opacity:0.291829"
         id="path2039"
         sodipodi:type="inkscape:box3dside" /><path
         points="202.4131,382.83298 268.05575,382.7478 268.1496,384.52887 202.51148,384.7 "
         d="m 202.51148,384.7 -0.0984,-1.86702 65.64265,-0.0852 0.0939,1.78107 z"
         inkscape:box3dsidetype="6"
         style="fill:#000000;fill-opacity:0.171206;fill-rule:evenodd;stroke:#000000;stroke-width:0.38606;stroke-linejoin:round;stroke-opacity:0.291829"
         id="path2031"
         sodipodi:type="inkscape:box3dside" /><path
         points="168.00372,368.84565 247.63659,369.50745 268.1496,384.52887 202.51148,384.7 "
         d="m 202.51148,384.7 -34.50776,-15.85435 79.63287,0.6618 20.51301,15.02142 z"
         inkscape:box3dsidetype="5"
         style="fill:#000000;fill-opacity:0.171206;fill-rule:evenodd;stroke:#000000;stroke-width:0.38606;stroke-linejoin:round;stroke-opacity:0.291829"
         id="path2033"
         sodipodi:type="inkscape:box3dside" /><path
         points="167.88614,366.61422 247.52542,367.39769 247.63659,369.50745 168.00372,368.84565 "
         d="m 168.00372,368.84565 -0.11758,-2.23143 79.63928,0.78347 0.11117,2.10976 z"
         inkscape:box3dsidetype="14"
         style="fill:#000000;fill-opacity:0.171206;fill-rule:evenodd;stroke:#000000;stroke-width:0.38606;stroke-linejoin:round;stroke-opacity:0.291829"
         id="path2037"
         sodipodi:type="inkscape:box3dside" /><path
         points="247.63659,369.50745 247.52542,367.39769 268.05575,382.7478 268.1496,384.52887 "
         d="m 268.1496,384.52887 -20.51301,-15.02142 -0.11117,-2.10976 20.53033,15.35011 z"
         inkscape:box3dsidetype="11"
         style="fill:#000000;fill-opacity:0.171206;fill-rule:evenodd;stroke:#000000;stroke-width:0.38606;stroke-linejoin:round;stroke-opacity:0.291829"
         id="path2041"
         sodipodi:type="inkscape:box3dside" /></g><text
       transform="scale(1,-1)"
       id="text1639-9-0"
       y="-305.50327"
       x="103.45149"
       style="font-style:normal;font-weight:normal;font-size:3.4247px;font-family:sans-serif;fill:#000000;fill-opacity:1;stroke:none;stroke-width:0.0856178;opacity:0.53571429;"
       xml:space="preserve"><tspan
         style="stroke-width:0.0856178;"
         y="-305.50327"
         x="103.45149"
         id="tspan1637-8-9"
         sodipodi:role="line">$\gamma$</tspan></text><text
       transform="scale(1,-1)"
       xml:space="preserve"
       style="font-style:normal;font-weight:normal;font-size:3.4247px;font-family:sans-serif;fill:#000000;fill-opacity:1;stroke:none;stroke-width:0.0856178"
       x="262.09653"
       y="-388.36734"
       id="text1639-9-0-9"><tspan
         sodipodi:role="line"
         id="tspan1637-8-9-3"
         x="262.09653"
         y="-388.36734"
         style="stroke-width:0.0856178">$T_{\gamma (t)}\mathcal{M}$</tspan></text><path
       id="path2079"
       d="m 226.31977,377.4128 -24.13142,-6.53791"
       style="fill:none;stroke:#000000;stroke-width:0.46771655;stroke-linecap:butt;stroke-linejoin:miter;stroke-opacity:1;stroke-miterlimit:4;stroke-dasharray:none;marker-end:url(#marker2125)" /><path
       style="fill:none;stroke:#000000;stroke-width:0.467717;stroke-linecap:butt;stroke-linejoin:miter;stroke-miterlimit:4;stroke-dasharray:none;stroke-opacity:1;marker-end:url(#marker1480-1)"
       d="m 295.64151,377.69249 c 32.23514,-19.76742 55.80551,-58.15203 64.05921,-94.72241 2.24173,-9.9326 0.69365,-20.0991 1.46469,-29.58907"
       id="path2019-8" /><text
       transform="scale(1,-1)"
       xml:space="preserve"
       style="font-style:normal;font-weight:normal;font-size:3.4247px;font-family:sans-serif;fill:#000000;fill-opacity:1;stroke:none;stroke-width:0.0856178"
       x="346.20358"
       y="-326.63361"
       id="text1639-9-0-0"><tspan
         sodipodi:role="line"
         id="tspan1637-8-9-2"
         x="346.20358"
         y="-326.63361"
         style="stroke-width:0.0856178">$L$</tspan></text><path
       id="path2726"
       d="m 212.19529,251.77197 c -2.16419,-23.92734 0,-47.90286 0,-71.81142"
       style="fill:none;stroke:#000000;stroke-width:1.13385829;stroke-linecap:butt;stroke-linejoin:miter;stroke-opacity:0.58365756;stroke-miterlimit:4;stroke-dasharray:none" /><path
       id="path2730"
       d="m 222.76348,250.33034 c -3.19758,-23.67793 -0.88577,-47.18906 0.9626,-70.84859"
       style="fill:none;stroke:#000000;stroke-width:1.13385829;stroke-linecap:butt;stroke-linejoin:miter;stroke-opacity:0.58365756;stroke-miterlimit:4;stroke-dasharray:none" /><path
       id="path2740"
       d="m 201.75157,189.00467 c 2.94368,-3.61445 14.11908,-25.79485 16.81204,-25.45823 1.89492,0.23687 2.37529,3.04592 3.12224,4.80344 4.94276,11.63001 9.34878,23.59625 14.17014,35.30528"
       style="fill:none;stroke:#000000;stroke-width:1.66800004;stroke-linecap:butt;stroke-linejoin:miter;stroke-miterlimit:4;stroke-dasharray:none;stroke-opacity:0.58365756" /><text
       transform="scale(1,-1)"
       id="text2744"
       y="-219.41217"
       x="226.35693"
       style="font-style:normal;font-weight:normal;font-size:13.6529px;font-family:sans-serif;opacity:0.633117;fill:#000000;fill-opacity:1;stroke:none;stroke-width:0.341322"
       xml:space="preserve"><tspan
         style="stroke-width:0.341322"
         y="-219.41217"
         x="226.35693"
         id="tspan2742"
         sodipodi:role="line">$\phi$</tspan></text><path
       id="path2746"
       d="M 218.55469,143.125 V 70.468751"
       style="fill:none;stroke:#000000;stroke-width:0.75px;stroke-linecap:butt;stroke-linejoin:miter;stroke-opacity:1;opacity:0.70779221" /><path
       id="path2748"
       d="m 172.78125,107.96875 h 92.57813"
       style="fill:none;stroke:#000000;stroke-width:0.75px;stroke-linecap:butt;stroke-linejoin:miter;stroke-opacity:1;opacity:0.70779221" /><text
       transform="scale(1,-1)"
       id="text1639-9-1"
       y="-77.328636"
       x="245.18689"
       style="font-style:normal;font-weight:normal;font-size:3.4247px;font-family:sans-serif;fill:#000000;fill-opacity:1;stroke:none;stroke-width:0.0856178"
       xml:space="preserve"><tspan
         style="stroke-width:0.0856178"
         y="-77.328636"
         x="245.18689"
         id="tspan1637-8-5"
         sodipodi:role="line">$\mathbb{R},^n$</tspan></text><path
       id="path2772"
       d="m 197.57813,84.062501 c 6.5174,11.524169 10.92507,32.226559 27.53906,32.226559 4.69587,0 13.53455,-4.79049 17.57813,-1.75781 3.63006,2.72255 12.8945,11.12894 8.78906,15.23438"
       style="fill:none;stroke:#000000;stroke-width:0.75px;stroke-linecap:butt;stroke-linejoin:miter;stroke-opacity:1;opacity:0.45454545" /></g></svg>
