<?xml version="1.0" encoding="UTF-8" standalone="no"?>
<svg
   xmlns:dc="http://purl.org/dc/elements/1.1/"
   xmlns:cc="http://creativecommons.org/ns#"
   xmlns:rdf="http://www.w3.org/1999/02/22-rdf-syntax-ns#"
   xmlns:svg="http://www.w3.org/2000/svg"
   xmlns="http://www.w3.org/2000/svg"
   xmlns:sodipodi="http://sodipodi.sourceforge.net/DTD/sodipodi-0.dtd"
   xmlns:inkscape="http://www.inkscape.org/namespaces/inkscape"
   sodipodi:docname="qtform.svg"
   inkscape:version="1.0 (4035a4fb49, 2020-05-01)"
   id="svg8"
   version="1.1"
   viewBox="0 0 100 70"
   height="70mm"
   width="100mm">
  <defs
     id="defs2">
    <marker
       inkscape:isstock="true"
       style="overflow:visible"
       id="marker1143"
       refX="0.0"
       refY="0.0"
       orient="auto"
       inkscape:stockid="DotM">
      <path
         transform="scale(0.4) translate(7.4, 1)"
         style="fill-rule:evenodd;stroke:#000000;stroke-width:1pt;stroke-opacity:1;fill:#000000;fill-opacity:1"
         d="M -2.5,-1.0 C -2.5,1.7600000 -4.7400000,4.0 -7.5,4.0 C -10.260000,4.0 -12.5,1.7600000 -12.5,-1.0 C -12.5,-3.7600000 -10.260000,-6.0 -7.5,-6.0 C -4.7400000,-6.0 -2.5,-3.7600000 -2.5,-1.0 z "
         id="path1141" />
    </marker>
    <marker
       inkscape:isstock="true"
       style="overflow:visible"
       id="DotM"
       refX="0.0"
       refY="0.0"
       orient="auto"
       inkscape:stockid="DotM">
      <path
         transform="scale(0.4) translate(7.4, 1)"
         style="fill-rule:evenodd;stroke:#000000;stroke-width:1pt;stroke-opacity:1;fill:#000000;fill-opacity:1"
         d="M -2.5,-1.0 C -2.5,1.7600000 -4.7400000,4.0 -7.5,4.0 C -10.260000,4.0 -12.5,1.7600000 -12.5,-1.0 C -12.5,-3.7600000 -10.260000,-6.0 -7.5,-6.0 C -4.7400000,-6.0 -2.5,-3.7600000 -2.5,-1.0 z "
         id="path909" />
    </marker>
    <marker
       inkscape:isstock="true"
       style="overflow:visible"
       id="DotL"
       refX="0.0"
       refY="0.0"
       orient="auto"
       inkscape:stockid="DotL">
      <path
         transform="scale(0.8) translate(7.4, 1)"
         style="fill-rule:evenodd;stroke:#000000;stroke-width:1pt;stroke-opacity:1;fill:#000000;fill-opacity:1"
         d="M -2.5,-1.0 C -2.5,1.7600000 -4.7400000,4.0 -7.5,4.0 C -10.260000,4.0 -12.5,1.7600000 -12.5,-1.0 C -12.5,-3.7600000 -10.260000,-6.0 -7.5,-6.0 C -4.7400000,-6.0 -2.5,-3.7600000 -2.5,-1.0 z "
         id="path906" />
    </marker>
    <inkscape:path-effect
       lpeversion="1"
       is_visible="true"
       id="path-effect20"
       effect="spiro" />
    <inkscape:path-effect
       lpeversion="1"
       is_visible="true"
       id="path-effect16"
       effect="spiro" />
    <inkscape:path-effect
       lpeversion="1"
       is_visible="true"
       id="path-effect12"
       effect="spiro" />
  </defs>
  <sodipodi:namedview
     inkscape:window-maximized="0"
     inkscape:window-y="1620"
     inkscape:window-x="298"
     inkscape:window-height="728"
     inkscape:window-width="2571"
     showgrid="false"
     inkscape:document-rotation="0"
     inkscape:current-layer="layer1"
     inkscape:document-units="mm"
     inkscape:cy="112.46058"
     inkscape:cx="183.21866"
     inkscape:zoom="2.8"
     inkscape:pageshadow="2"
     inkscape:pageopacity="0.0"
     borderopacity="1.0"
     bordercolor="#666666"
     pagecolor="#ffffff"
     id="base" />
  <metadata
     id="metadata5">
    <rdf:RDF>
      <cc:Work
         rdf:about="">
        <dc:format>image/svg+xml</dc:format>
        <dc:type
           rdf:resource="http://purl.org/dc/dcmitype/StillImage" />
        <dc:title></dc:title>
      </cc:Work>
    </rdf:RDF>
  </metadata>
  <g
     id="layer1"
     inkscape:groupmode="layer"
     inkscape:label="Layer 1">
    <path
       inkscape:original-d="m 18.976137,45.569454 c 8.953794,-1.603352 17.907323,-3.20697 26.860587,-4.81085 8.953265,-1.603883 10.156508,-4.988767 15.234362,-7.483547 5.077857,-2.49478 10.334688,-9.354169 15.501633,-14.03165"
       inkscape:path-effect="#path-effect20"
       id="path18"
       d="m 18.976137,45.569454 c 9.138129,-0.09062 18.259057,-1.724218 26.860587,-4.81085 5.337255,-1.915257 10.48173,-4.390492 15.234362,-7.483547 5.866123,-3.817724 11.120264,-8.573627 15.501633,-14.03165"
       style="fill:none;stroke:#000000;stroke-width:0.165;stroke-linecap:butt;stroke-linejoin:miter;stroke-miterlimit:4;stroke-dasharray:none;stroke-opacity:1;marker-start:url(#DotM);marker-end:url(#marker1143)" />
    <path
       id="path1235"
       d="m 18.976137,45.569454 c 2.392052,-5.049472 8.267003,-12.065259 14.633005,-11.626225 2.452928,0.169169 6.232361,1.68048 8.552624,0.133635 5.105826,-3.403883 7.510029,-10.442171 14.098469,-11.759859 3.410294,-0.682059 18.70116,0.954718 20.312483,-3.073598"
       style="fill:none;stroke:#999999;stroke-width:0.165;stroke-linecap:butt;stroke-linejoin:miter;stroke-opacity:1;stroke-miterlimit:4;stroke-dasharray:0.33000001, 0.33000001000000001;stroke-dashoffset:0;opacity:0.50974026" />
    <path
       id="path1237"
       d="m 18.976137,45.569454 c 12.268728,7.753641 13.592301,-0.01738 23.519716,-2.071338 6.868996,-1.421172 14.103998,1.910643 21.18111,0.534538 9.764877,-1.898727 17.935858,-16.389101 12.895755,-24.789247"
       style="fill:none;stroke:#999999;stroke-width:0.165;stroke-linecap:butt;stroke-linejoin:miter;stroke-opacity:1;stroke-miterlimit:4;stroke-dasharray:0.33, 0.33000000000000002;stroke-dashoffset:0;opacity:0.5487013" />
    <path
       id="path1241"
       d="m 18.976137,45.569454 c -1.270409,-3.493301 -1.212914,-7.493143 -0.171822,-11.079128 5.843406,-20.127284 12.705028,-3.493331 18.520834,-7.370535 6.481823,-4.321216 8.087217,-13.823026 17.481399,-13.040178 3.741436,0.311786 20.092598,6.838675 21.76617,5.163794"
       style="fill:none;stroke:#999999;stroke-width:0.165;stroke-linecap:butt;stroke-linejoin:miter;stroke-opacity:1;stroke-miterlimit:4;stroke-dasharray:0.33, 0.33000000000000002;stroke-dashoffset:0;opacity:0.53896104" />
    <text
       id="text1245"
       y="35.41637"
       x="62.744045"
       style="font-size:4.23333px;font-family:sans-serif;stroke-width:0.264583"
       xml:space="preserve"><tspan
         style="stroke-width:0.264583"
         y="35.41637"
         x="62.744045"
         id="tspan1243"
         sodipodi:role="line">$q(t)$</tspan></text>
    <text
       id="text1249"
       y="12.133037"
       x="52.727676"
       style="font-size:3.88056px;font-family:sans-serif;opacity:0.538961;fill:#4d4d4d;stroke:none;stroke-width:0.264583;"
       xml:space="preserve"><tspan
         style="fill:#4d4d4d;stroke:none;stroke-width:0.264583;"
         y="12.133037"
         x="52.727676"
         id="tspan1247"
         sodipodi:role="line">$q(t)+\epsilon \eta (t)$</tspan></text>
    <text
       id="text1267"
       y="18.180655"
       x="78.184372"
       style="font-size:2.46944px;font-family:sans-serif;stroke-width:0.264583"
       xml:space="preserve"><tspan
         style="font-size:2.46944px;stroke-width:0.264583"
         y="18.180655"
         x="78.184372"
         id="tspan1265"
         sodipodi:role="line">$q(t_b)$</tspan></text>
    <text
       id="text1271"
       y="47.643894"
       x="10.18646"
       style="font-size:2.46944px;font-family:sans-serif;stroke-width:0.264583"
       xml:space="preserve"><tspan
         style="font-size:2.46944px;stroke-width:0.264583"
         y="47.643894"
         x="10.18646"
         id="tspan1269"
         sodipodi:role="line">$q(t_a)$</tspan></text>
  </g>
</svg>
