<?xml version="1.0" encoding="UTF-8" standalone="no"?>
<svg
   xmlns:dc="http://purl.org/dc/elements/1.1/"
   xmlns:cc="http://creativecommons.org/ns#"
   xmlns:rdf="http://www.w3.org/1999/02/22-rdf-syntax-ns#"
   xmlns:svg="http://www.w3.org/2000/svg"
   xmlns="http://www.w3.org/2000/svg"
   xmlns:sodipodi="http://sodipodi.sourceforge.net/DTD/sodipodi-0.dtd"
   xmlns:inkscape="http://www.inkscape.org/namespaces/inkscape"
   inkscape:export-ydpi="96"
   inkscape:export-xdpi="96"
   inkscape:export-filename="C:\Users\ajh01\Desktop\iconwhite.png"
   width="488"
   height="488"
   viewBox="0 0 129.11665 129.11665"
   version="1.1"
   id="svg997"
   inkscape:version="1.0 (4035a4fb49, 2020-05-01)"
   sodipodi:docname="icongrey.svg">
  <defs
     id="defs991" />
  <sodipodi:namedview
     id="base"
     pagecolor="#ffffff"
     bordercolor="#666666"
     borderopacity="1.0"
     inkscape:pageopacity="0.0"
     inkscape:pageshadow="2"
     inkscape:zoom="0.0875"
     inkscape:cx="-453.64941"
     inkscape:cy="507.32902"
     inkscape:document-units="mm"
     inkscape:current-layer="layer2"
     inkscape:document-rotation="0"
     showgrid="false"
     units="px"
     showborder="true"
     inkscape:window-width="958"
     inkscape:window-height="1034"
     inkscape:window-x="0"
     inkscape:window-y="0"
     inkscape:window-maximized="0" />
  <metadata
     id="metadata994">
    <rdf:RDF>
      <cc:Work
         rdf:about="">
        <dc:format>image/svg+xml</dc:format>
        <dc:type
           rdf:resource="http://purl.org/dc/dcmitype/StillImage" />
        <dc:title></dc:title>
      </cc:Work>
    </rdf:RDF>
  </metadata>
  <g
     inkscape:groupmode="layer"
     id="layer2"
     inkscape:label="Layer 2" />
  <g
     inkscape:label="Layer 1"
     inkscape:groupmode="layer"
     id="layer1">
    <path
       style="opacity:0.75;mix-blend-mode:luminosity;fill:#000000;fill-opacity:1;stroke:#000000;stroke-width:8.404;stroke-miterlimit:4;stroke-dasharray:none;stroke-dashoffset:0;stroke-opacity:1"
       id="path1572"
       d="m 526.84908,-103.61373 c 5.6451,-2.69055 11.10613,-5.82314 16.30867,-9.29067 1.31612,-0.8772 2.49657,-1.9426 3.74487,-2.91389 4.2991,-3.61458 8.40744,-7.58124 11.6595,-12.19307 1.50914,-2.14016 2.84197,-4.4011 4.17133,-6.65733 3.44603,-5.84872 4.78205,-8.73459 7.83259,-14.77389 6.31816,-13.09692 10.3941,-27.07288 14.18593,-41.06081 1.15835,-3.52027 1.52565,-7.33846 3.07811,-10.73673 0.19569,-0.42834 1.18169,-1.40116 0.76048,-1.1906 -5.18549,2.59214 -5.18337,1.71111 -3.49875,4.20518 0.35819,0.79264 0.74412,1.57332 1.07455,2.37793 1.04381,2.54173 1.99166,5.36127 2.91579,7.92769 1.2935,3.59227 2.54345,7.2009 3.90423,10.76824 0.7419,1.94496 1.54671,3.86534 2.32006,5.798 4.6236,11.77724 10.94919,22.77825 17.04413,33.8344 0.96849,1.70898 1.93169,3.42098 2.90551,5.12695 1.83646,3.2172 3.21286,5.63284 5.15394,8.75726 2.12169,3.41512 4.38759,6.72517 6.70577,10.00807 2.15733,2.92525 4.43112,5.76802 6.84068,8.48972 0.12661,0.15364 0.37543,0.26193 0.37964,0.46096 0.004,0.12353 -0.46968,0.0573 -0.37024,-0.0163 1.36551,-1.0065 3.18141,-1.49586 4.23025,-2.82914 0.41568,-0.5284 -1.34622,0.0628 -2.01685,0.0145 -2.88053,-0.20356 -4.61333,-0.62554 -7.51955,-1.16993 -11.83551,-2.65362 -23.39752,-6.58085 -34.5608,-11.31265 -3.52789,-1.49537 -7.00406,-3.1099 -10.50609,-4.66487 -12.97234,-6.14888 -25.74199,-12.74773 -38.11132,-20.04043 -5.25714,-3.0995 -6.76434,-4.12731 -11.62199,-7.25128 0.092,-1.67493 -4.90349,-2.01439 -5.11777,-4.21374 -0.043,-0.44191 1.22388,-0.97504 1.22161,-0.53105 -0.005,0.91831 -2.01429,1.98416 -1.23152,2.46437 1.52712,0.93686 3.58369,0.0145 5.37425,0.0771 2.43065,0.0836 4.85832,0.23889 7.28747,0.35834 13.33506,0.66795 26.70449,1.38547 40.03466,0.16144 9.08638,-0.83432 13.00606,-1.73151 21.87012,-3.32783 10.2657,-2.25645 20.61721,-4.64107 30.24049,-8.98364 0.79735,-0.35983 1.56889,-0.77431 2.35335,-1.16148 6.9139,-4.00653 4.45204,-2.3021 7.699,-4.62801 0,0 -5.34919,2.10999 -5.34919,2.10999 v 0 c -2.11004,1.47172 -1.54584,1.02163 1.95488,-0.93091 -0.82416,0.43311 -1.63296,0.89686 -2.47249,1.29936 -9.88244,4.73793 -20.58564,7.41949 -31.21504,9.87154 -9.20698,1.71978 -12.42609,2.54278 -21.86501,3.38739 -13.13261,1.1751 -26.32279,0.45183 -39.43845,-0.52991 -2.33682,-0.1917 -4.67181,-0.4069 -7.01045,-0.57511 -1.71662,-0.12335 -3.46428,-0.62432 -5.15445,-0.29977 -2.91638,0.56005 -5.72239,1.66824 -8.42146,2.90678 -0.42635,0.19565 -0.82578,0.82063 -0.64208,1.25225 0.9131,2.14536 5.11799,1.95806 5.77701,3.94368 4.91548,2.86456 6.90987,4.0578 12.12354,6.94762 12.61895,6.99436 25.49738,13.51464 38.45723,19.85039 3.38633,1.63955 6.73446,3.36042 10.15897,4.91861 2.73927,1.24641 5.53045,2.37723 8.3258,3.49221 6.70244,2.67336 13.57641,5.03329 20.50163,7.06445 1.66561,0.48853 3.35383,0.89647 5.03074,1.34471 2.59729,0.56914 4.64764,1.06685 7.23768,1.47007 0.63731,0.0992 1.31888,0.43553 1.92343,0.21078 2.08238,-0.77406 4.01728,-1.92319 5.89164,-3.11578 0.17504,-0.11138 0.0633,-0.43085 -0.0163,-0.62213 -0.0802,-0.1911 -0.28805,-0.2981 -0.43206,-0.44714 -2.57607,-2.56886 -4.96856,-5.32365 -7.21579,-8.18294 -5.64216,-7.46882 -10.5783,-15.42981 -15.15828,-23.58919 -6.14792,-11.00602 -12.42796,-21.99931 -17.03004,-33.76872 -2.28245,-5.8947 -2.19982,-5.50262 -4.20264,-11.35855 -1.52721,-4.4653 -2.81297,-9.01176 -4.36256,-13.46806 -0.2966,-0.85293 -0.64453,-1.6871 -0.96679,-2.53066 -1.83496,-3.42001 -0.72866,-2.77371 -6.69044,1.0081 -0.36925,0.23423 -0.39241,0.7848 -0.53125,1.19945 -0.5787,1.72846 -1.06342,4.19375 -1.444,5.86683 -0.35136,1.54453 -0.70836,3.0878 -1.06255,4.63169 -1.08766,4.31981 -1.86455,7.54927 -3.11399,11.87729 -2.85151,9.87749 -6.25828,19.61298 -10.69617,28.89882 -1.24154,2.46059 -2.42295,4.95245 -3.72458,7.38178 -2.597,4.84694 -5.39686,9.67359 -8.66888,14.10651 -3.3908,4.59383 -7.5462,8.58246 -11.94694,12.18877 -1.29969,0.97788 -2.70034,1.83435 -3.89908,2.93365 -0.32001,0.29346 1.56585,-0.72634 1.21425,-0.47155 -0.87308,0.6327 -1.85442,1.10147 -2.79958,1.62039 -1.68901,0.92732 -3.43197,1.776 -5.20146,2.53871 0,0 -4.60623,3.68454 -4.60623,3.68454 z" />
    <path
       style="opacity:1;fill:#ffffff;fill-opacity:1;stroke:#666666;stroke-width:7.643;stroke-miterlimit:4;stroke-dasharray:none;stroke-dashoffset:0;stroke-opacity:0.68725866"
       id="path1602"
       d="m 9.8787385,107.32461 c 7.0681595,-4.05707 13.9222895,-9.127655 19.6356895,-15.635345 4.25015,-4.841024 6.15185,-7.743053 10.0502,-13.125747 1.64633,-2.694489 3.39601,-5.301969 4.93898,-8.083467 1.60035,-2.884921 3.06117,-5.880936 4.48163,-8.89892 2.97874,-6.328738 4.75384,-10.750894 6.94445,-17.480089 1.87527,-5.760554 2.76057,-9.605035 4.23904,-15.41896 0.99949,-3.558885 1.56014,-7.259527 2.40861,-10.866703 0.26492,-1.126255 1.83015,-3.684344 0.8996,-3.34054 -11.20665,4.140459 -7.23075,3.742797 -4.83793,7.600513 1.20806,1.947637 2.2325,4.050554 3.34875,6.075829 8.1847,16.965702 15.40967,34.568942 21.84625,52.585394 0.94553,2.646603 1.83717,5.320564 2.75575,7.980849 0.49976,1.659894 2.93668,7.793911 1.98347,10.435011 -0.37273,1.032745 -2.34075,2.983905 -2.34567,1.858165 -0.008,-1.740765 3.37705,-3.195955 2.33452,-4.403925 -1.62278,-1.88032 -4.508,-0.29083 -6.73634,-0.69647 -2.86448,-0.52143 -5.67828,-1.38682 -8.51742,-2.08023 -3.20904,-1.09244 -6.44529,-2.07536 -9.62713,-3.277326 -5.81991,-2.198518 -12.8185,-5.393504 -18.48576,-8.136063 -5.36262,-2.595128 -9.98426,-5.011233 -15.17927,-7.946588 -1.8408,-1.040112 -3.65402,-2.149382 -5.48102,-3.224075 -0.19122,-0.138675 -5.26892,-3.306366 -5.54188,-4.94095 -0.11007,-0.659115 1.63819,-1.828445 1.20643,-1.401276 -1.07253,1.061112 -4.48031,2.908452 -3.13117,3.305541 2.27771,0.670397 4.50379,-1.582132 6.78605,-2.229807 3.11901,-0.885133 6.27367,-1.5777 9.4105,-2.36655 16.56125,-3.792608 33.22968,-6.907628 49.59683,-11.843104 9.54333,-2.877771 13.43876,-4.45972 22.605472,-7.840657 11.42884,-5.023419 6.03074,-2.421172 16.22765,-7.705943 0,0 5.02916,-4.792648 5.02916,-4.792648 v 0 c -10.81781,5.970204 -5.10992,3.042412 -17.15919,8.682654 -9.815412,3.862472 -12.938742,5.299644 -23.183412,8.433566 -15.87973,4.857727 -32.09768,7.865196 -48.29543,10.692968 -0.42773,0.07869 -13.11558,2.254688 -14.74283,3.053016 -3.96529,1.945368 -7.85528,4.236342 -11.39716,7.13101 -0.55842,0.456377 -0.63411,1.721126 -0.27968,2.412104 0.66494,1.29634 6.64236,4.10876 6.85377,4.219824 11.32746,5.363947 0.43969,0.226 13.34536,6.254059 11.98282,5.597007 23.9655,11.206405 36.23695,15.844895 1.04281,0.35409 12.09062,4.448135 14.16808,4.017745 4.17279,-0.86448 8.13848,-2.943285 11.97259,-5.103665 0.83459,-0.47026 1.58254,-1.51164 1.71435,-2.6084 0.27612,-2.29767 -2.93979,-8.742174 -3.39988,-9.806924 -4.09952,-9.263588 -8.18625,-18.533651 -12.01182,-27.967292 -3.92175,-9.670812 -5.41923,-13.682664 -8.93164,-23.465364 -1.12271,-3.126945 -2.20058,-6.276884 -3.30086,-9.415326 -0.76188,-2.322713 -1.43939,-4.688029 -2.28562,-6.96814 -0.46894,-1.263531 -0.51869,-3.87782 -1.65297,-3.644152 -3.26603,0.672817 -6.12625,3.271548 -8.70233,5.777394 -0.68101,0.662444 -0.29517,2.076292 -0.43942,3.115111 -0.94156,6.780445 -0.30105,2.685805 -1.63268,10.35055 -1.36239,6.36318 -1.70761,8.610007 -3.6864,14.994003 -3.84785,12.413973 -9.34687,24.005603 -16.39766,34.196677 -1.78028,2.37142 -3.48565,4.827341 -5.34083,7.114263 -3.48297,4.29349 -6.36919,7.33259 -10.31351,10.8419 -1.24768,1.110075 -5.41146,3.201085 -3.86042,3.130565 1.7958,-0.0816 3.15835,-2.06471 4.70304,-3.168875 0.39053,-0.27916 -0.82403,0.460415 -1.23605,0.690625 0,0 -7.5897895,7.08929 -7.5897895,7.08929 z" />
  </g>
</svg>
