<?xml version="1.0" encoding="UTF-8" standalone="no"?>
<svg
   xmlns:dc="http://purl.org/dc/elements/1.1/"
   xmlns:cc="http://creativecommons.org/ns#"
   xmlns:rdf="http://www.w3.org/1999/02/22-rdf-syntax-ns#"
   xmlns:svg="http://www.w3.org/2000/svg"
   xmlns="http://www.w3.org/2000/svg"
   xmlns:sodipodi="http://sodipodi.sourceforge.net/DTD/sodipodi-0.dtd"
   xmlns:inkscape="http://www.inkscape.org/namespaces/inkscape"
   sodipodi:docname="resico.svg"
   inkscape:version="1.0 (4035a4fb49, 2020-05-01)"
   id="svg997"
   version="1.1"
   viewBox="0 0 129.11665 129.11665"
   height="488"
   width="488"
   inkscape:export-filename="C:\Users\ajh01\Desktop\icon3res.png"
   inkscape:export-xdpi="96"
   inkscape:export-ydpi="96">
  <defs
     id="defs991" />
  <sodipodi:namedview
     inkscape:window-maximized="1"
     inkscape:window-y="-11"
     inkscape:window-x="-11"
     inkscape:window-height="1046"
     inkscape:window-width="1920"
     showborder="true"
     units="px"
     showgrid="false"
     inkscape:document-rotation="0"
     inkscape:current-layer="layer1"
     inkscape:document-units="mm"
     inkscape:cy="2575.0344"
     inkscape:cx="-3802.0319"
     inkscape:zoom="0.061871843"
     inkscape:pageshadow="2"
     inkscape:pageopacity="0.0"
     borderopacity="1.0"
     bordercolor="#666666"
     pagecolor="#ffffff"
     id="base" />
  <metadata
     id="metadata994">
    <rdf:RDF>
      <cc:Work
         rdf:about="">
        <dc:format>image/svg+xml</dc:format>
        <dc:type
           rdf:resource="http://purl.org/dc/dcmitype/StillImage" />
        <dc:title></dc:title>
      </cc:Work>
    </rdf:RDF>
  </metadata>
  <g
     inkscape:label="Layer 2"
     id="layer2"
     inkscape:groupmode="layer" />
  <g
     id="layer1"
     inkscape:groupmode="layer"
     inkscape:label="Layer 1">
    <path
       d="M 3.6220837,86.071718 C 9.7274303,82.567269 15.647906,78.18739 20.583039,72.566189 c 3.671201,-4.181593 5.313856,-6.688305 8.68118,-11.337782 1.42207,-2.327451 2.933411,-4.579745 4.2662,-6.982353 1.382352,-2.491941 2.644182,-5.07984 3.871149,-7.686724 2.572981,-5.466642 4.10628,-9.286422 5.99849,-15.098972 1.619823,-4.975867 2.384529,-8.296658 3.661604,-13.318615 0.863341,-3.074106 1.347621,-6.270653 2.080513,-9.3864697 0.228834,-0.9728344 1.580851,-3.1824669 0.777058,-2.8854983 -9.680098,3.5764553 -6.245789,3.2329643 -4.178915,6.565193 1.043501,1.682328 1.928393,3.498792 2.892589,5.248183 7.069794,14.654671 13.31059,29.860027 18.870391,45.422305 0.816731,2.286086 1.586913,4.595803 2.380366,6.893713 0.431682,1.433782 2.536638,6.732221 1.713275,9.013543 -0.321954,0.892056 -2.021887,2.577438 -2.026137,1.605044 -0.0069,-1.503636 2.917019,-2.760596 2.016506,-3.804013 -1.401718,-1.624176 -3.893919,-0.25121 -5.818717,-0.601595 -2.474285,-0.450399 -4.904794,-1.197902 -7.357192,-1.796854 -2.77191,-0.943625 -5.567322,-1.792656 -8.315738,-2.830896 C 45.06853,69.685356 39.023276,66.925591 34.128,64.556619 c -4.632132,-2.241626 -8.624221,-4.32861 -13.111577,-6.86412 -1.590049,-0.898428 -3.156277,-1.856594 -4.734406,-2.784892 -0.165173,-0.119784 -4.551199,-2.855982 -4.786978,-4.267903 -0.09507,-0.569335 1.41504,-1.57938 1.042094,-1.210399 -0.926433,0.916567 -3.8700123,2.512266 -2.7046487,2.855265 1.9674447,0.579079 3.8902937,-1.366615 5.8616677,-1.926069 2.694145,-0.764559 5.419084,-1.362788 8.12862,-2.044182 14.305306,-3.275979 28.70319,-5.966676 42.840835,-10.229853 8.243331,-2.485765 11.608135,-3.852225 19.526198,-6.772619 9.872022,-4.339137 5.209243,-2.091362 14.017155,-6.65625 0,0 4.34412,-4.139803 4.34412,-4.139803 v 0 c -9.344258,5.156958 -4.41387,2.627978 -14.821826,7.499924 -8.478397,3.33633 -11.176273,4.577731 -20.025412,7.284753 -13.71662,4.196019 -27.725388,6.793816 -41.716707,9.236392 -0.369465,0.06798 -11.329002,1.94756 -12.734591,2.637143 -3.425147,1.680365 -6.7852495,3.659273 -9.8446605,6.159636 -0.4823533,0.394203 -0.5477337,1.486672 -0.2415833,2.083527 0.5743626,1.119755 5.7375488,3.549071 5.9201628,3.645004 9.784456,4.633281 0.379795,0.195214 11.527481,5.402142 10.350543,4.834594 20.700962,9.679892 31.300815,13.686512 0.900761,0.305855 10.443657,3.842217 12.238128,3.470445 3.60438,-0.746721 7.029853,-2.542352 10.341681,-4.408438 0.720903,-0.406199 1.366967,-1.30572 1.480822,-2.253075 0.238513,-1.984681 -2.539335,-7.55133 -2.936751,-8.471043 C 71.497564,58.487006 67.967528,50.47969 64.663071,42.331084 61.275535,33.977615 59.98204,30.512254 56.948085,22.062136 55.978307,19.361135 55.047263,16.640273 54.096862,13.929345 53.438764,11.92303 52.853543,9.8799083 52.122585,7.9103912 51.717523,6.8189767 51.67455,4.5607987 50.69478,4.7626389 c -2.821137,0.5811708 -5.291743,2.8259067 -7.516913,4.9904064 -0.588244,0.5722127 -0.254963,1.7934717 -0.379564,2.6907857 -0.813301,5.856821 -0.26004,2.319946 -1.410278,8.940617 -1.176807,5.496398 -1.475003,7.43716 -3.184245,12.951543 -3.323702,10.722959 -8.073655,20.735597 -14.164,29.538464 -1.537773,2.04839 -3.01084,4.169768 -4.613311,6.145168 -3.008528,3.708641 -5.501593,6.333744 -8.908627,9.365007 -1.0777224,0.95885 -4.6743193,2.765043 -3.3345596,2.704129 1.5511796,-0.07049 2.7281249,-1.783472 4.0624006,-2.737221 0.337333,-0.241134 -0.711782,0.397692 -1.067678,0.596539 0,0 -6.5559213,6.123641 -6.5559213,6.123641 z"
       id="path1602"
       style="opacity:1;fill:#ffffff;fill-opacity:1;stroke:#808080;stroke-width:7;stroke-miterlimit:4;stroke-dasharray:none;stroke-dashoffset:0;stroke-opacity:0.7578125" />
    <path
       style="opacity:1;fill:#ffffff;fill-opacity:1;stroke:#808080;stroke-width:0;stroke-miterlimit:4;stroke-dasharray:none;stroke-dashoffset:0;stroke-opacity:0.757812"
       id="path1602-9"
       d="m 3.62208,86.071717 c 6.10535,-3.50445 12.02583,-7.88433 16.96096,-13.50553 3.6712,-4.18159 5.31385,-6.6883 8.68118,-11.33778 1.42207,-2.32745 2.93341,-4.57974 4.2662,-6.98235 1.38235,-2.49194 2.64418,-5.07984 3.87115,-7.68673 2.57298,-5.46664 4.10628,-9.28642 5.99849,-15.09897 1.61982,-4.97587 2.38453,-8.29666 3.6616,-13.31861 0.86334,-3.07411 1.34762,-6.27066 2.08051,-9.38647 0.22884,-0.97284 1.58086,-3.18247 0.77706,-2.8855 -9.68009,3.57645 -6.24579,3.23296 -4.17891,6.56519 1.0435,1.68233 1.92839,3.49879 2.89259,5.24818 7.06979,14.65468 13.31059,29.86003 18.87039,45.42231 0.81673,2.28608 1.58691,4.5958 2.38036,6.89371 0.43169,1.43378 2.53664,6.73222 1.71328,9.01355 -0.32195,0.89205 -2.02189,2.57743 -2.02614,1.60504 -0.007,-1.50363 2.91702,-2.7606 2.01651,-3.80401 -1.40172,-1.62418 -3.89392,-0.25121 -5.81872,-0.6016 -2.47428,-0.4504 -4.90479,-1.1979 -7.35719,-1.79685 -2.77191,-0.94363 -5.56732,-1.79266 -8.31574,-2.8309 -5.02713,-1.89904 -11.07238,-4.65881 -15.96766,-7.02778 -4.63213,-2.24162 -8.62422,-4.32861 -13.11158,-6.86412 -1.59005,-0.89843 -3.15627,-1.85659 -4.7344,-2.78489 -0.16518,-0.11978 -4.5512,-2.85598 -4.78698,-4.2679 -0.0951,-0.56934 1.41504,-1.57938 1.04209,-1.2104 -0.92643,0.91657 -3.87001,2.51227 -2.70465,2.85526 1.96745,0.57908 3.8903,-1.36661 5.86167,-1.92607 2.69415,-0.76455 5.41909,-1.36278 8.12862,-2.04418 14.30531,-3.27598 28.70319,-5.96667 42.84084,-10.22985 8.24333,-2.48577 11.60813,-3.85223 19.5262,-6.77262 9.87202,-4.33914 5.20924,-2.09136 14.01715,-6.65625 0,0 4.34412,-4.1398 4.34412,-4.1398 v 0 c -9.34426,5.15696 -4.41387,2.62798 -14.82182,7.49992 -8.4784,3.33633 -11.17628,4.57773 -20.02542,7.28475 -13.71662,4.19602 -27.72539,6.79382 -41.71671,9.2364 -0.36946,0.068 -11.329,1.94756 -12.73459,2.63714 -3.42514,1.68036 -6.78525,3.65927 -9.84466,6.15964 -0.48235,0.3942 -0.54773,1.48667 -0.24158,2.08352 0.57436,1.11976 5.73755,3.54907 5.92016,3.64501 9.78446,4.63328 0.3798,0.19521 11.52748,5.40214 10.35055,4.83459 20.70097,9.67989 31.30082,13.68651 0.90076,0.30586 10.44366,3.84222 12.23813,3.47045 3.60438,-0.74673 7.02985,-2.54236 10.34168,-4.40844 0.7209,-0.4062 1.36696,-1.30572 1.48082,-2.25308 0.23851,-1.98468 -2.53933,-7.55133 -2.93675,-8.47104 -3.54108,-8.00171 -7.07111,-16.00903 -10.37557,-24.15763 -3.38753,-8.35347 -4.68103,-11.81883 -7.71499,-20.26895 -0.96977,-2.701 -1.90082,-5.42186 -2.85122,-8.13279 -0.6581,-2.00632 -1.24332,-4.04944 -1.97428,-6.01896 -0.40506,-1.09141 -0.44803,-3.34959 -1.4278,-3.14775 -2.82114,0.58117 -5.29174,2.82591 -7.51691,4.99041 -0.58825,0.57221 -0.25497,1.79347 -0.37957,2.69078 -0.8133,5.85683 -0.26004,2.31995 -1.41027,8.94062 -1.17681,5.4964 -1.47501,7.43716 -3.18425,12.95154 -3.3237,10.72296 -8.07366,20.7356 -14.164,29.53847 -1.53777,2.04839 -3.01084,4.16977 -4.61331,6.14517 -3.00853,3.70864 -5.50159,6.33374 -8.90863,9.36501 -1.07772,0.95885 -4.67432,2.76504 -3.33456,2.70412 1.55118,-0.0705 2.72813,-1.78347 4.0624,-2.73722 0.33734,-0.24113 -0.71178,0.39769 -1.06768,0.59654 0,0 -6.55592,6.12364 -6.55592,6.12364 z" />
    <path
       style="opacity:0.9;fill:#000000;stroke:#000000;stroke-width:6;stroke-miterlimit:4;stroke-dasharray:none;stroke-opacity:1"
       id="path867"
       d="m 62.164058,124.75968 c 0.417755,-0.54108 0.732792,-1.14352 1.064839,-1.75208 0.208954,-0.38296 0.434064,-0.75523 0.63095,-1.14608 0.505542,-1.00359 1.016832,-2.22205 1.463788,-3.24924 1.622378,-3.84311 2.793971,-7.89682 3.971881,-11.92928 0.601932,-2.58557 1.100242,-5.19924 1.626821,-7.804716 0.186456,-0.922569 0.383656,-1.842515 0.559357,-2.767712 0.351822,-1.852614 0.679264,-3.876146 0.990214,-5.737581 0.438681,-2.704768 0.812318,-5.422376 1.125928,-8.14869 0.09732,-0.84605 0.202529,-1.69139 0.273874,-2.540663 0.07634,-0.908723 0.110746,-1.821233 0.169032,-2.731622 0.05917,-0.924341 0.122241,-1.84837 0.183364,-2.772556 0.174411,-2.645384 0.370934,-5.288855 0.570601,-7.931982 0.06149,-0.814026 0.136006,-1.626928 0.186031,-2.441935 0.10885,-1.773288 0.176237,-3.549474 0.274494,-5.323533 0.209613,-2.708393 0.397653,-5.417867 0.669676,-8.119506 0,0 -7.152543,-0.0332 -7.152543,-0.0332 v 0 c 0.07086,2.70038 0.08364,5.404311 -0.04725,8.103125 -0.0596,0.895501 -0.119207,1.791004 -0.178809,2.686506 -0.07575,0.877545 -0.165084,1.753758 -0.227267,2.632633 -0.05755,0.813403 -0.08842,1.628885 -0.131879,2.443378 -0.141042,2.643163 -0.270552,5.287267 -0.449407,7.927716 -0.332113,4.453814 -0.05838,1.075471 -0.473084,5.479905 -0.334735,3.55511 -0.64371,7.116146 -1.205557,10.638597 -0.909602,5.469468 -1.946851,10.937846 -3.583327,16.201656 -1.169116,4.00533 -2.33783,8.04173 -4.078503,11.79247 -0.831276,1.61653 -0.805801,1.67742 -1.76431,3.13183 -0.639534,0.9704 -1.356995,1.95113 -2.306492,2.558 0,0 7.837576,0.83456 7.837576,0.83456 z" />
    <path
       style="opacity:0.9;fill:#000000;stroke:#000000;stroke-width:6;stroke-miterlimit:4;stroke-dasharray:none;stroke-opacity:1"
       id="path869"
       d="m 80.866233,49.109413 c 2.00242,-1.258954 4.23596,-2.009742 6.421528,-2.779959 2.590562,-0.810822 5.236495,-1.569608 7.941374,-1.695089 0.465589,-0.0216 0.932003,-0.002 1.398003,-0.0032 -11.373131,-0.01473 -6.272539,-0.277834 -3.746102,0.628221 0.83146,0.298189 1.570894,0.660809 2.299686,1.200264 0.392135,0.290261 0.744045,0.641611 1.116068,0.962417 1.487864,1.590371 2.720783,3.54344 3.165261,5.810622 0.07245,0.369367 0.0956,0.748395 0.143412,1.122592 0.101333,1.896775 -0.396436,3.700737 -1.232328,5.344863 -0.18165,0.357284 -0.392652,0.695458 -0.58898,1.043189 -1.442201,2.186166 -3.306925,3.975173 -5.236914,5.619677 -2.289435,1.851108 -4.725571,3.479705 -7.214922,4.980987 -2.276158,1.344665 -4.711704,2.281319 -7.181363,3.081753 -0.986845,0.296243 -1.990616,0.54938 -3.016244,0.58005 2.597558,-0.01398 5.195115,-0.02794 7.792672,-0.04191 -0.115554,-0.01262 -0.230642,0.03336 -0.346006,0.0254 -0.156116,-0.01076 -0.296605,-0.09146 -0.452164,-0.111478 -0.162303,-0.07754 -0.09337,-0.02817 -0.211799,-0.139286 -2.666492,0.381794 -5.338315,0.720829 -7.999475,1.145387 -0.09785,0.0156 0.193055,0.04911 0.286355,0.08515 0.397383,0.153495 0.921394,0.410235 1.297351,0.587325 1.769531,0.836371 3.572821,1.587229 5.303493,2.521081 0.414479,0.223648 0.821049,0.46467 1.231575,0.697003 1.954819,1.143912 3.86893,2.405309 5.590628,3.947402 1.263004,1.131249 1.707376,1.697733 2.838397,2.964246 1.633702,2.019006 3.090399,4.207917 4.359564,6.522716 0.590854,1.077641 1.37998,2.660819 1.931641,3.751163 1.554677,2.964095 3.034491,5.978261 4.679686,8.883961 0.8148,1.43908 1.38572,2.3401 2.23834,3.72526 2.20268,2.9642 4.92358,5.36402 7.68735,7.65628 0.82397,0.63611 1.66363,1.24536 2.51469,1.83613 0,0 7.68549,-0.89405 7.68549,-0.89405 v 0 c -0.94924,-0.54311 -1.89005,-1.10342 -2.79561,-1.73243 -0.39301,-0.27616 -0.79196,-0.5423 -1.17904,-0.82847 -2.50827,-1.85442 -4.85575,-4.00721 -6.8352,-6.52738 -1.12678,-1.60696 -1.38798,-1.92682 -2.44245,-3.65717 -1.71413,-2.81287 -3.17065,-5.80023 -4.51279,-8.84544 -1.75297,-3.722632 -3.63749,-7.425717 -6.267292,-10.496162 C 95.940722,84.293649 96.369986,84.72521 94.679216,83.030835 94.208122,82.558737 93.747914,82.072137 93.255095,81.627786 92.067539,80.557031 90.727139,79.74652 89.412624,78.888297 87.405078,77.693742 85.351684,76.59308 83.262783,75.581744 82.832448,75.33926 82.620821,75.238513 82.23749,74.96473 82.16465,74.9127 82.115598,74.783586 82.029173,74.792533 c -2.75269,0.285026 -5.493236,0.697971 -8.239854,1.046953 0.152483,-0.0055 0.07173,-0.02034 0.237339,0.0697 0.186994,0.150715 0.286931,0.1464 0.486016,0.255307 0.0644,0.03523 0.121843,0.08593 0.188555,0.115517 2.609523,1.15713 9.844435,-12.758402 8.438566,0.03051 0.902067,-0.186471 1.778105,-0.493522 2.645636,-0.819788 2.349869,-0.913592 4.645969,-1.985652 6.842951,-3.287138 2.531922,-1.562824 5.043413,-3.176156 7.369346,-5.098033 1.963282,-1.74675 3.901202,-3.587807 5.335562,-5.900453 0.44447,-0.794204 0.81033,-1.381918 1.14661,-2.240432 0.58287,-1.488027 0.78947,-3.114162 0.7214,-4.723615 -0.0511,-0.420025 -0.0677,-0.846969 -0.15347,-1.260078 -0.0858,-0.413145 -0.21849,-0.813859 -0.35924,-1.208294 -0.67816,-1.900649 -1.7528,-3.579194 -3.02702,-5.05014 -0.96555,-1.004826 -1.03514,-1.199233 -2.16643,-1.91822 -3.600455,-2.288255 -8.463813,-1.331364 -12.204604,-1.433146 -0.452577,0.024 -0.906288,0.02935 -1.35773,0.07202 -2.665038,0.251822 -5.258549,1.061362 -7.815543,1.882035 -2.442769,0.844576 -4.893625,1.674092 -7.252314,2.779808 0,0 8.001284,1.00432 8.001284,1.00432 z" />
  </g>
</svg>
