<?xml version="1.0" encoding="UTF-8" standalone="no"?>
<svg
   xmlns:dc="http://purl.org/dc/elements/1.1/"
   xmlns:cc="http://creativecommons.org/ns#"
   xmlns:rdf="http://www.w3.org/1999/02/22-rdf-syntax-ns#"
   xmlns:svg="http://www.w3.org/2000/svg"
   xmlns="http://www.w3.org/2000/svg"
   xmlns:sodipodi="http://sodipodi.sourceforge.net/DTD/sodipodi-0.dtd"
   xmlns:inkscape="http://www.inkscape.org/namespaces/inkscape"
   inkscape:version="1.0 (4035a4fb49, 2020-05-01)"
   sodipodi:docname="drawingr2.svg"
   viewBox="0 0 531.45395 399.93695"
   height="105.81667mm"
   width="140.61389mm"
   xml:space="preserve"
   id="svg2"
   version="1.1"><metadata
     id="metadata8"><rdf:RDF><cc:Work
         rdf:about=""><dc:format>image/svg+xml</dc:format><dc:type
           rdf:resource="http://purl.org/dc/dcmitype/StillImage" /><dc:title></dc:title></cc:Work></rdf:RDF></metadata><defs
     id="defs6"><marker
       inkscape:stockid="Arrow1Lend"
       orient="auto"
       refY="0"
       refX="0"
       id="marker1495"
       style="overflow:visible"
       inkscape:isstock="true"><path
         id="path1493"
         d="M 0,0 5,-5 -12.5,0 5,5 Z"
         style="fill:#000000;fill-opacity:1;fill-rule:evenodd;stroke:#000000;stroke-width:1pt;stroke-opacity:1"
         transform="matrix(-0.8,0,0,-0.8,-10,0)" /></marker><marker
       inkscape:stockid="Arrow1Lend"
       orient="auto"
       refY="0"
       refX="0"
       id="marker1277"
       style="overflow:visible"
       inkscape:isstock="true"><path
         id="path1275"
         d="M 0,0 5,-5 -12.5,0 5,5 Z"
         style="fill:#000000;fill-opacity:1;fill-rule:evenodd;stroke:#000000;stroke-width:1pt;stroke-opacity:1"
         transform="matrix(-0.8,0,0,-0.8,-10,0)" /></marker><marker
       inkscape:collect="always"
       inkscape:isstock="true"
       style="overflow:visible"
       id="Arrow1Lend"
       refX="0"
       refY="0"
       orient="auto"
       inkscape:stockid="Arrow1Lend"><path
         transform="matrix(-0.8,0,0,-0.8,-10,0)"
         style="fill:#000000;fill-opacity:1;fill-rule:evenodd;stroke:#000000;stroke-width:1pt;stroke-opacity:1"
         d="M 0,0 5,-5 -12.5,0 5,5 Z"
         id="path990" /></marker></defs><sodipodi:namedview
     units="mm"
     inkscape:current-layer="g10"
     inkscape:window-maximized="1"
     inkscape:window-y="-11"
     inkscape:window-x="-11"
     inkscape:cy="317.7502"
     inkscape:cx="452.78663"
     inkscape:zoom="1"
     showgrid="false"
     id="namedview4"
     inkscape:window-height="1046"
     inkscape:window-width="1920"
     inkscape:pageshadow="2"
     inkscape:pageopacity="0"
     guidetolerance="10"
     gridtolerance="10"
     objecttolerance="10"
     borderopacity="1"
     bordercolor="#666666"
     pagecolor="#ffffff" /><g
     transform="matrix(1.3333333,0,0,-1.3333333,0,536)"
     inkscape:label="ink_ext_XXXXXX"
     inkscape:groupmode="layer"
     id="g10"><g
       transform="matrix(0.1,0,0,0.1,481.60466,524.83955)"
       id="g12"><path
         id="path14"
         style="fill:none;stroke:#000000;stroke-width:7.49999;stroke-linecap:butt;stroke-linejoin:miter;stroke-miterlimit:4;stroke-dasharray:none;stroke-opacity:1"
         d="M 315.469,3947.58 C 276.68,3815.04 197.809,3704.22 133.672,3583.91" /><path
         id="path16"
         style="fill:none;stroke:#000000;stroke-width:7.49999;stroke-linecap:butt;stroke-linejoin:miter;stroke-miterlimit:4;stroke-dasharray:none;stroke-opacity:1"
         d="M 133.672,3349.06 C 131.559,3219.84 95.7813,3098.75 95.7813,2970.23" /><path
         id="path18"
         style="fill:none;stroke:#000000;stroke-width:7.49999;stroke-linecap:butt;stroke-linejoin:miter;stroke-miterlimit:4;stroke-dasharray:none;stroke-opacity:1"
         d="M 42.7305,2402.03 C 66.9492,2282.93 31.7617,2169.34 12.4219,2053.52" /><path
         id="path20"
         style="fill:none;stroke:#000000;stroke-width:7.49999;stroke-linecap:butt;stroke-linejoin:miter;stroke-miterlimit:4;stroke-dasharray:none;stroke-opacity:1"
         d="m 35.1602,1485.31 c 44.1406,-107.97 0,-202.22 0,-310.62" /><path
         id="path22"
         style="fill:none;stroke:#000000;stroke-width:7.49999;stroke-linecap:butt;stroke-linejoin:miter;stroke-miterlimit:4;stroke-dasharray:none;stroke-opacity:1"
         d="M 42.7305,689.801 C 88.5508,628.789 141.91,588.012 156.371,515.59" /><path
         id="path24"
         style="fill:none;stroke:#000000;stroke-width:7.49999;stroke-linecap:butt;stroke-linejoin:miter;stroke-miterlimit:4;stroke-dasharray:none;stroke-opacity:1"
         d="m 610.941,242.809 c 127.149,-48.508 267.5,-71.36 401.559,-37.848" /><path
         id="path26"
         style="fill:none;stroke:#000000;stroke-width:7.49999;stroke-linecap:butt;stroke-linejoin:miter;stroke-miterlimit:4;stroke-dasharray:none;stroke-opacity:1"
         d="m 1520.08,242.809 c 122.85,70.511 179.02,133.75 242.46,250.043" /><path
         id="path28"
         style="fill:none;stroke:#000000;stroke-width:7.49999;stroke-linecap:butt;stroke-linejoin:miter;stroke-miterlimit:4;stroke-dasharray:none;stroke-opacity:1"
         d="m 1914.06,811.051 c 0.47,163.09 60.59,315.039 60.59,477.269" /><path
         id="path30"
         style="fill:none;stroke:#000000;stroke-width:7.49999;stroke-linecap:butt;stroke-linejoin:miter;stroke-miterlimit:4;stroke-dasharray:none;stroke-opacity:1"
         d="m 1959.49,2318.71 c 7.5,122.7 35.28,241.37 45.47,363.63" /><path
         id="path32"
         style="fill:none;stroke:#000000;stroke-width:7.49999;stroke-linecap:butt;stroke-linejoin:miter;stroke-miterlimit:4;stroke-dasharray:none;stroke-opacity:1"
         d="m 2027.7,3129.34 c -15.75,196.95 -15.16,126.05 -15.16,212.14" /><path
         id="path34"
         style="fill:none;stroke:#000000;stroke-width:7.49999;stroke-linecap:butt;stroke-linejoin:miter;stroke-miterlimit:4;stroke-dasharray:none;stroke-opacity:1"
         d="m 1414.02,3856.64 c -118.98,-6.72 -237.26,7.58 -356.09,7.58" /><path
         id="path36"
         style="fill:none;stroke:#000000;stroke-width:7.49999;stroke-linecap:butt;stroke-linejoin:miter;stroke-miterlimit:4;stroke-dasharray:none;stroke-opacity:1"
         d="m 754.879,3515.74 c -128.75,-132.69 -98,-277.07 -121.207,-439.45 -36.481,-255.43 -83.942,-492.31 -7.582,-750.04 139.07,-469.34 652.46,-591.95 916.72,-151.52 240.51,400.86 -12.89,1154.25 -416.68,1356.13 -94.14,47.07 -223.2,55.47 -325.778,45.47 -195.231,-19.06 -149.961,-7.31 -280.313,-83.32" /><path
         id="path38"
         style="fill:none;stroke:#000000;stroke-width:7.49999;stroke-linecap:butt;stroke-linejoin:miter;stroke-miterlimit:4;stroke-dasharray:none;stroke-opacity:1"
         d="m 1254.92,2477.77 c -387.729,18.32 -532.811,-22.3 -696.99,-371.21 -88.629,-188.32 -184.02,-534.1 -136.371,-742.46 56.371,-246.64 211.8,-588.549 484.851,-651.561 103.59,-23.91 212.54,-31.09 295.47,45.473 284.37,262.498 389.49,681.048 454.57,1045.508 18.67,104.49 51.52,218.55 22.73,325.78 -16.99,63.4 -41.33,125.9 -75.74,181.83 -35.55,57.7 -138.67,168.32 -219.73,181.8 -108.67,18.12 -226.68,-54.88 -325.78,-90.9" /><path
         id="path40"
         style="fill:none;stroke:#000000;stroke-width:7.49999;stroke-linecap:butt;stroke-linejoin:miter;stroke-miterlimit:4;stroke-dasharray:none;stroke-opacity:1"
         d="m 1520.08,894.371 c -71.99,-39.84 -48.32,-379.019 90.94,-295.461 53.55,32.141 88.28,206.602 98.47,257.57 2.89,14.461 16.14,51.059 22.74,37.891 29.06,-58.121 -1.88,-187.531 37.89,-227.262" /><path
         id="path42"
         style="fill:none;stroke:#000000;stroke-width:7.49999;stroke-linecap:butt;stroke-linejoin:miter;stroke-miterlimit:4;stroke-dasharray:none;stroke-opacity:1"
         d="m 1421.6,3568.75 c 62.74,2.58 97.07,-280.31 121.21,-280.31 72.66,0 107.66,194.57 113.64,242.42 4.18,33.2 -7.58,65.35 -7.58,98.51" /><path
         id="path44"
         style="fill:none;stroke:#000000;stroke-width:7.49999;stroke-linecap:butt;stroke-linejoin:miter;stroke-miterlimit:4;stroke-dasharray:none;stroke-opacity:1"
         d="m 1754.96,3000.55 c 37.85,35.35 71.99,75.23 113.63,106.05 84.5,62.58 190.67,88.79 287.89,128.79 212.66,87.58 442.74,157.73 674.3,174.26 176.21,12.58 341.29,-32.07 515.16,-45.43 196.13,-15.12 394.26,-7.58 590.94,-7.58" /><path
         id="path46"
         style="fill:none;stroke:#000000;stroke-width:7.49999;stroke-linecap:butt;stroke-linejoin:miter;stroke-miterlimit:4;stroke-dasharray:none;stroke-opacity:1"
         d="m 3558.09,3591.48 c 26.13,-52.26 175.27,-210.82 219.68,-227.26 48.83,-18.09 101.02,-25.27 151.53,-37.89 -62.7,-156.92 -234.18,-226.29 -325.78,-363.67" /><path
         id="path48"
         style="fill:none;stroke:#000000;stroke-width:7.49999;stroke-linecap:butt;stroke-linejoin:miter;stroke-miterlimit:4;stroke-dasharray:none;stroke-opacity:1"
         d="m 2664.1,3894.53 c 26.8,-99.57 29.22,-226.76 136.37,-280.31 13.71,-6.88 31.44,1.21 45.43,7.58 127.3,57.85 228.51,156.72 242.46,303.04 2.89,30.28 -7.58,60.51 -7.58,90.9" /><path
         id="path50"
         style="fill:none;stroke:#000000;stroke-width:7.49999;stroke-linecap:butt;stroke-linejoin:miter;stroke-miterlimit:4;stroke-dasharray:none;stroke-opacity:1"
         d="m 2830.78,3940 c 129.65,-100.55 102.81,-307.38 212.11,-416.72" /><path
         id="path52"
         style="fill:none;stroke:#000000;stroke-width:7.49999;stroke-linecap:butt;stroke-linejoin:miter;stroke-miterlimit:4;stroke-dasharray:none;stroke-opacity:1"
         d="m 1845.86,1379.26 c 35.35,-35.35 65.39,-76.99 106.05,-106.06 54.18,-38.71 260.24,-90.66 295.47,-98.51 323.44,-71.88 656.96,-47.35 977.35,30.31 137.5,33.32 270.27,76.29 401.52,128.79 20.98,8.4 60.63,7.73 60.63,30.31 0,43.13 -146.41,220.35 -159.11,234.85 -24.18,27.61 -156.56,58.08 -143.94,45.46" /><path
         id="path54"
         style="fill:none;stroke:#000000;stroke-width:7.49999;stroke-linecap:butt;stroke-linejoin:miter;stroke-miterlimit:4;stroke-dasharray:none;stroke-opacity:1"
         d="M 3709.61,1288.32 C 3686.84,1137.5 3488.52,1094.8 3444.41,962.582" /><path
         id="path56"
         style="fill:none;stroke:#000000;stroke-width:7.49999;stroke-linecap:butt;stroke-linejoin:miter;stroke-miterlimit:4;stroke-dasharray:none;stroke-opacity:1"
         d="m 2785.31,1848.98 c -67.58,-40.54 -152.89,-69.68 -174.26,-159.1 -20.03,-83.83 -38.94,-172.93 -22.73,-257.61 8.4,-43.87 47.58,-87.62 90.94,-98.48 153.32,-38.32 319.53,314.18 340.9,431.83 2.61,14.38 10.39,83.36 -30.32,83.36 -16.17,0 -26.95,-18.39 -37.85,-30.31 -101.64,-110.9 -151.05,-288.12 -181.83,-431.83 -4.69,-21.92 -4.46,-98.64 -30.32,-128.79 -6.25,-7.31 -42.38,-30.78 -53.04,-37.89" /><path
         id="path58"
         style="fill:none;stroke:#000000;stroke-width:7.49999;stroke-linecap:butt;stroke-linejoin:miter;stroke-miterlimit:4;stroke-dasharray:none;stroke-opacity:1"
         d="m 4671.76,3894.53 c 2.54,-45.47 4.84,-90.94 7.58,-136.37 7.5,-123.75 3.98,-241.83 30.31,-363.67 31.56,-145.9 86.05,-282.77 98.48,-431.83" /><path
         id="path60"
         style="fill:none;stroke:#000000;stroke-width:7.49999;stroke-linecap:butt;stroke-linejoin:miter;stroke-miterlimit:4;stroke-dasharray:none;stroke-opacity:1"
         d="m 4095.98,3341.48 c 315.7,64.65 615.15,184.42 924.29,272.74 109.65,31.33 254.69,50.15 340.94,136.37" /><path
         id="path62"
         style="fill:none;stroke:#000000;stroke-width:7.49999;stroke-linecap:butt;stroke-linejoin:miter;stroke-miterlimit:4;stroke-dasharray:none;stroke-opacity:1"
         d="M 4512.66,1439.84 C 4450.12,1120.59 4374.65,805.43 4315.7,485.27 4310.86,459.102 4273.48,165.98 4239.92,98.8711" /><path
         id="path64"
         style="fill:none;stroke:#000000;stroke-width:7.49999;stroke-linecap:butt;stroke-linejoin:miter;stroke-miterlimit:4;stroke-dasharray:none;stroke-opacity:1"
         d="m 3959.61,780.738 c 127.73,-62.187 265.43,-31.367 401.52,-45.468 200.08,-20.7 413.87,-80.969 606.1,15.16" /><path
         id="path66"
         style="fill:none;stroke:#000000;stroke-width:7.49999;stroke-linecap:butt;stroke-linejoin:miter;stroke-miterlimit:4;stroke-dasharray:none;stroke-opacity:1"
         d="M 4800.55,371.641 C 4776.56,269.648 4747.54,166.602 4747.54,61.0195" /><path
         id="path68"
         style="fill:none;stroke:#000000;stroke-width:7.49999;stroke-linecap:butt;stroke-linejoin:miter;stroke-miterlimit:4;stroke-dasharray:none;stroke-opacity:1"
         d="M 4914.22,394.34 C 4940.2,261.25 4894.34,135.98 4868.75,7.96875" /><path
         id="path70"
         style="fill:none;stroke:#000000;stroke-width:7.49999;stroke-linecap:butt;stroke-linejoin:miter;stroke-miterlimit:4;stroke-dasharray:none;stroke-opacity:1"
         d="m 4800.55,417.07 c 98.83,-17.23 191.75,-8.121 287.89,-30.308 28.08,-6.453 91.79,-36.492 68.2,-53.012 -7.07,-4.961 -283.91,-94.918 -265.16,-113.629 61.1,-61.141 153.79,-69.34 227.27,-106.101 29.41,-14.6802 101.29,-80.1489 106.05,-83.3208" /><path
         id="path72"
         style="fill:none;stroke:#000000;stroke-width:7.49999;stroke-linecap:butt;stroke-linejoin:miter;stroke-miterlimit:4;stroke-dasharray:none;stroke-opacity:1"
         d="m 5361.21,167.07 c -15.16,-50.511 -30.31,-101.0192 -45.47,-151.5192 0,-2.5391 -1.79,-9.37892 0,-7.58205 24.3,24.30075 38.95,56.67965 60.59,83.32035 46.52,57.2309 37.58,47.2619 90.94,90.9409 42.77,35 59.49,73.122 83.32,7.571 15.89,-43.711 3.43,-181.83225 53.04,-181.83225" /><path
         id="path74"
         style="fill:none;stroke:#000000;stroke-width:7.49999;stroke-linecap:butt;stroke-linejoin:miter;stroke-miterlimit:4;stroke-dasharray:none;stroke-opacity:1"
         d="m 4936.91,1386.84 c -130.5,-50.55 -251.52,-124.65 -310.62,-257.62 -47.85,-107.66 39.02,-303.009 166.68,-303.009 111.13,0 245.7,89.809 310.62,174.219 49.26,64.02 106.1,134.22 106.1,219.73 0,137.73 -197.62,294.84 -318.21,174.25 -26.09,-26.09 -23.35,-53.67 -45.46,-75.78" /><path
         id="path76"
         style="fill:none;stroke:#000000;stroke-width:7.49999;stroke-linecap:butt;stroke-linejoin:miter;stroke-miterlimit:4;stroke-dasharray:none;stroke-opacity:1"
         d="M 5149.06,970.16 C 5046.84,903.98 5020.9,930.859 5012.7,848.91 c -13.17,-131.68 178.04,-106.019 212.1,30.309 11.65,46.48 40.08,244.611 -53,151.521 -56.64,-56.599 -83.36,-285.97 -83.36,-371.209" /><path
         id="path78"
         style="fill:none;stroke:#000000;stroke-width:7.49999;stroke-linecap:butt;stroke-linejoin:miter;stroke-miterlimit:4;stroke-dasharray:none;stroke-opacity:1"
         d="m 5323.32,1008.01 c -67.66,-74.651 -187.81,-356.061 0,-356.061" /><path
         id="path80"
         style="fill:none;stroke:#000000;stroke-width:7.49999;stroke-linecap:butt;stroke-linejoin:miter;stroke-miterlimit:4;stroke-dasharray:none;stroke-opacity:1"
         d="m 5383.91,917.109 c 9.06,-25.55 -64.85,-89.058 -53.01,-136.371 9.26,-37.148 102.54,92.852 106.05,98.481 6.68,10.703 22.74,42.929 22.74,30.312 0,-38.16 -39.3,-183.242 -30.31,-174.261" /><path
         id="path82"
         style="fill:none;stroke:#000000;stroke-width:7.49999;stroke-linecap:butt;stroke-linejoin:miter;stroke-miterlimit:4;stroke-dasharray:none;stroke-opacity:1"
         d="m 5512.73,992.852 c 151.33,-301.52 59.11,-334.801 -151.52,-545.473" /><path
         id="path84"
         style="fill:none;stroke:#000000;stroke-width:7.49999;stroke-linecap:butt;stroke-linejoin:miter;stroke-miterlimit:4;stroke-dasharray:none;stroke-opacity:1"
         d="m 4868.75,3894.53 c 6.48,-69.96 -113.91,-120.23 -121.21,-196.99 -25.24,-264.92 240,-153.2 340.9,-37.85 135.7,155.04 70.97,378.71 -159.1,318.16 -42.78,-11.25 -86.1,-27.19 -128.79,-37.85" /><path
         id="path86"
         style="fill:none;stroke:#000000;stroke-width:7.49999;stroke-linecap:butt;stroke-linejoin:miter;stroke-miterlimit:4;stroke-dasharray:none;stroke-opacity:1"
         d="m 4936.91,3364.22 c 4.14,-145 -26.28,-226.17 136.41,-242.46 87.81,-8.79 165,120.94 196.95,189.41 8.13,17.42 22.74,33.79 22.74,53.05 0,11.29 -41.6,15.12 -30.31,15.12 18.75,0 11.6,3.59 22.73,-7.58" /><path
         id="path88"
         style="fill:none;stroke:#000000;stroke-width:7.49999;stroke-linecap:butt;stroke-linejoin:miter;stroke-miterlimit:4;stroke-dasharray:none;stroke-opacity:1"
         d="m 5035.43,3394.49 c -5.08,-42.93 -11.37,-85.7 -15.16,-128.79 -3.79,-42.81 -8.82,-85.78 -7.57,-128.79 2.1,-71.87 61.87,-225.04 22.73,-295.46 -5.08,-9.11 -20.2,-5.04 -30.31,-7.58" /><path
         id="path90"
         style="fill:none;stroke:#000000;stroke-width:7.49999;stroke-linecap:butt;stroke-linejoin:miter;stroke-miterlimit:4;stroke-dasharray:none;stroke-opacity:1"
         d="m 5391.48,3356.64 c -89.33,-133.28 -137.34,-258.48 -143.94,-416.72 -3.63,-87.85 22.89,-98.47 106.09,-98.47" /><path
         id="path92"
         style="fill:none;stroke:#000000;stroke-width:7.49999;stroke-linecap:butt;stroke-linejoin:miter;stroke-miterlimit:4;stroke-dasharray:none;stroke-opacity:1"
         d="m 5346.05,3159.65 c -2.46,-241.84 47.23,-225.28 181.8,-75.78" /><path
         id="path94"
         style="fill:none;stroke:#000000;stroke-width:7.49999;stroke-linecap:butt;stroke-linejoin:miter;stroke-miterlimit:4;stroke-dasharray:none;stroke-opacity:1"
         d="m 5573.32,3167.23 c -8.79,-59.53 -68.24,-181.76 -15.16,-234.89" /><path
         id="path96"
         style="fill:none;stroke:#000000;stroke-width:7.49999;stroke-linecap:butt;stroke-linejoin:miter;stroke-miterlimit:4;stroke-dasharray:none;stroke-opacity:1"
         d="m 5452.11,3455.12 c 258.83,-205.51 161.17,-240.55 83.32,-500.04 -33.05,-110.16 -65.59,-217.85 -106.05,-325.78" /><path
         id="path98"
         style="fill:none;stroke:#000000;stroke-width:7.49999;stroke-linecap:butt;stroke-linejoin:miter;stroke-miterlimit:4;stroke-dasharray:none;stroke-opacity:1"
         d="m 3467.15,2197.46 c -53.01,5.08 -105.82,15.16 -159.1,15.16 -81.45,0 -161.17,-24.5 -242.42,-30.32 -137.27,-9.8 -272.54,11.02 -409.11,15.16 -177.07,5.39 -617.34,-53.44 -681.87,204.57 -14.65,58.59 -33.71,139.61 -15.16,204.57 78.24,273.75 721.96,425.9 984.92,439.42 97.89,5 185.43,1.01 280.32,-7.58 34.06,-3.13 66.6,-4.53 98.47,-15.16 4.81,-1.6 20.16,-0.7 15.16,0 -18.44,2.62 -468.71,120.2 -469.73,121.21" /><path
         id="path100"
         style="fill:none;stroke:#000000;stroke-width:7.49999;stroke-linecap:butt;stroke-linejoin:miter;stroke-miterlimit:4;stroke-dasharray:none;stroke-opacity:1"
         d="m 3300.47,2977.81 c -254.38,-86.87 -321.29,-170.43 -386.37,-409.1" /><path
         id="path102"
         style="fill:none;stroke:#000000;stroke-width:7.49999;stroke-linecap:butt;stroke-linejoin:miter;stroke-miterlimit:4;stroke-dasharray:none;stroke-opacity:1"
         d="m 4292.97,2508.09 c -18.24,-123.32 -42.97,-243.36 0,-363.64 12.58,-35.27 64.02,5.39 75.74,15.16 70.35,58.63 173.05,190.19 159.1,287.89 -0.9,6.29 -34.26,71.05 -37.89,68.16 -43.12,-34.49 -125.58,-488.04 -90.9,-522.73" /><path
         id="path104"
         style="fill:none;stroke:#000000;stroke-width:7.49999;stroke-linecap:butt;stroke-linejoin:miter;stroke-miterlimit:4;stroke-dasharray:none;stroke-opacity:1"
         d="m 4588.44,2462.66 c 55.54,0 111.09,0 166.68,0" /><path
         id="path106"
         style="fill:none;stroke:#000000;stroke-width:7.49999;stroke-linecap:butt;stroke-linejoin:miter;stroke-miterlimit:4;stroke-dasharray:none;stroke-opacity:1"
         d="m 4914.22,2629.3 c -38.09,-97.58 -43.71,-208.56 -90.94,-303.05" /><path
         id="path108"
         style="fill:none;stroke:#000000;stroke-width:7.49999;stroke-linecap:butt;stroke-linejoin:miter;stroke-miterlimit:4;stroke-dasharray:none;stroke-opacity:1"
         d="m 4027.77,2311.13 c 42.97,-2.54 89.61,-25.23 128.83,-7.58 17.58,7.9 65.08,184.61 -7.58,174.22 -68.12,-9.72 -141.56,-65.78 -189.41,-113.63" /><path
         id="path110"
         style="fill:none;stroke:#000000;stroke-width:7.49999;stroke-linecap:butt;stroke-linejoin:miter;stroke-miterlimit:4;stroke-dasharray:none;stroke-opacity:1"
         d="m 3436.84,2674.77 c -79.96,-250.47 -49.18,-496.8 265.19,-265.16 106.25,78.28 73.79,126.84 106.06,159.1" /><path
         id="path112"
         style="fill:none;stroke:#000000;stroke-width:7.49999;stroke-linecap:butt;stroke-linejoin:miter;stroke-miterlimit:4;stroke-dasharray:none;stroke-opacity:1"
         d="m 3633.83,2803.55 c -84.73,-242.18 -90.9,-498 -90.9,-750.03" /></g><ellipse
       ry="116.20865"
       rx="80.095383"
       transform="scale(1,-1)"
       cy="-264.01022"
       cx="100.77808"
       id="path937"
       style="fill:none;stroke:#808080;stroke-width:1.5012;stroke-miterlimit:4;stroke-dasharray:6.0048, 3.0024;stroke-dashoffset:0;stroke-opacity:0.435798" /><path
       id="path943"
       d="m 107.03351,336.66204 c -7.30807,-2.52972 -18.05004,-6.02994 -25.84252,-9.27681 -4.43445,-1.84768 -12.480271,-3.90265 -16.565725,-6.62628 -3.987203,-2.65814 -11.312773,-15.62519 -11.927315,-20.5415 -0.518333,-4.14668 6.113534,-8.10142 8.614177,-10.60205 13.51324,-13.51324 19.498083,-33.57556 43.070863,-29.15566 5.40127,1.01273 13.05946,4.30376 17.22834,7.95154 12.58309,11.01019 23.71688,43.36233 13.25259,58.31132 -0.96466,1.37807 -3.3106,0.95515 -4.63841,1.9879 -8.85718,6.8889 -11.99259,6.08497 -23.192,7.95154 z"
       style="fill:none;stroke:#000000;stroke-width:0.934253;stroke-linecap:butt;stroke-linejoin:miter;stroke-miterlimit:4;stroke-dasharray:none;stroke-opacity:1" /><path
       id="path981"
       d="m 111.05872,211.8752 c 16.4779,7.4151 25.0897,18.06604 27.64251,35.08471 2.07834,13.85567 -9.88444,17.94577 -19.13712,25.51615 -7.82554,6.40272 -6.46392,7.83978 -17.54236,11.16332 -31.251183,9.37535 -36.84506,-26.88861 -30.832009,-49.43755 1.304725,-4.89272 1.493417,-11.53274 4.252691,-15.94759 3.657298,-5.85167 15.591788,-6.91063 21.795048,-6.91063 4.97322,0 9.39409,-2.78877 13.82124,0.53159 z"
       style="fill:none;stroke:#000000;stroke-width:0.934253;stroke-linecap:butt;stroke-linejoin:miter;stroke-miterlimit:4;stroke-dasharray:none;stroke-opacity:1" /><path
       id="path983"
       d="m 154.17018,311.22092 97.87777,16.59303"
       style="fill:none;stroke:#000000;stroke-width:0.486554;stroke-linecap:butt;stroke-linejoin:miter;stroke-miterlimit:4;stroke-dasharray:none;stroke-opacity:1;marker-end:url(#marker1277)" /><path
       id="path985"
       d="m 152.01097,231.56971 95.20067,-22.37684"
       style="fill:none;stroke:#000000;stroke-width:0.508212;stroke-linecap:butt;stroke-linejoin:miter;stroke-miterlimit:4;stroke-dasharray:none;stroke-opacity:1;marker-end:url(#Arrow1Lend)" /><text
       transform="scale(1.0350919,-0.96609779)"
       id="text1353"
       y="-287.48123"
       x="128.36931"
       style="font-style:normal;font-weight:normal;font-size:14.1208px;font-family:sans-serif;fill:#000000;fill-opacity:1;stroke:none;stroke-width:0.353019"
       xml:space="preserve"><tspan
         style="stroke-width:0.353019"
         y="-287.48123"
         x="128.36931"
         id="tspan1351"
         sodipodi:role="line">$U$</tspan></text><text
       xml:space="preserve"
       style="font-style:normal;font-weight:normal;font-size:14.1208px;font-family:sans-serif;fill:#000000;fill-opacity:1;stroke:none;stroke-width:0.353019"
       x="119.32671"
       y="-216.08424"
       id="text1353-2"
       transform="scale(1.0350919,-0.9660978)"><tspan
         sodipodi:role="line"
         id="tspan1351-3"
         x="119.32671"
         y="-216.08424"
         style="stroke-width:0.353019">$V$</tspan></text><text
       transform="scale(0.89091043,-1.1224473)"
       id="text1375"
       y="-292.7655"
       x="227.56758"
       style="font-style:normal;font-weight:normal;font-size:6.10028px;font-family:sans-serif;fill:#000000;fill-opacity:1;stroke:none;stroke-width:0.152507"
       xml:space="preserve"><tspan
         style="stroke-width:0.152507"
         y="-292.7655"
         x="227.56758"
         id="tspan1373"
         sodipodi:role="line">$\phi_1$</tspan></text><text
       xml:space="preserve"
       style="font-style:normal;font-weight:normal;font-size:7.64882px;font-family:sans-serif;fill:#000000;fill-opacity:1;stroke:none;stroke-width:0.191221"
       x="232.90585"
       y="-194.0191"
       id="text1375-9"
       transform="scale(0.85147733,-1.1744294)"><tspan
         sodipodi:role="line"
         id="tspan1373-6"
         x="232.90585"
         y="-194.0191"
         style="stroke-width:0.191221">$\phi_2$</tspan></text><path
       id="path1401"
       d="M 308.2773,226.75962 V 131.60565"
       style="fill:none;stroke:#000000;stroke-width:0.531586px;stroke-linecap:butt;stroke-linejoin:miter;stroke-opacity:1" /><path
       id="path1403"
       d="m 258.30818,178.38526 h 99.93825"
       style="fill:none;stroke:#000000;stroke-width:0.531586px;stroke-linecap:butt;stroke-linejoin:miter;stroke-opacity:1" /><path
       style="fill:none;stroke:#000000;stroke-width:0.531586px;stroke-linecap:butt;stroke-linejoin:miter;stroke-opacity:1"
       d="M 319.44062,384.37501 V 289.22104"
       id="path1401-4" /><path
       style="fill:none;stroke:#000000;stroke-width:0.531586px;stroke-linecap:butt;stroke-linejoin:miter;stroke-opacity:1"
       d="m 269.47149,336.00064 h 99.93825"
       id="path1403-2" /><text
       transform="scale(1,-1)"
       id="text1425"
       y="-283.65292"
       x="346.4191"
       style="font-style:normal;font-weight:normal;font-size:10.0509px;font-family:sans-serif;fill:#000000;fill-opacity:1;stroke:none;stroke-width:0.251272"
       xml:space="preserve"><tspan
         style="stroke-width:0.251272"
         y="-283.65292"
         x="346.4191"
         id="tspan1423"
         sodipodi:role="line">$\mathbb{R}^n,\phi_1$</tspan></text><text
       transform="scale(1,-1)"
       xml:space="preserve"
       style="font-style:normal;font-weight:normal;font-size:10.0509px;font-family:sans-serif;fill:#000000;fill-opacity:1;stroke:none;stroke-width:0.251272"
       x="331.63452"
       y="-126.84634"
       id="text1425-1"><tspan
         sodipodi:role="line"
         id="tspan1423-9"
         x="331.63452"
         y="-126.84634"
         style="stroke-width:0.251272">$\mathbb{R}^n,\phi_2$</tspan></text><path
       style="fill:none;stroke:#000000;stroke-width:0.506496;stroke-linecap:butt;stroke-linejoin:miter;stroke-miterlimit:4;stroke-dasharray:none;stroke-opacity:1"
       d="m 299.08478,155.9535 c 8.93333,4.02003 13.60213,9.79433 14.98611,19.02084 1.12675,7.51173 -5.35875,9.72914 -10.37501,13.83335 -4.24254,3.47117 -3.50434,4.25026 -9.51042,6.05208 -16.94253,5.08276 -19.97519,-14.5774 -16.71528,-26.80209 0.70734,-2.65254 0.80964,-6.25237 2.30556,-8.64584 1.98276,-3.17243 8.45294,-3.74653 11.81598,-3.74653 2.69618,0 5.09292,-1.51191 7.49306,0.28819 z"
       id="path981-8" /><path
       style="fill:none;stroke:#000000;stroke-width:0.501855;stroke-linecap:butt;stroke-linejoin:miter;stroke-miterlimit:4;stroke-dasharray:none;stroke-opacity:1"
       d="m 344.05551,362.28906 c -3.9257,-1.3589 -9.69599,-3.23912 -13.88189,-4.98325 -2.38207,-0.99252 -6.70407,-2.0964 -8.89865,-3.55946 -2.14182,-1.42787 -6.07692,-8.39342 -6.40704,-11.03432 -0.27843,-2.22749 3.28403,-4.35186 4.62731,-5.69514 7.25894,-7.25894 10.47383,-18.03587 23.13648,-15.66162 2.90141,0.54402 7.01518,2.31187 9.2546,4.27135 6.75929,5.91438 12.74005,23.29306 7.11892,31.32325 -0.51819,0.74026 -1.77837,0.51307 -2.49163,1.06784 -4.75782,3.70053 -6.44209,3.26868 -12.4581,4.27135 z"
       id="path943-1" /><path
       id="path1485"
       d="m 73.961397,275.42453 c 0.978459,-0.55986 1.618794,0.3192 2.133863,0.84763 0.0662,0.0679 0.0455,0.4535 0.13218,0.54241 0.11567,0.11866 0.51336,0.0851 0.66086,0.13559 0.30153,0.10312 0.30789,0.56473 0.52871,0.67801 0.0788,0.0404 0.20204,-0.0639 0.26434,0 0.0611,0.0627 -0.0399,0.32493 0,0.4068 0.24187,0.49625 0.47463,0.7304 0.79305,1.22042 0.0164,0.0253 0.11865,0.52852 0.13218,0.5424 0.34594,0.35491 0.83369,0.71971 1.45392,1.35601 0.21252,0.21803 0.0832,0.51726 0.39652,0.67801 0.31847,0.16336 1.07028,0.0132 1.32175,0.2712 0.34447,0.3534 1.04574,0.85481 1.71827,1.08481 0.66889,0.22874 1.33071,-0.0632 1.98262,0.2712 0.70355,0.3609 1.87281,1.46345 2.51132,1.62722 0.63959,0.16404 1.91086,-0.17242 2.51132,0.1356 0.1226,0.0629 0.57676,0.0247 0.79304,0.1356 1.33657,0.68561 1.93115,0.6366 3.43654,-0.1356 0.74018,-0.37969 2.03549,0.37968 2.77567,0 0.36955,-0.18957 0.40761,-0.61589 0.79305,-0.81361 0.89342,-0.4583 3.93056,-0.10003 3.96524,-0.1356 0.30918,-0.31719 -0.19986,-0.38366 0.66087,-0.67801 0.3964,-0.13556 1.06484,0.12796 1.32175,-0.1356 0.10631,-0.10907 0.36218,-0.64277 0.39652,-0.678 0.24446,-0.2508 0.86167,-0.50982 1.18957,-0.67801 0.61662,-0.3163 1.18103,0.20779 1.5861,0 0.29279,-0.15019 0.23104,-0.50824 0.39652,-0.67801 0.11015,-0.11299 0.55073,0.113 0.66087,0 0.43967,-0.45107 0.58937,-0.42755 0.92522,-0.54241 0.20305,-0.0695 0.10242,-0.29604 0.26436,-0.4068 0.12326,-0.0843 0.69718,-0.0373 0.79304,-0.13559 0.46229,-0.47428 0.18678,-1.08481 1.18958,-1.08481 0.50047,0 0.45329,-0.30034 0.92522,-0.54241 0.49901,-0.25598 0.75135,-0.0928 0.92522,-0.27121 0.0623,-0.0639 0,-0.3616 0,-0.27119 0,0.0904 0,0.3616 0,0.27119 0,-0.13559 -0.0418,-0.27816 0,-0.4068 0.0527,-0.1623 0.78798,-0.7419 1.0574,-0.94921 0.26843,-0.20655 0.061,-0.9492 0.39652,-0.9492 0.23726,0 0.55477,-0.0534 0.66088,-0.27121 0.004,-0.006 0.10681,-0.62598 0.26434,-0.94921 0.0552,-0.11324 0.38834,-0.25441 0.39652,-0.2712 0.11992,-0.24605 0.16987,-0.50357 0.39653,-0.8136 0.49611,-0.67865 1.39325,-0.34458 1.58609,-0.54241 0.34754,-0.35655 0.22017,-0.36146 0.39653,-0.5424 0.0623,-0.0639 0.20205,0.0639 0.26435,0 0.044,-0.0452 -0.009,-0.51505 0,-0.54241 0.0502,-0.15461 0.20535,-0.2555 0.26435,-0.4068 0.39496,-1.01298 0.50124,-0.37863 0.79304,-0.67801 0.0801,-0.0822 0.54614,-0.94921 0.66088,-0.94921 0.81982,0 -0.10705,0.39392 0.66088,0 0.52612,-0.26988 1.32175,-0.96862 1.32175,-0.81361 0,0.13737 -1.17712,-0.12282 -1.18958,-0.1356 -0.26436,-0.27119 0,-1.0848 -0.26436,-1.35601 -0.0985,-0.10108 -0.298,-0.0345 -0.39652,-0.1356 -0.16963,-0.17403 -0.0947,-0.63958 -0.26434,-0.8136 -0.332,-0.34062 -0.2033,0.33383 -0.66088,-0.13561 -0.0623,-0.0639 0.0394,-0.19035 0,-0.27121 -0.15379,-0.31557 -0.5972,-0.74828 -0.79305,-0.9492 -0.16972,-0.17413 -1.35863,-0.0578 -1.58609,-0.1356 -0.6838,-0.23384 -0.40794,-0.41266 -0.66087,-0.5424 -0.52041,-0.26695 -1.28567,-0.0781 -1.85045,-0.27121 -0.61035,-0.20872 -0.84373,-0.5684 -1.32174,-0.8136 -0.35247,-0.18081 -0.96928,0.18079 -1.32175,0 -0.51929,-0.26639 -0.93311,-1.29227 -1.32175,-1.49163 -0.21828,-0.11197 -1.89792,-0.0487 -2.11479,-0.2712 -0.11014,-0.11299 -0.1542,-0.2938 -0.26435,-0.40681 -0.0662,-0.0679 -0.44204,-0.0467 -0.5287,-0.13559 -0.0214,-0.0221 -0.11615,-0.39859 -0.13217,-0.4068 -0.0983,-0.0505 -0.57038,-0.0427 -0.66088,-0.13561 -0.12103,-0.12417 -0.20684,-0.5424 -0.5287,-0.5424 -0.32564,0 -1.64624,0.0617 -1.71826,0.1356 -0.0661,0.0678 -0.0661,0.2034 -0.13218,0.2712 -0.0259,0.0267 -1.31915,-0.13027 -1.32175,-0.1356 -0.0313,-0.0641 -0.15676,-0.70323 -0.26435,-0.81361 -0.47375,-0.48603 -0.90298,0.28261 -1.18957,0.1356 -0.22283,-0.1143 -0.25176,-0.4068 -0.5287,-0.4068 -0.38234,0 -0.97272,0.11936 -1.32174,0 -0.35982,-0.12304 -0.7907,-0.40921 -0.79305,-0.40681 -0.0556,0.0571 0.0242,0.49275 0,0.54241 -0.22115,0.45376 -1.0346,0.81361 -0.79305,0.81361 0.50338,0 -0.66057,3.1e-4 -0.66087,0 C 97.42279,259.91305 96.59908,260 96.05363,260 c -0.2777,0 -0.38316,-0.1356 -0.66087,-0.1356 -0.0441,0 -0.17623,0 -0.13218,0 0.67829,0 -0.74286,-0.0623 -0.92522,0 -0.18692,0.0639 -0.33167,0.2712 -0.5287,0.2712 -0.0623,0 -0.0881,-0.18079 -0.13217,-0.1356 -0.12846,0.13178 -0.004,0.41062 -0.13218,0.54241 -0.0148,0.0152 -0.5287,0.28877 -0.5287,0.2712 0,-0.28728 -1.26917,0.46075 -1.5861,0.1356 -0.2808,-0.28809 -2.43936,0.33298 -2.51131,0.4068 -0.21889,0.22457 -1.00573,-0.1621 -1.32175,0 -0.29049,0.14902 0.0147,0.39167 -0.13217,0.54241 -0.13218,0.1356 -0.66087,-0.1356 -0.79305,0 -0.13218,0.1356 0.13218,0.67801 0,0.81361 -0.31672,0.32494 -1.30888,-0.0132 -1.58609,0.2712 -0.53037,0.54412 -0.31409,0.50887 -0.52871,0.94922 -0.13611,0.27928 -0.66077,0.4066 -0.79305,0.678 -0.0394,0.0809 0.0623,0.20728 0,0.27121 -0.0623,0.0639 -0.18553,-0.0404 -0.26434,0 -0.19704,0.10106 -0.55229,0.70221 -0.39652,0.5424 0.0697,-0.0714 0.23069,-0.27121 0.13217,-0.27121 -0.12461,0 -0.16066,0.20029 -0.26435,0.27121 -0.28948,0.198 -1.0992,0.0429 -1.45392,0.4068 -0.0623,0.0639 0.0623,0.20728 0,0.27121 -0.31746,0.32568 -0.75168,1.47746 -1.58609,1.76281 -0.20899,0.0715 -0.44486,-0.0443 -0.66088,0 -0.36756,0.0754 -0.24981,0.66309 -0.39653,0.81361 -0.0881,0.0904 -0.17622,-0.0904 -0.26434,0 -0.26315,0.26997 -0.39451,1.21834 -0.66088,1.49161 -0.0554,0.0568 -0.31641,0.0945 -0.39652,0.13561 -0.25497,0.13079 -0.0458,0.2295 -0.13217,0.4068 -0.0743,0.15251 -0.77657,0.87295 -0.92523,0.94921 -0.11564,0.0593 -0.44334,0.0772 -0.528698,0.1356 -0.231268,0.15818 -0.176239,0.49722 -0.264347,0.67801 -0.121663,0.24964 -0.274852,0.0215 -0.396521,0.2712 -0.02786,0.0571 0.132173,-0.19953 0.132173,-0.13561 0,0.68503 -0.101575,0.20843 -0.264347,0.54241 -0.05217,0.10708 0.03714,0.29245 0,0.4068 -0.270967,0.83396 -0.52985,1.2344 -1.208643,1.8644 z"
       style="fill:#000000;fill-opacity:0.190662;stroke:none;stroke-width:0.535508px;stroke-linecap:butt;stroke-linejoin:miter;stroke-opacity:1" /><path
       id="path1491"
       d="m 236.51313,257.59164 c -8.24522,6.93594 -36.70019,4.41851 -38.27422,17.01077 -0.516,4.12802 4.30675,7.39866 6.91062,9.56855 13.64822,11.37352 22.7882,9.12929 38.27423,12.22649"
       style="fill:none;stroke:#000000;stroke-width:0.532423;stroke-linecap:butt;stroke-linejoin:miter;stroke-miterlimit:4;stroke-dasharray:none;stroke-opacity:1;marker-end:url(#marker1495)" /><text
       transform="scale(1,-1)"
       id="text1529"
       y="-276.50653"
       x="218.84261"
       style="font-style:normal;font-weight:normal;font-size:6.79716px;font-family:sans-serif;fill:#000000;fill-opacity:1;stroke:none;stroke-width:0.169929"
       xml:space="preserve"><tspan
         style="stroke-width:0.169929"
         y="-276.50653"
         x="218.84261"
         id="tspan1527"
         sodipodi:role="line">$\tiny{\phi_1\circ\phi_2^{-1}}$</tspan></text></g></svg>
