<?xml version="1.0" encoding="UTF-8" standalone="no"?>
<svg
   xmlns:dc="http://purl.org/dc/elements/1.1/"
   xmlns:cc="http://creativecommons.org/ns#"
   xmlns:rdf="http://www.w3.org/1999/02/22-rdf-syntax-ns#"
   xmlns:svg="http://www.w3.org/2000/svg"
   xmlns="http://www.w3.org/2000/svg"
   xmlns:sodipodi="http://sodipodi.sourceforge.net/DTD/sodipodi-0.dtd"
   xmlns:inkscape="http://www.inkscape.org/namespaces/inkscape"
   sodipodi:docname="HMPNN_techs.svg"
   inkscape:version="1.0 (4035a4fb49, 2020-05-01)"
   id="svg8"
   version="1.1"
   viewBox="0 0 185.69761 47.770001"
   height="47.77mm"
   width="185.6976mm">
  <defs
     id="defs2">
    <inkscape:path-effect
       effect="bspline"
       id="path-effect14708"
       is_visible="true"
       lpeversion="1"
       weight="33.333333"
       steps="2"
       helper_size="0"
       apply_no_weight="true"
       apply_with_weight="true"
       only_selected="false" />
    <inkscape:path-effect
       effect="bspline"
       id="path-effect14345"
       is_visible="true"
       lpeversion="1"
       weight="33.333333"
       steps="2"
       helper_size="0"
       apply_no_weight="true"
       apply_with_weight="true"
       only_selected="false" />
    <inkscape:path-effect
       only_selected="false"
       apply_with_weight="true"
       apply_no_weight="true"
       helper_size="0"
       steps="2"
       weight="33.333333"
       lpeversion="1"
       is_visible="true"
       id="path-effect14030"
       effect="bspline" />
    <inkscape:path-effect
       only_selected="false"
       apply_with_weight="true"
       apply_no_weight="true"
       helper_size="0"
       steps="2"
       weight="33.333333"
       lpeversion="1"
       is_visible="true"
       id="path-effect13749"
       effect="bspline" />
    <inkscape:path-effect
       effect="bspline"
       id="path-effect13462"
       is_visible="true"
       lpeversion="1"
       weight="33.333333"
       steps="2"
       helper_size="0"
       apply_no_weight="true"
       apply_with_weight="true"
       only_selected="false" />
    <inkscape:path-effect
       only_selected="false"
       apply_with_weight="true"
       apply_no_weight="true"
       helper_size="0"
       steps="2"
       weight="33.333333"
       lpeversion="1"
       is_visible="true"
       id="path-effect13297"
       effect="bspline" />
    <inkscape:path-effect
       effect="spiro"
       id="path-effect359"
       is_visible="true"
       lpeversion="1" />
    <inkscape:path-effect
       effect="spiro"
       id="path-effect357"
       is_visible="true"
       lpeversion="1" />
    <inkscape:path-effect
       effect="spiro"
       id="path-effect355"
       is_visible="true"
       lpeversion="1" />
    <inkscape:path-effect
       effect="spiro"
       id="path-effect308"
       is_visible="true"
       lpeversion="1" />
    <inkscape:path-effect
       lpeversion="1"
       is_visible="true"
       id="path-effect1942"
       effect="spiro" />
    <inkscape:path-effect
       lpeversion="1"
       is_visible="true"
       id="path-effect1938"
       effect="spiro" />
    <inkscape:path-effect
       effect="spiro"
       id="path-effect1934"
       is_visible="true"
       lpeversion="1" />
    <inkscape:path-effect
       lpeversion="1"
       is_visible="true"
       id="path-effect1896"
       effect="spiro" />
    <marker
       inkscape:isstock="true"
       style="overflow:visible"
       id="Arrow1Mend"
       refX="0"
       refY="0"
       orient="auto"
       inkscape:stockid="Arrow1Mend">
      <path
         transform="matrix(-0.4,0,0,-0.4,-4,0)"
         style="fill:#000000;fill-opacity:1;fill-rule:evenodd;stroke:#000000;stroke-width:1pt;stroke-opacity:1"
         d="M 0,0 5,-5 -12.5,0 5,5 Z"
         id="path943" />
    </marker>
    <marker
       inkscape:isstock="true"
       style="overflow:visible"
       id="Arrow2Mstart"
       refX="0"
       refY="0"
       orient="auto"
       inkscape:stockid="Arrow2Mstart">
      <path
         transform="scale(0.6)"
         d="M 8.7185878,4.0337352 -2.2072895,0.01601326 8.7185884,-4.0017078 c -1.7454984,2.3720609 -1.7354408,5.6174519 -6e-7,8.035443 z"
         style="fill:#000000;fill-opacity:1;fill-rule:evenodd;stroke:#000000;stroke-width:0.625;stroke-linejoin:round;stroke-opacity:1"
         id="path958" />
    </marker>
    <marker
       inkscape:isstock="true"
       style="overflow:visible"
       id="marker1462"
       refX="0"
       refY="0"
       orient="auto"
       inkscape:stockid="Arrow1Lend">
      <path
         transform="matrix(-0.8,0,0,-0.8,-10,0)"
         style="fill:#000000;fill-opacity:1;fill-rule:evenodd;stroke:#000000;stroke-width:1pt;stroke-opacity:1"
         d="M 0,0 5,-5 -12.5,0 5,5 Z"
         id="path1460" />
    </marker>
    <inkscape:path-effect
       lpeversion="1"
       is_visible="true"
       id="path-effect1458"
       effect="spiro" />
    <marker
       inkscape:isstock="true"
       style="overflow:visible"
       id="Arrow1Lend"
       refX="0"
       refY="0"
       orient="auto"
       inkscape:stockid="Arrow1Lend">
      <path
         transform="matrix(-0.8,0,0,-0.8,-10,0)"
         style="fill:#000000;fill-opacity:1;fill-rule:evenodd;stroke:#000000;stroke-width:1pt;stroke-opacity:1"
         d="M 0,0 5,-5 -12.5,0 5,5 Z"
         id="path937" />
    </marker>
    <marker
       inkscape:isstock="true"
       style="overflow:visible"
       id="Arrow1Lstart"
       refX="0"
       refY="0"
       orient="auto"
       inkscape:stockid="Arrow1Lstart">
      <path
         transform="matrix(0.8,0,0,0.8,10,0)"
         style="fill:#000000;fill-opacity:1;fill-rule:evenodd;stroke:#000000;stroke-width:1pt;stroke-opacity:1"
         d="M 0,0 5,-5 -12.5,0 5,5 Z"
         id="path934" />
    </marker>
    <inkscape:path-effect
       only_selected="false"
       apply_with_weight="true"
       apply_no_weight="true"
       helper_size="0"
       steps="2"
       weight="33.333333"
       lpeversion="1"
       is_visible="true"
       id="path-effect850"
       effect="bspline" />
    <inkscape:path-effect
       end_linecap_type="round"
       scale_width="1"
       miter_limit="4"
       linejoin_type="spiro"
       start_linecap_type="round"
       interpolator_beta="0.75"
       interpolator_type="CentripetalCatmullRom"
       sort_points="true"
       offset_points="2.167537,2.7462332"
       lpeversion="1"
       is_visible="true"
       id="path-effect844"
       effect="powerstroke" />
    <inkscape:path-effect
       step="1"
       simplify_just_coalesce="false"
       simplify_individual_paths="false"
       helper_size="0"
       smooth_angles="0"
       threshold="0.0042328942"
       steps="1"
       lpeversion="1"
       is_visible="true"
       id="path-effect842"
       effect="simplify" />
    <inkscape:path-effect
       only_selected="false"
       apply_with_weight="true"
       apply_no_weight="true"
       helper_size="0"
       steps="2"
       weight="33.333333"
       lpeversion="1"
       is_visible="true"
       id="path-effect839"
       effect="bspline" />
    <inkscape:path-effect
       only_selected="false"
       apply_with_weight="true"
       apply_no_weight="true"
       helper_size="0"
       steps="2"
       weight="33.333333"
       lpeversion="1"
       is_visible="true"
       id="path-effect835"
       effect="bspline" />
    <marker
       inkscape:stockid="Arrow1Lend"
       orient="auto"
       refY="0"
       refX="0"
       id="Arrow1Lend-2"
       style="overflow:visible"
       inkscape:isstock="true">
      <path
         id="path937-4"
         d="M 0,0 5,-5 -12.5,0 5,5 Z"
         style="fill:#000000;fill-opacity:1;fill-rule:evenodd;stroke:#000000;stroke-width:1pt;stroke-opacity:1"
         transform="matrix(-0.8,0,0,-0.8,-10,0)" />
    </marker>
    <marker
       inkscape:stockid="Arrow1Lend"
       orient="auto"
       refY="0"
       refX="0"
       id="Arrow1Lend-1"
       style="overflow:visible"
       inkscape:isstock="true">
      <path
         id="path937-5"
         d="M 0,0 5,-5 -12.5,0 5,5 Z"
         style="fill:#000000;fill-opacity:1;fill-rule:evenodd;stroke:#000000;stroke-width:1pt;stroke-opacity:1"
         transform="matrix(-0.8,0,0,-0.8,-10,0)" />
    </marker>
    <marker
       inkscape:isstock="true"
       style="overflow:visible"
       id="Arrow1Lend-1-2"
       refX="0"
       refY="0"
       orient="auto"
       inkscape:stockid="Arrow1Lend">
      <path
         transform="matrix(-0.8,0,0,-0.8,-10,0)"
         style="fill:#000000;fill-opacity:1;fill-rule:evenodd;stroke:#000000;stroke-width:1pt;stroke-opacity:1"
         d="M 0,0 5,-5 -12.5,0 5,5 Z"
         id="path937-5-0" />
    </marker>
    <marker
       inkscape:stockid="Arrow1Lend"
       orient="auto"
       refY="0"
       refX="0"
       id="Arrow1Lend-1-2-5"
       style="overflow:visible"
       inkscape:isstock="true">
      <path
         id="path937-5-0-1"
         d="M 0,0 5,-5 -12.5,0 5,5 Z"
         style="fill:#000000;fill-opacity:1;fill-rule:evenodd;stroke:#000000;stroke-width:1pt;stroke-opacity:1"
         transform="matrix(-0.8,0,0,-0.8,-10,0)" />
    </marker>
    <marker
       inkscape:stockid="Arrow1Lend"
       orient="auto"
       refY="0"
       refX="0"
       id="Arrow1Lend-1-2-6"
       style="overflow:visible"
       inkscape:isstock="true">
      <path
         id="path937-5-0-2"
         d="M 0,0 5,-5 -12.5,0 5,5 Z"
         style="fill:#000000;fill-opacity:1;fill-rule:evenodd;stroke:#000000;stroke-width:1pt;stroke-opacity:1"
         transform="matrix(-0.8,0,0,-0.8,-10,0)" />
    </marker>
    <marker
       inkscape:stockid="Arrow1Lend"
       orient="auto"
       refY="0"
       refX="0"
       id="Arrow1Lend-1-2-7"
       style="overflow:visible"
       inkscape:isstock="true">
      <path
         id="path937-5-0-6"
         d="M 0,0 5,-5 -12.5,0 5,5 Z"
         style="fill:#000000;fill-opacity:1;fill-rule:evenodd;stroke:#000000;stroke-width:1pt;stroke-opacity:1"
         transform="matrix(-0.8,0,0,-0.8,-10,0)" />
    </marker>
    <marker
       inkscape:isstock="true"
       style="overflow:visible"
       id="Arrow1Lend-1-2-7-2"
       refX="0"
       refY="0"
       orient="auto"
       inkscape:stockid="Arrow1Lend">
      <path
         transform="matrix(-0.8,0,0,-0.8,-10,0)"
         style="fill:#000000;fill-opacity:1;fill-rule:evenodd;stroke:#000000;stroke-width:1pt;stroke-opacity:1"
         d="M 0,0 5,-5 -12.5,0 5,5 Z"
         id="path937-5-0-6-3" />
    </marker>
    <marker
       inkscape:stockid="Arrow1Lend"
       orient="auto"
       refY="0"
       refX="0"
       id="Arrow1Lend-9"
       style="overflow:visible"
       inkscape:isstock="true">
      <path
         id="path937-56"
         d="M 0,0 5,-5 -12.5,0 5,5 Z"
         style="fill:#000000;fill-opacity:1;fill-rule:evenodd;stroke:#000000;stroke-width:1pt;stroke-opacity:1"
         transform="matrix(-0.8,0,0,-0.8,-10,0)" />
    </marker>
    <marker
       inkscape:stockid="Arrow2Mstart"
       orient="auto"
       refY="0"
       refX="0"
       id="Arrow2Mstart-3"
       style="overflow:visible"
       inkscape:isstock="true">
      <path
         id="path958-7"
         style="fill:#000000;fill-opacity:1;fill-rule:evenodd;stroke:#000000;stroke-width:0.625;stroke-linejoin:round;stroke-opacity:1"
         d="M 8.7185878,4.0337352 -2.2072895,0.01601326 8.7185884,-4.0017078 c -1.7454984,2.3720609 -1.7354408,5.6174519 -6e-7,8.035443 z"
         transform="scale(0.6)" />
    </marker>
    <marker
       inkscape:stockid="Arrow1Mend"
       orient="auto"
       refY="0"
       refX="0"
       id="Arrow1Mend-6"
       style="overflow:visible"
       inkscape:isstock="true">
      <path
         id="path943-5"
         d="M 0,0 5,-5 -12.5,0 5,5 Z"
         style="fill:#000000;fill-opacity:1;fill-rule:evenodd;stroke:#000000;stroke-width:1pt;stroke-opacity:1"
         transform="matrix(-0.4,0,0,-0.4,-4,0)" />
    </marker>
    <marker
       inkscape:isstock="true"
       style="overflow:visible"
       id="Arrow1Lend-9-0"
       refX="0"
       refY="0"
       orient="auto"
       inkscape:stockid="Arrow1Lend">
      <path
         transform="matrix(-0.8,0,0,-0.8,-10,0)"
         style="fill:#000000;fill-opacity:1;fill-rule:evenodd;stroke:#000000;stroke-width:1pt;stroke-opacity:1"
         d="M 0,0 5,-5 -12.5,0 5,5 Z"
         id="path937-56-5" />
    </marker>
    <marker
       inkscape:isstock="true"
       style="overflow:visible"
       id="Arrow1Lend-1-2-7-9"
       refX="0"
       refY="0"
       orient="auto"
       inkscape:stockid="Arrow1Lend">
      <path
         transform="matrix(-0.8,0,0,-0.8,-10,0)"
         style="fill:#000000;fill-opacity:1;fill-rule:evenodd;stroke:#000000;stroke-width:1pt;stroke-opacity:1"
         d="M 0,0 5,-5 -12.5,0 5,5 Z"
         id="path937-5-0-6-7" />
    </marker>
    <marker
       inkscape:stockid="Arrow1Lend"
       orient="auto"
       refY="0"
       refX="0"
       id="Arrow1Lend-1-2-7-2-2"
       style="overflow:visible"
       inkscape:isstock="true">
      <path
         id="path937-5-0-6-3-1"
         d="M 0,0 5,-5 -12.5,0 5,5 Z"
         style="fill:#000000;fill-opacity:1;fill-rule:evenodd;stroke:#000000;stroke-width:1pt;stroke-opacity:1"
         transform="matrix(-0.8,0,0,-0.8,-10,0)" />
    </marker>
    <marker
       inkscape:stockid="Arrow2Mstart"
       orient="auto"
       refY="0"
       refX="0"
       id="Arrow2Mstart-36"
       style="overflow:visible"
       inkscape:isstock="true">
      <path
         id="path958-5"
         style="fill:#000000;fill-opacity:1;fill-rule:evenodd;stroke:#000000;stroke-width:0.625;stroke-linejoin:round;stroke-opacity:1"
         d="M 8.7185878,4.0337352 -2.2072895,0.01601326 8.7185884,-4.0017078 c -1.7454984,2.3720609 -1.7354408,5.6174519 -6e-7,8.035443 z"
         transform="scale(0.6)" />
    </marker>
    <marker
       inkscape:stockid="Arrow1Mend"
       orient="auto"
       refY="0"
       refX="0"
       id="Arrow1Mend-3"
       style="overflow:visible"
       inkscape:isstock="true">
      <path
         id="path943-2"
         d="M 0,0 5,-5 -12.5,0 5,5 Z"
         style="fill:#000000;fill-opacity:1;fill-rule:evenodd;stroke:#000000;stroke-width:1pt;stroke-opacity:1"
         transform="matrix(-0.4,0,0,-0.4,-4,0)" />
    </marker>
    <marker
       inkscape:isstock="true"
       style="overflow:visible"
       id="Arrow2Mstart-36-4"
       refX="0"
       refY="0"
       orient="auto"
       inkscape:stockid="Arrow2Mstart">
      <path
         transform="scale(0.6)"
         d="M 8.7185878,4.0337352 -2.2072895,0.01601326 8.7185884,-4.0017078 c -1.7454984,2.3720609 -1.7354408,5.6174519 -6e-7,8.035443 z"
         style="fill:#000000;fill-opacity:1;fill-rule:evenodd;stroke:#000000;stroke-width:0.625;stroke-linejoin:round;stroke-opacity:1"
         id="path958-5-2" />
    </marker>
    <marker
       inkscape:isstock="true"
       style="overflow:visible"
       id="Arrow1Mend-3-6"
       refX="0"
       refY="0"
       orient="auto"
       inkscape:stockid="Arrow1Mend">
      <path
         transform="matrix(-0.4,0,0,-0.4,-4,0)"
         style="fill:#000000;fill-opacity:1;fill-rule:evenodd;stroke:#000000;stroke-width:1pt;stroke-opacity:1"
         d="M 0,0 5,-5 -12.5,0 5,5 Z"
         id="path943-2-0" />
    </marker>
    <marker
       inkscape:isstock="true"
       style="overflow:visible"
       id="Arrow2Mstart-36-2"
       refX="0"
       refY="0"
       orient="auto"
       inkscape:stockid="Arrow2Mstart">
      <path
         transform="scale(0.6)"
         d="M 8.7185878,4.0337352 -2.2072895,0.01601326 8.7185884,-4.0017078 c -1.7454984,2.3720609 -1.7354408,5.6174519 -6e-7,8.035443 z"
         style="fill:#000000;fill-opacity:1;fill-rule:evenodd;stroke:#000000;stroke-width:0.625;stroke-linejoin:round;stroke-opacity:1"
         id="path958-5-3" />
    </marker>
    <marker
       inkscape:isstock="true"
       style="overflow:visible"
       id="Arrow1Mend-3-5"
       refX="0"
       refY="0"
       orient="auto"
       inkscape:stockid="Arrow1Mend">
      <path
         transform="matrix(-0.4,0,0,-0.4,-4,0)"
         style="fill:#000000;fill-opacity:1;fill-rule:evenodd;stroke:#000000;stroke-width:1pt;stroke-opacity:1"
         d="M 0,0 5,-5 -12.5,0 5,5 Z"
         id="path943-2-7" />
    </marker>
    <marker
       inkscape:stockid="Arrow2Mstart"
       orient="auto"
       refY="0"
       refX="0"
       id="Arrow2Mstart-36-2-0"
       style="overflow:visible"
       inkscape:isstock="true">
      <path
         id="path958-5-3-0"
         style="fill:#000000;fill-opacity:1;fill-rule:evenodd;stroke:#000000;stroke-width:0.625;stroke-linejoin:round;stroke-opacity:1"
         d="M 8.7185878,4.0337352 -2.2072895,0.01601326 8.7185884,-4.0017078 c -1.7454984,2.3720609 -1.7354408,5.6174519 -6e-7,8.035443 z"
         transform="scale(0.6)" />
    </marker>
    <marker
       inkscape:stockid="Arrow1Mend"
       orient="auto"
       refY="0"
       refX="0"
       id="Arrow1Mend-3-5-5"
       style="overflow:visible"
       inkscape:isstock="true">
      <path
         id="path943-2-7-0"
         d="M 0,0 5,-5 -12.5,0 5,5 Z"
         style="fill:#000000;fill-opacity:1;fill-rule:evenodd;stroke:#000000;stroke-width:1pt;stroke-opacity:1"
         transform="matrix(-0.4,0,0,-0.4,-4,0)" />
    </marker>
    <marker
       inkscape:stockid="Arrow2Mstart"
       orient="auto"
       refY="0"
       refX="0"
       id="Arrow2Mstart-8"
       style="overflow:visible"
       inkscape:isstock="true">
      <path
         id="path958-8"
         style="fill:#000000;fill-opacity:1;fill-rule:evenodd;stroke:#000000;stroke-width:0.625;stroke-linejoin:round;stroke-opacity:1"
         d="M 8.7185878,4.0337352 -2.2072895,0.01601326 8.7185884,-4.0017078 c -1.7454984,2.3720609 -1.7354408,5.6174519 -6e-7,8.035443 z"
         transform="scale(0.6)" />
    </marker>
    <marker
       inkscape:stockid="Arrow1Mend"
       orient="auto"
       refY="0"
       refX="0"
       id="Arrow1Mend-8"
       style="overflow:visible"
       inkscape:isstock="true">
      <path
         id="path943-9"
         d="M 0,0 5,-5 -12.5,0 5,5 Z"
         style="fill:#000000;fill-opacity:1;fill-rule:evenodd;stroke:#000000;stroke-width:1pt;stroke-opacity:1"
         transform="matrix(-0.4,0,0,-0.4,-4,0)" />
    </marker>
  </defs>
  <sodipodi:namedview
     fit-margin-bottom="3"
     fit-margin-right="3"
     fit-margin-left="3"
     lock-margins="true"
     fit-margin-top="3"
     inkscape:window-maximized="1"
     inkscape:window-y="-11"
     inkscape:window-x="-11"
     inkscape:window-height="974"
     inkscape:window-width="1920"
     inkscape:snap-center="true"
     inkscape:snap-object-midpoints="true"
     inkscape:snap-global="true"
     inkscape:guide-bbox="true"
     showguides="false"
     showgrid="false"
     inkscape:document-rotation="0"
     inkscape:current-layer="layer1"
     inkscape:document-units="mm"
     inkscape:cy="24.465778"
     inkscape:cx="487.67479"
     inkscape:zoom="1"
     inkscape:pageshadow="2"
     inkscape:pageopacity="0.0"
     borderopacity="1.0"
     bordercolor="#666666"
     pagecolor="#ffffff"
     id="base">
    <sodipodi:guide
       id="guide889"
       orientation="0,-1"
       position="113.24141,-28.355089" />
    <sodipodi:guide
       id="guide893"
       orientation="0,-1"
       position="9.4071927,-129.70371" />
    <sodipodi:guide
       id="guide926"
       orientation="1,0"
       position="56.170476,22.458624" />
    <sodipodi:guide
       id="guide928"
       orientation="1,0"
       position="71.079709,22.458624" />
    <sodipodi:guide
       id="guide930"
       orientation="1,0"
       position="85.764169,-129.75996" />
    <sodipodi:guide
       position="36.907062,9.2574033"
       orientation="1,0"
       id="guide964" />
    <sodipodi:guide
       position="9.1671417,-174.12676"
       orientation="1,0"
       id="guide1159" />
    <sodipodi:guide
       id="guide157"
       orientation="0,-1"
       position="15.520914,30.347205" />
    <sodipodi:guide
       id="guide13207"
       orientation="1,0"
       position="80.906623,38.830234" />
    <sodipodi:guide
       id="guide13209"
       orientation="1,0"
       position="90.635239,39.81245" />
    <sodipodi:guide
       id="guide13211"
       orientation="0,-1"
       position="78.24061,35.135233" />
    <sodipodi:guide
       id="guide13213"
       orientation="0,-1"
       position="69.260354,25.219533" />
  </sodipodi:namedview>
  <metadata
     id="metadata5">
    <rdf:RDF>
      <cc:Work
         rdf:about="">
        <dc:format>image/svg+xml</dc:format>
        <dc:type
           rdf:resource="http://purl.org/dc/dcmitype/StillImage" />
        <dc:title></dc:title>
      </cc:Work>
    </rdf:RDF>
  </metadata>
  <g
     transform="translate(-31.752314,-6.9957312)"
     id="layer1"
     inkscape:groupmode="layer"
     inkscape:label="Layer 1">
    <path
       sodipodi:nodetypes="cscssscssssssscsc"
       d="m 73.129828,29.476328 c -0.0468,2.283246 -1.52404,5.229624 -4.14958,5.234507 -4.115347,0.0077 -9.968814,0.04832 -9.968814,0.04832 0,0 0,0 0.40031,10.079333 0.17974,4.525765 -3.034157,5.237487 -5.339927,5.26444 -2.120517,0.02479 -4.961437,-1.291129 -4.949087,-5.173442 0.0317,-9.969651 0.0317,-9.969651 0.0317,-9.969651 0,0 -6.962177,-0.0032 -9.557534,-0.01607 -3.926631,-0.0194 -4.663183,-2.589412 -4.676422,-5.06903 -0.01593,-2.98398 1.715082,-4.922614 4.143802,-4.954476 7.540767,-0.09893 10.133254,0.144581 10.133254,0.144581 -0.19609,-0.08793 0.0532,-6.661285 0.008,-9.616701 -0.0465,-3.025336 2.02885,-5.199413 4.894307,-4.967554 1.42485,0.115292 4.787837,1.427265 4.771177,4.94591 -0.0146,3.080617 0.28551,9.624619 0.28551,9.624619 0,0 6.402227,-0.164692 9.505124,-0.02357 2.21211,0.100605 4.28108,2.058354 4.46817,4.448788"
       style="fill:none;stroke:#000000;stroke-width:0.336102;stroke-miterlimit:4;stroke-dasharray:none;stroke-opacity:1"
       id="path852-1-2-9-4-6" />
    <circle
       r="1.5744852"
       cy="16.422234"
       cx="54.016502"
       style="fill:#b8b8b8;fill-opacity:1;stroke:#000000;stroke-width:0.16;stroke-miterlimit:4;stroke-dasharray:none;stroke-opacity:1"
       id="path852-1-24" />
    <circle
       id="path852-1-4-0"
       style="fill:#b8b8b8;fill-opacity:1;stroke:#000000;stroke-width:0.16;stroke-miterlimit:4;stroke-dasharray:none;stroke-opacity:1"
       cx="54.367294"
       cy="43.829567"
       r="1.5744852" />
    <circle
       r="1.5744852"
       cy="29.710197"
       cx="40.244068"
       style="fill:#b8b8b8;fill-opacity:1;stroke:#000000;stroke-width:0.16;stroke-miterlimit:4;stroke-dasharray:none;stroke-opacity:1"
       id="path852-5-6" />
    <circle
       id="path852-1-2-9"
       style="fill:#000000;stroke:none;stroke-width:1.25959"
       cx="54.016502"
       cy="29.710197"
       r="1.5744852" />
    <circle
       id="path852-6-87-3"
       style="fill:#b8b8b8;fill-opacity:1;stroke:#000000;stroke-width:0.16;stroke-miterlimit:4;stroke-dasharray:none;stroke-opacity:1"
       cx="67.581284"
       cy="29.710197"
       r="1.5744852" />
    <path
       id="path852-1-2-9-4-6-5"
       style="fill:none;stroke:#000000;stroke-width:0.336103;stroke-miterlimit:4;stroke-dasharray:none;stroke-opacity:1"
       d="m 137.7918,29.220503 c -0.0468,2.283246 -1.52404,5.229624 -4.14958,5.234508 -4.11534,0.0077 -9.96881,0.04832 -9.96881,0.04832 0,0 0,0 0.40031,10.079331 0.17974,4.525767 -3.03416,5.237488 -5.33993,5.264441 -2.12051,0.02479 -4.96143,-1.291129 -4.94908,-5.173443 0.0317,-9.96965 0.0317,-9.96965 0.0317,-9.96965 0,0 -6.96218,-0.0032 -9.55754,-0.01607 -3.92665,-0.0194 -4.663197,-2.589412 -4.676437,-5.06903 -0.0159,-2.98398 1.715087,-4.922614 4.143817,-4.954476 7.54077,-0.09893 10.13326,0.144581 10.13326,0.144581 -0.19609,-0.08793 0.0532,-6.661285 0.008,-9.616701 -0.0465,-3.025336 2.02885,-5.1994142 4.8943,-4.967555 1.42485,0.115292 4.78784,1.427266 4.77118,4.945911 -0.0146,3.080617 0.28551,9.624619 0.28551,9.624619 0,0 6.40223,-0.164692 9.50512,-0.02357 2.21211,0.100606 4.28108,2.058354 4.46818,4.448788"
       sodipodi:nodetypes="cscssscssssssscsc" />
    <circle
       id="path852-1-24-5"
       style="fill:#b8b8b8;fill-opacity:1;stroke:#000000;stroke-width:0.16;stroke-miterlimit:4;stroke-dasharray:none;stroke-opacity:1"
       cx="118.67846"
       cy="16.166407"
       r="1.5744853" />
    <circle
       r="1.5744853"
       cy="43.573742"
       cx="119.02924"
       style="fill:#b8b8b8;fill-opacity:1;stroke:#000000;stroke-width:0.16;stroke-miterlimit:4;stroke-dasharray:none;stroke-opacity:1"
       id="path852-1-4-0-4" />
    <circle
       id="path852-5-6-1"
       style="fill:#b8b8b8;fill-opacity:1;stroke:#000000;stroke-width:0.16;stroke-miterlimit:4;stroke-dasharray:none;stroke-opacity:1"
       cx="104.90601"
       cy="29.454374"
       r="1.5744853" />
    <circle
       r="1.5744853"
       cy="29.454374"
       cx="118.67846"
       style="fill:#000000;stroke:none;stroke-width:1.25959"
       id="path852-1-2-9-1" />
    <circle
       r="1.5744853"
       cy="29.454374"
       cx="132.24319"
       style="fill:#b8b8b8;fill-opacity:1;stroke:#000000;stroke-width:0.16;stroke-miterlimit:4;stroke-dasharray:none;stroke-opacity:1"
       id="path852-6-87-3-2" />
    <circle
       r="1.5744853"
       cy="16.122257"
       cx="183.22823"
       style="fill:#b8b8b8;fill-opacity:1;stroke:#000000;stroke-width:0.16;stroke-miterlimit:4;stroke-dasharray:none;stroke-opacity:1"
       id="path852-1-24-5-2" />
    <circle
       id="path852-1-4-0-4-9"
       style="fill:#b8b8b8;fill-opacity:1;stroke:#000000;stroke-width:0.16;stroke-miterlimit:4;stroke-dasharray:none;stroke-opacity:1"
       cx="183.57899"
       cy="43.529594"
       r="1.5744853" />
    <circle
       r="1.5744853"
       cy="29.410227"
       cx="169.45578"
       style="fill:#b8b8b8;fill-opacity:1;stroke:#000000;stroke-width:0.16;stroke-miterlimit:4;stroke-dasharray:none;stroke-opacity:1"
       id="path852-5-6-1-7" />
    <circle
       id="path852-1-2-9-1-8"
       style="fill:#000000;stroke:none;stroke-width:1.25959"
       cx="183.22823"
       cy="29.410227"
       r="1.5744853" />
    <circle
       id="path852-6-87-3-2-4"
       style="fill:#b8b8b8;fill-opacity:1;stroke:#000000;stroke-width:0.16;stroke-miterlimit:4;stroke-dasharray:none;stroke-opacity:1"
       cx="196.793"
       cy="29.410227"
       r="1.5744853" />
    <path
       inkscape:original-d="m 46.382774,26.459236 c 0.04704,1.216342 0.09381,2.432417 0.140317,3.648228 1.247546,0.03145 2.52596,0.06263 3.788544,0.09355"
       inkscape:path-effect="#path-effect13297"
       id="path13295"
       d="m 46.382774,26.459236 c 0.04678,1.216352 0.09356,2.432427 0.740717,3.05573 0.647162,0.623304 1.925566,0.654871 3.188144,0.686048"
       style="fill:none;stroke:#000000;stroke-width:0.265;stroke-linecap:butt;stroke-linejoin:miter;stroke-miterlimit:4;stroke-dasharray:none;stroke-opacity:1;marker-start:url(#Arrow2Mstart);marker-end:url(#Arrow1Mend)" />
    <path
       style="fill:none;stroke:#000000;stroke-width:0.315914;stroke-linecap:butt;stroke-linejoin:miter;stroke-miterlimit:4;stroke-dasharray:none;stroke-opacity:1;marker-start:url(#Arrow2Mstart-36);marker-end:url(#Arrow1Mend-3)"
       d="m 115.3304,29.305691 c -1.22762,-0.834153 -2.45489,-1.668071 -3.73129,-1.657635 -1.2764,0.01044 -2.63469,0.885876 -3.97621,1.750503"
       id="path13295-4"
       inkscape:path-effect="#path-effect13462"
       inkscape:original-d="m 115.3304,29.305691 c -1.22776,-0.833946 -2.45505,-1.667841 -3.68181,-2.501745 -1.32627,0.853935 -2.68433,1.729741 -4.02569,2.594613" />
    <path
       inkscape:original-d="m 129.66436,29.329513 c -1.22776,-0.833946 -2.45505,-1.667841 -3.68181,-2.501745 -1.32627,0.853935 -2.68433,1.729741 -4.02569,2.594613"
       inkscape:path-effect="#path-effect13749"
       id="path13295-4-4"
       d="m 129.66436,29.329513 c -1.22762,-0.834153 -2.45489,-1.668071 -3.73129,-1.657635 -1.2764,0.01044 -2.63469,0.885876 -3.97621,1.750503"
       style="fill:none;stroke:#000000;stroke-width:0.315915;stroke-linecap:butt;stroke-linejoin:miter;stroke-miterlimit:4;stroke-dasharray:none;stroke-opacity:1;marker-start:url(#Arrow2Mstart-36-4);marker-end:url(#Arrow1Mend-3-6)" />
    <path
       inkscape:original-d="m 117.54489,18.613216 c -0.7803,1.262531 -1.56058,2.524591 -2.34088,3.786121 0.91025,1.288269 1.84372,2.607357 2.76555,3.910231"
       inkscape:path-effect="#path-effect14030"
       id="path13295-4-2"
       d="m 117.54489,18.613216 c -0.78051,1.262398 -1.56081,2.524447 -1.49542,3.799208 0.0654,1.274762 0.9985,2.594101 1.92009,3.897144"
       style="fill:none;stroke:#000000;stroke-width:0.315915;stroke-linecap:butt;stroke-linejoin:miter;stroke-miterlimit:4;stroke-dasharray:none;stroke-opacity:1;marker-start:url(#Arrow2Mstart-36-2);marker-end:url(#Arrow1Mend-3-5)" />
    <path
       style="fill:none;stroke:#000000;stroke-width:0.315915;stroke-linecap:butt;stroke-linejoin:miter;stroke-miterlimit:4;stroke-dasharray:none;stroke-opacity:1;marker-start:url(#Arrow2Mstart-36-2-0);marker-end:url(#Arrow1Mend-3-5-5)"
       d="m 120.15652,32.68026 c 0.78051,1.262398 1.56081,2.524447 1.49542,3.799208 -0.0654,1.274762 -0.9985,2.594101 -1.92009,3.897144"
       id="path13295-4-2-3"
       inkscape:path-effect="#path-effect14345"
       inkscape:original-d="m 120.15652,32.68026 c 0.7803,1.262531 1.56058,2.524591 2.34088,3.786121 -0.91025,1.288269 -1.84372,2.607357 -2.76555,3.910231" />
    <path
       sodipodi:nodetypes="cscssscssssssscsc"
       d="m 202.34161,29.176353 c -0.0468,2.283246 -1.52404,5.229624 -4.14958,5.234508 -4.11534,0.0077 -9.96881,0.04832 -9.96881,0.04832 0,0 0,0 0.40031,10.079332 0.17974,4.525767 -3.03416,5.237488 -5.33993,5.264441 -2.12051,0.02479 -4.96143,-1.29113 -4.94908,-5.173443 0.0317,-9.969651 0.0317,-9.969651 0.0317,-9.969651 0,0 -6.96218,-0.0032 -9.55754,-0.01607 -3.92663,-0.0194 -4.66318,-2.589411 -4.67642,-5.069029 -0.0159,-2.98398 1.71509,-4.922614 4.1438,-4.954476 7.54077,-0.09893 10.13326,0.144581 10.13326,0.144581 -0.19609,-0.08793 0.0532,-6.661285 0.008,-9.616701 -0.0465,-3.025336 2.02885,-5.199415 4.8943,-4.967555 1.42485,0.115292 4.78784,1.427266 4.77118,4.945911 -0.0146,3.080617 0.28551,9.624619 0.28551,9.624619 0,0 6.40223,-0.164692 9.50512,-0.02357 2.21211,0.100606 4.28108,2.058354 4.46818,4.448788"
       style="fill:#b8b8b8;fill-opacity:0.402941;stroke:#000000;stroke-width:0.336103;stroke-miterlimit:4;stroke-dasharray:none;stroke-opacity:1"
       id="path852-1-2-9-4-6-5-6" />
    <text
       id="text14529"
       y="50.531006"
       x="197.05766"
       style="font-style:normal;font-variant:normal;font-weight:500;font-stretch:normal;font-size:4.9389px;font-family:'CMU Serif';-inkscape-font-specification:'CMU Serif Medium';stroke-width:0.264583"
       xml:space="preserve"><tspan
         style="font-style:normal;font-variant:normal;font-weight:500;font-stretch:normal;font-family:'CMU Serif';-inkscape-font-specification:'CMU Serif Medium';stroke-width:0.264583"
         y="50.531006"
         x="197.05766"
         id="tspan14527"
         sodipodi:role="line">AGG(n)</tspan></text>
    <path
       style="fill:none;stroke:#000000;stroke-width:0.28795;stroke-linecap:butt;stroke-linejoin:miter;stroke-miterlimit:4;stroke-dasharray:none;stroke-opacity:1;marker-start:url(#Arrow2Mstart-8);marker-end:url(#Arrow1Mend-8)"
       d="m 175.92333,25.89151 c 0.0549,1.224058 0.10977,2.447841 0.86907,3.075091 0.7593,0.627251 2.25925,0.659018 3.7406,0.690391"
       id="path13295-2"
       inkscape:path-effect="#path-effect14708"
       inkscape:original-d="m 175.92333,25.89151 c 0.0551,1.224049 0.11006,2.447828 0.16464,3.671342 1.46372,0.03165 2.96367,0.06303 4.44503,0.09414" />
  </g>
</svg>
