<?xml version="1.0" encoding="UTF-8" standalone="no"?>
<svg
   xmlns:dc="http://purl.org/dc/elements/1.1/"
   xmlns:cc="http://creativecommons.org/ns#"
   xmlns:rdf="http://www.w3.org/1999/02/22-rdf-syntax-ns#"
   xmlns:svg="http://www.w3.org/2000/svg"
   xmlns="http://www.w3.org/2000/svg"
   xmlns:sodipodi="http://sodipodi.sourceforge.net/DTD/sodipodi-0.dtd"
   xmlns:inkscape="http://www.inkscape.org/namespaces/inkscape"
   width="329.63046mm"
   height="63.697994mm"
   viewBox="0 0 329.63047 63.697995"
   version="1.1"
   id="svg8"
   inkscape:version="1.0 (4035a4fb49, 2020-05-01)"
   sodipodi:docname="relgraph_workflow_horiz.svg">
  <defs
     id="defs2">
    <inkscape:path-effect
       lpeversion="1"
       is_visible="true"
       id="path-effect359"
       effect="spiro" />
    <inkscape:path-effect
       lpeversion="1"
       is_visible="true"
       id="path-effect357"
       effect="spiro" />
    <inkscape:path-effect
       lpeversion="1"
       is_visible="true"
       id="path-effect355"
       effect="spiro" />
    <inkscape:path-effect
       lpeversion="1"
       is_visible="true"
       id="path-effect308"
       effect="spiro" />
    <inkscape:path-effect
       effect="spiro"
       id="path-effect1942"
       is_visible="true"
       lpeversion="1" />
    <inkscape:path-effect
       effect="spiro"
       id="path-effect1938"
       is_visible="true"
       lpeversion="1" />
    <inkscape:path-effect
       lpeversion="1"
       is_visible="true"
       id="path-effect1934"
       effect="spiro" />
    <inkscape:path-effect
       effect="spiro"
       id="path-effect1896"
       is_visible="true"
       lpeversion="1" />
    <marker
       inkscape:stockid="Arrow1Mend"
       orient="auto"
       refY="0"
       refX="0"
       id="Arrow1Mend"
       style="overflow:visible"
       inkscape:isstock="true">
      <path
         id="path943"
         d="M 0,0 5,-5 -12.5,0 5,5 Z"
         style="fill:#000000;fill-opacity:1;fill-rule:evenodd;stroke:#000000;stroke-width:1pt;stroke-opacity:1"
         transform="matrix(-0.4,0,0,-0.4,-4,0)" />
    </marker>
    <marker
       inkscape:stockid="Arrow2Mstart"
       orient="auto"
       refY="0"
       refX="0"
       id="Arrow2Mstart"
       style="overflow:visible"
       inkscape:isstock="true">
      <path
         id="path958"
         style="fill:#000000;fill-opacity:1;fill-rule:evenodd;stroke:#000000;stroke-width:0.625;stroke-linejoin:round;stroke-opacity:1"
         d="M 8.7185878,4.0337352 -2.2072895,0.01601326 8.7185884,-4.0017078 c -1.7454984,2.3720609 -1.7354408,5.6174519 -6e-7,8.035443 z"
         transform="scale(0.6)" />
    </marker>
    <marker
       inkscape:stockid="Arrow1Lend"
       orient="auto"
       refY="0"
       refX="0"
       id="marker1462"
       style="overflow:visible"
       inkscape:isstock="true">
      <path
         id="path1460"
         d="M 0,0 5,-5 -12.5,0 5,5 Z"
         style="fill:#000000;fill-opacity:1;fill-rule:evenodd;stroke:#000000;stroke-width:1pt;stroke-opacity:1"
         transform="matrix(-0.8,0,0,-0.8,-10,0)" />
    </marker>
    <inkscape:path-effect
       effect="spiro"
       id="path-effect1458"
       is_visible="true"
       lpeversion="1" />
    <marker
       inkscape:stockid="Arrow1Lend"
       orient="auto"
       refY="0"
       refX="0"
       id="Arrow1Lend"
       style="overflow:visible"
       inkscape:isstock="true">
      <path
         id="path937"
         d="M 0,0 5,-5 -12.5,0 5,5 Z"
         style="fill:#000000;fill-opacity:1;fill-rule:evenodd;stroke:#000000;stroke-width:1pt;stroke-opacity:1"
         transform="matrix(-0.8,0,0,-0.8,-10,0)" />
    </marker>
    <marker
       inkscape:stockid="Arrow1Lstart"
       orient="auto"
       refY="0"
       refX="0"
       id="Arrow1Lstart"
       style="overflow:visible"
       inkscape:isstock="true">
      <path
         id="path934"
         d="M 0,0 5,-5 -12.5,0 5,5 Z"
         style="fill:#000000;fill-opacity:1;fill-rule:evenodd;stroke:#000000;stroke-width:1pt;stroke-opacity:1"
         transform="matrix(0.8,0,0,0.8,10,0)" />
    </marker>
    <inkscape:path-effect
       effect="bspline"
       id="path-effect850"
       is_visible="true"
       lpeversion="1"
       weight="33.333333"
       steps="2"
       helper_size="0"
       apply_no_weight="true"
       apply_with_weight="true"
       only_selected="false" />
    <inkscape:path-effect
       effect="powerstroke"
       id="path-effect844"
       is_visible="true"
       lpeversion="1"
       offset_points="2.167537,2.7462332"
       sort_points="true"
       interpolator_type="CentripetalCatmullRom"
       interpolator_beta="0.75"
       start_linecap_type="round"
       linejoin_type="spiro"
       miter_limit="4"
       scale_width="1"
       end_linecap_type="round" />
    <inkscape:path-effect
       effect="simplify"
       id="path-effect842"
       is_visible="true"
       lpeversion="1"
       steps="1"
       threshold="0.0042328942"
       smooth_angles="0"
       helper_size="0"
       simplify_individual_paths="false"
       simplify_just_coalesce="false"
       step="1" />
    <inkscape:path-effect
       effect="bspline"
       id="path-effect839"
       is_visible="true"
       lpeversion="1"
       weight="33.333333"
       steps="2"
       helper_size="0"
       apply_no_weight="true"
       apply_with_weight="true"
       only_selected="false" />
    <inkscape:path-effect
       effect="bspline"
       id="path-effect835"
       is_visible="true"
       lpeversion="1"
       weight="33.333333"
       steps="2"
       helper_size="0"
       apply_no_weight="true"
       apply_with_weight="true"
       only_selected="false" />
    <marker
       inkscape:isstock="true"
       style="overflow:visible"
       id="Arrow1Lend-2"
       refX="0"
       refY="0"
       orient="auto"
       inkscape:stockid="Arrow1Lend">
      <path
         transform="matrix(-0.8,0,0,-0.8,-10,0)"
         style="fill:#000000;fill-opacity:1;fill-rule:evenodd;stroke:#000000;stroke-width:1pt;stroke-opacity:1"
         d="M 0,0 5,-5 -12.5,0 5,5 Z"
         id="path937-4" />
    </marker>
    <marker
       inkscape:isstock="true"
       style="overflow:visible"
       id="Arrow1Lend-1"
       refX="0"
       refY="0"
       orient="auto"
       inkscape:stockid="Arrow1Lend">
      <path
         transform="matrix(-0.8,0,0,-0.8,-10,0)"
         style="fill:#000000;fill-opacity:1;fill-rule:evenodd;stroke:#000000;stroke-width:1pt;stroke-opacity:1"
         d="M 0,0 5,-5 -12.5,0 5,5 Z"
         id="path937-5" />
    </marker>
    <marker
       inkscape:stockid="Arrow1Lend"
       orient="auto"
       refY="0"
       refX="0"
       id="Arrow1Lend-1-2"
       style="overflow:visible"
       inkscape:isstock="true">
      <path
         id="path937-5-0"
         d="M 0,0 5,-5 -12.5,0 5,5 Z"
         style="fill:#000000;fill-opacity:1;fill-rule:evenodd;stroke:#000000;stroke-width:1pt;stroke-opacity:1"
         transform="matrix(-0.8,0,0,-0.8,-10,0)" />
    </marker>
    <marker
       inkscape:isstock="true"
       style="overflow:visible"
       id="Arrow1Lend-1-2-5"
       refX="0"
       refY="0"
       orient="auto"
       inkscape:stockid="Arrow1Lend">
      <path
         transform="matrix(-0.8,0,0,-0.8,-10,0)"
         style="fill:#000000;fill-opacity:1;fill-rule:evenodd;stroke:#000000;stroke-width:1pt;stroke-opacity:1"
         d="M 0,0 5,-5 -12.5,0 5,5 Z"
         id="path937-5-0-1" />
    </marker>
    <marker
       inkscape:isstock="true"
       style="overflow:visible"
       id="Arrow1Lend-1-2-6"
       refX="0"
       refY="0"
       orient="auto"
       inkscape:stockid="Arrow1Lend">
      <path
         transform="matrix(-0.8,0,0,-0.8,-10,0)"
         style="fill:#000000;fill-opacity:1;fill-rule:evenodd;stroke:#000000;stroke-width:1pt;stroke-opacity:1"
         d="M 0,0 5,-5 -12.5,0 5,5 Z"
         id="path937-5-0-2" />
    </marker>
    <marker
       inkscape:isstock="true"
       style="overflow:visible"
       id="Arrow1Lend-1-2-7"
       refX="0"
       refY="0"
       orient="auto"
       inkscape:stockid="Arrow1Lend">
      <path
         transform="matrix(-0.8,0,0,-0.8,-10,0)"
         style="fill:#000000;fill-opacity:1;fill-rule:evenodd;stroke:#000000;stroke-width:1pt;stroke-opacity:1"
         d="M 0,0 5,-5 -12.5,0 5,5 Z"
         id="path937-5-0-6" />
    </marker>
    <marker
       inkscape:stockid="Arrow1Lend"
       orient="auto"
       refY="0"
       refX="0"
       id="Arrow1Lend-1-2-7-2"
       style="overflow:visible"
       inkscape:isstock="true">
      <path
         id="path937-5-0-6-3"
         d="M 0,0 5,-5 -12.5,0 5,5 Z"
         style="fill:#000000;fill-opacity:1;fill-rule:evenodd;stroke:#000000;stroke-width:1pt;stroke-opacity:1"
         transform="matrix(-0.8,0,0,-0.8,-10,0)" />
    </marker>
    <marker
       inkscape:isstock="true"
       style="overflow:visible"
       id="Arrow1Lend-9"
       refX="0"
       refY="0"
       orient="auto"
       inkscape:stockid="Arrow1Lend">
      <path
         transform="matrix(-0.8,0,0,-0.8,-10,0)"
         style="fill:#000000;fill-opacity:1;fill-rule:evenodd;stroke:#000000;stroke-width:1pt;stroke-opacity:1"
         d="M 0,0 5,-5 -12.5,0 5,5 Z"
         id="path937-56" />
    </marker>
    <marker
       inkscape:isstock="true"
       style="overflow:visible"
       id="Arrow2Mstart-3"
       refX="0"
       refY="0"
       orient="auto"
       inkscape:stockid="Arrow2Mstart">
      <path
         transform="scale(0.6)"
         d="M 8.7185878,4.0337352 -2.2072895,0.01601326 8.7185884,-4.0017078 c -1.7454984,2.3720609 -1.7354408,5.6174519 -6e-7,8.035443 z"
         style="fill:#000000;fill-opacity:1;fill-rule:evenodd;stroke:#000000;stroke-width:0.625;stroke-linejoin:round;stroke-opacity:1"
         id="path958-7" />
    </marker>
    <marker
       inkscape:isstock="true"
       style="overflow:visible"
       id="Arrow1Mend-6"
       refX="0"
       refY="0"
       orient="auto"
       inkscape:stockid="Arrow1Mend">
      <path
         transform="matrix(-0.4,0,0,-0.4,-4,0)"
         style="fill:#000000;fill-opacity:1;fill-rule:evenodd;stroke:#000000;stroke-width:1pt;stroke-opacity:1"
         d="M 0,0 5,-5 -12.5,0 5,5 Z"
         id="path943-5" />
    </marker>
    <marker
       inkscape:stockid="Arrow1Lend"
       orient="auto"
       refY="0"
       refX="0"
       id="Arrow1Lend-9-0"
       style="overflow:visible"
       inkscape:isstock="true">
      <path
         id="path937-56-5"
         d="M 0,0 5,-5 -12.5,0 5,5 Z"
         style="fill:#000000;fill-opacity:1;fill-rule:evenodd;stroke:#000000;stroke-width:1pt;stroke-opacity:1"
         transform="matrix(-0.8,0,0,-0.8,-10,0)" />
    </marker>
    <marker
       inkscape:stockid="Arrow1Lend"
       orient="auto"
       refY="0"
       refX="0"
       id="Arrow1Lend-1-2-7-9"
       style="overflow:visible"
       inkscape:isstock="true">
      <path
         id="path937-5-0-6-7"
         d="M 0,0 5,-5 -12.5,0 5,5 Z"
         style="fill:#000000;fill-opacity:1;fill-rule:evenodd;stroke:#000000;stroke-width:1pt;stroke-opacity:1"
         transform="matrix(-0.8,0,0,-0.8,-10,0)" />
    </marker>
    <marker
       inkscape:isstock="true"
       style="overflow:visible"
       id="Arrow1Lend-1-2-7-2-2"
       refX="0"
       refY="0"
       orient="auto"
       inkscape:stockid="Arrow1Lend">
      <path
         transform="matrix(-0.8,0,0,-0.8,-10,0)"
         style="fill:#000000;fill-opacity:1;fill-rule:evenodd;stroke:#000000;stroke-width:1pt;stroke-opacity:1"
         d="M 0,0 5,-5 -12.5,0 5,5 Z"
         id="path937-5-0-6-3-1" />
    </marker>
  </defs>
  <sodipodi:namedview
     id="base"
     pagecolor="#ffffff"
     bordercolor="#666666"
     borderopacity="1.0"
     inkscape:pageopacity="0.0"
     inkscape:pageshadow="2"
     inkscape:zoom="0.062500002"
     inkscape:cx="-3423.1475"
     inkscape:cy="230.92384"
     inkscape:document-units="mm"
     inkscape:current-layer="layer1"
     inkscape:document-rotation="0"
     showgrid="false"
     showguides="false"
     inkscape:guide-bbox="true"
     inkscape:snap-global="true"
     inkscape:snap-object-midpoints="true"
     inkscape:snap-center="true"
     inkscape:window-width="1920"
     inkscape:window-height="986"
     inkscape:window-x="-11"
     inkscape:window-y="-11"
     inkscape:window-maximized="1"
     fit-margin-top="3"
     lock-margins="true"
     fit-margin-left="3"
     fit-margin-right="3"
     fit-margin-bottom="3">
    <sodipodi:guide
       position="124.14855,-18.501192"
       orientation="0,-1"
       id="guide889" />
    <sodipodi:guide
       position="20.314335,-119.84981"
       orientation="0,-1"
       id="guide893" />
    <sodipodi:guide
       position="67.077618,32.312521"
       orientation="1,0"
       id="guide926" />
    <sodipodi:guide
       position="81.98685,32.312521"
       orientation="1,0"
       id="guide928" />
    <sodipodi:guide
       position="96.67131,-119.90606"
       orientation="1,0"
       id="guide930" />
    <sodipodi:guide
       id="guide964"
       orientation="1,0"
       position="47.814204,19.1113" />
    <sodipodi:guide
       id="guide1159"
       orientation="1,0"
       position="20.074284,-164.27286" />
    <sodipodi:guide
       position="26.428056,40.201101"
       orientation="0,-1"
       id="guide157" />
  </sodipodi:namedview>
  <metadata
     id="metadata5">
    <rdf:RDF>
      <cc:Work
         rdf:about="">
        <dc:format>image/svg+xml</dc:format>
        <dc:type
           rdf:resource="http://purl.org/dc/dcmitype/StillImage" />
        <dc:title />
      </cc:Work>
    </rdf:RDF>
  </metadata>
  <g
     inkscape:label="Layer 1"
     inkscape:groupmode="layer"
     id="layer1"
     transform="translate(-20.845172,-0.92163401)">
    <path
       id="path852-1-2-9-4-6"
       style="fill:none;stroke:#000000;stroke-width:0.277125;stroke-miterlimit:4;stroke-dasharray:none;stroke-opacity:1"
       d="m 124.87832,24.418522 c 0,1.230872 -0.65015,3.215578 -2.64938,4.09799 -2.58738,1.141994 -7.06323,1.015056 -11.45864,1.015056 -3.76875,0 -6.33692,0.136556 -8.86754,-0.736044 -2.701302,-0.93144 -3.468577,-2.674599 -3.468577,-4.132596 0,-0.912181 0.659078,-2.868396 1.814067,-3.609852 2.42056,-1.553923 5.24726,-1.747627 10.52205,-1.747627 4.48681,0 8.7288,-0.157434 11.31279,1.025735 1.90329,0.871494 2.79523,2.889594 2.79523,4.087338"
       sodipodi:nodetypes="csssssssc" />
    <circle
       id="path852"
       style="fill:#000000;stroke:none;stroke-width:1.25959"
       cx="33.500809"
       cy="11.13059"
       r="1.5744852" />
    <circle
       r="1.5744852"
       cy="11.13059"
       cx="47.273228"
       style="fill:#000000;stroke:none;stroke-width:1.25959"
       id="path852-1" />
    <circle
       r="1.5744852"
       cy="11.13059"
       cx="60.838051"
       style="fill:#000000;stroke:none;stroke-width:1.25959"
       id="path852-6" />
    <circle
       r="1.5744852"
       cy="38.467777"
       cx="33.500809"
       style="fill:#000000;stroke:none;stroke-width:1.25959"
       id="path852-9" />
    <circle
       id="path852-1-4"
       style="fill:#000000;stroke:none;stroke-width:1.25959"
       cx="47.273228"
       cy="38.467777"
       r="1.5744852" />
    <circle
       id="path852-6-8"
       style="fill:#000000;stroke:none;stroke-width:1.25959"
       cx="60.838051"
       cy="38.467777"
       r="1.5744852" />
    <circle
       r="1.5744852"
       cy="24.41853"
       cx="33.500809"
       style="fill:#000000;stroke:none;stroke-width:1.25959"
       id="path852-5" />
    <circle
       id="path852-1-2"
       style="fill:#000000;stroke:none;stroke-width:1.25959"
       cx="47.273228"
       cy="24.41853"
       r="1.5744852" />
    <circle
       id="path852-6-87"
       style="fill:#000000;stroke:none;stroke-width:1.25959"
       cx="60.838051"
       cy="24.41853"
       r="1.5744852" />
    <path
       style="fill:none;stroke:#000000;stroke-width:0.244794;stroke-linecap:butt;stroke-linejoin:miter;stroke-miterlimit:4;stroke-dasharray:none;stroke-opacity:1;marker-end:url(#Arrow1Lend)"
       d="m 73.109359,24.418531 h 14.81343"
       id="path932" />
    <circle
       r="1.5744852"
       cy="11.130567"
       cx="103.74406"
       style="fill:#000000;stroke:none;stroke-width:1.25959"
       id="path852-4" />
    <circle
       id="path852-1-24"
       style="fill:#000000;stroke:none;stroke-width:1.25959"
       cx="117.51648"
       cy="11.130567"
       r="1.5744852" />
    <circle
       id="path852-6-1"
       style="fill:#000000;stroke:none;stroke-width:1.25959"
       cx="131.08127"
       cy="11.130567"
       r="1.5744852" />
    <circle
       id="path852-9-9"
       style="fill:#000000;stroke:none;stroke-width:1.25959"
       cx="103.74406"
       cy="38.467739"
       r="1.5744852" />
    <circle
       r="1.5744852"
       cy="38.467739"
       cx="117.51648"
       style="fill:#000000;stroke:none;stroke-width:1.25959"
       id="path852-1-4-0" />
    <circle
       r="1.5744852"
       cy="38.467739"
       cx="131.08127"
       style="fill:#000000;stroke:none;stroke-width:1.25959"
       id="path852-6-8-0" />
    <circle
       id="path852-5-6"
       style="fill:#000000;stroke:none;stroke-width:1.25959"
       cx="103.74406"
       cy="24.418531"
       r="1.5744852" />
    <circle
       r="1.5744852"
       cy="24.418531"
       cx="117.51648"
       style="fill:#000000;stroke:none;stroke-width:1.25959"
       id="path852-1-2-9" />
    <circle
       r="1.5744852"
       cy="24.418531"
       cx="131.08127"
       style="fill:#000000;stroke:none;stroke-width:1.25959"
       id="path852-6-87-3" />
    <circle
       id="path852-1-2-9-4"
       style="fill:none;stroke:#000000;stroke-width:0.18475;stroke-miterlimit:4;stroke-dasharray:none;stroke-opacity:1"
       cx="117.51648"
       cy="24.418531"
       r="3.5908613" />
    <path
       sodipodi:nodetypes="csssssssssssssssc"
       d="m 136.31275,23.990911 c 0.0611,4.634419 -1.65218,4.824987 -1.65218,4.824987 -1.05292,0.832624 -8.29361,0.786584 -9.68875,1.40236 -0.81327,0.35896 0.74395,6.504009 -0.81478,10.158729 -1.234,2.89333 -5.56123,3.49603 -6.56204,3.55241 -1.20078,0.0676 -4.47199,-0.93268 -5.41485,-3.699 -1.18296,-3.47073 -0.0338,-8.879415 -1.68032,-8.879415 -4.65936,0 -7.40671,0.35215 -10.535363,-0.726664 -3.339656,-1.151567 -3.860537,-4.100991 -3.860537,-5.903538 0,-1.127735 0.631522,-3.607346 2.059446,-4.524019 2.992574,-1.921133 5.509644,-3.38266 12.030944,-3.38266 1.17006,0 -0.0441,-4.68656 1.0961,-6.8870566 1.41103,-2.723099 5.1613,-3.06771 6.43309,-3.007984 1.14933,0.05397 4.19108,0.617555 5.2595,3.2542436 1.32319,3.265438 -0.28574,7.909301 0.64756,8.336645 1.53827,0.704351 8.29433,-0.0082 9.64284,0.998072 0.79941,0.596529 3.25483,1.234987 3.03934,4.48289"
       style="fill:none;stroke:#000000;stroke-width:0.277125;stroke-miterlimit:4;stroke-dasharray:none;stroke-opacity:1"
       id="path852-1-2-9-4-6-1" />
    <path
       sodipodi:nodetypes="csssssssc"
       d="m 199.69986,25.125716 c 0,1.23088 -0.65015,3.21562 -2.64938,4.09803 -2.58738,1.14201 -7.06323,1.01506 -11.45864,1.01506 -3.76874,0 -6.33691,0.13657 -8.86754,-0.73604 -2.7013,-0.93144 -3.46857,-2.67464 -3.46857,-4.13264 0,-0.91219 0.65907,-2.86842 1.81406,-3.60989 2.42056,-1.55392 5.24727,-1.74763 10.52205,-1.74763 4.48681,0 8.72881,-0.15742 11.31279,1.02574 1.90329,0.8715 2.79523,2.88961 2.79523,4.08737"
       style="fill:none;stroke:#000000;stroke-width:0.369501;stroke-miterlimit:4;stroke-dasharray:none;stroke-opacity:1"
       id="path852-1-2-9-4-6-5" />
    <circle
       id="path852-4-8"
       style="opacity:0.3;fill:#000000;stroke:none;stroke-width:1.25959"
       cx="178.5656"
       cy="11.837986"
       r="1.5744852" />
    <circle
       r="1.5744852"
       cy="11.837986"
       cx="192.33801"
       style="opacity:0.3;fill:#000000;stroke:none;stroke-width:1.25959"
       id="path852-1-24-0" />
    <circle
       r="1.5744852"
       cy="11.837986"
       cx="205.90282"
       style="opacity:0.3;fill:#000000;stroke:none;stroke-width:1.25959"
       id="path852-6-1-1" />
    <circle
       r="1.5744852"
       cy="39.175144"
       cx="178.5656"
       style="opacity:0.3;fill:#000000;stroke:none;stroke-width:1.25959"
       id="path852-9-9-0" />
    <circle
       id="path852-1-4-0-7"
       style="opacity:0.3;fill:#000000;stroke:none;stroke-width:1.25959"
       cx="192.33801"
       cy="39.175144"
       r="1.5744852" />
    <circle
       id="path852-6-8-0-1"
       style="opacity:0.3;fill:#000000;stroke:none;stroke-width:1.25959"
       cx="205.90282"
       cy="39.175144"
       r="1.5744852" />
    <circle
       r="1.5744852"
       cy="25.125935"
       cx="178.5656"
       style="opacity:0.3;fill:#000000;stroke:none;stroke-width:1.25959"
       id="path852-5-6-7" />
    <circle
       id="path852-1-2-9-41"
       style="opacity:0.3;fill:#000000;stroke:none;stroke-width:1.25959"
       cx="192.33801"
       cy="25.125935"
       r="1.5744852" />
    <circle
       id="path852-6-87-3-0"
       style="opacity:0.3;fill:#000000;stroke:none;stroke-width:1.25959"
       cx="205.90282"
       cy="25.125935"
       r="1.5744852" />
    <circle
       r="3.5908613"
       cy="25.125935"
       cx="192.33801"
       style="fill:none;stroke:#000000;stroke-width:0.18475;stroke-miterlimit:4;stroke-dasharray:none;stroke-opacity:1"
       id="path852-1-2-9-4-4" />
    <path
       id="path852-1-2-9-4-6-1-7"
       style="fill:none;stroke:#000000;stroke-width:0.369501;stroke-miterlimit:4;stroke-dasharray:none;stroke-opacity:1"
       d="m 211.13429,24.698096 c 0.0611,4.63446 -1.65218,4.82503 -1.65218,4.82503 -1.05291,0.83264 -8.29361,0.7866 -9.68875,1.40237 -0.81327,0.35896 0.74395,6.50404 -0.81478,10.15875 -1.23399,2.89333 -5.56123,3.49604 -6.56204,3.55241 -1.20078,0.0676 -4.47199,-0.93268 -5.41485,-3.699 -1.18296,-3.47073 -0.0338,-8.87942 -1.68032,-8.87942 -4.65936,0 -7.40671,0.35214 -10.53536,-0.72668 -3.33965,-1.15156 -3.86054,-4.10102 -3.86054,-5.90358 0,-1.12774 0.63152,-3.60738 2.05945,-4.52405 2.99258,-1.92113 5.50964,-3.38266 12.03094,-3.38266 1.17006,0 -0.0442,-4.68656 1.0961,-6.88706 1.41104,-2.7230904 5.1613,-3.0677104 6.43309,-3.0079804 1.14933,0.0539 4.19108,0.61756 5.2595,3.2542504 1.32319,3.26544 -0.28574,7.9093 0.64756,8.33664 1.53827,0.70435 8.29433,-0.008 9.64284,0.99807 0.79941,0.59653 3.25483,1.23499 3.03934,4.48291"
       sodipodi:nodetypes="csssssssssssssssc" />
    <path
       style="fill:none;stroke:#000000;stroke-width:0.337169;stroke-linecap:butt;stroke-linejoin:miter;stroke-miterlimit:4;stroke-dasharray:none;stroke-opacity:1;marker-start:url(#Arrow2Mstart);marker-end:url(#Arrow1Mend)"
       d="m 187.47269,13.413506 c 1.00759,0.191279 1.98706,0.530006 2.89755,1.00205 0.37219,0.192961 0.73465,0.4093 1.05549,0.67915 0.32085,0.26985 0.6,0.595571 0.78092,0.97376 0.13028,0.272333 0.20755,0.566409 0.28411,0.85843 0.16021,0.611069 0.32059,1.222096 0.48113,1.83308"
       id="path1456"
       inkscape:path-effect="#path-effect1458"
       inkscape:original-d="m 187.47269,13.413506 c 0.67278,0.34647 2.14707,0.82101 2.89755,1.00205 0.79308,0.19131 1.11756,0.64128 1.83641,1.65291 0.24093,0.33905 0.0504,0.35432 0.28411,0.85843 0.76712,1.65463 0.27007,1.01862 0.48113,1.83308"
       sodipodi:nodetypes="csssc" />
    <text
       xml:space="preserve"
       style="font-size:6.4748px;font-family:'Segoe Print';-inkscape-font-specification:'Segoe Print';stroke-width:1.52729;stroke-miterlimit:4;stroke-dasharray:none"
       x="190.41107"
       y="13.682941"
       id="text1632"><tspan
         sodipodi:role="line"
         id="tspan1630"
         x="190.41107"
         y="13.682941"
         style="font-style:normal;font-variant:normal;font-weight:bold;font-stretch:normal;font-family:'Segoe Print';-inkscape-font-specification:'Segoe Print Bold';stroke-width:1.52729;stroke-miterlimit:4;stroke-dasharray:none">?</tspan></text>
    <text
       id="text962"
       y="54.184898"
       x="23.639475"
       style="font-size:6.19512px;font-family:'CMU Sans Serif';-inkscape-font-specification:'CMU Sans Serif';stroke-width:0.16594"
       xml:space="preserve"><tspan
         style="font-style:normal;font-variant:normal;font-weight:normal;font-stretch:normal;font-size:6.19512px;font-family:'CMU Serif';-inkscape-font-specification:'CMU Serif';stroke-width:0.16594"
         y="54.184898"
         x="23.639475"
         id="tspan960"
         sodipodi:role="line">Underlying Atomic </tspan></text>
    <text
       xml:space="preserve"
       style="font-size:6.40997px;font-family:'CMU Sans Serif';-inkscape-font-specification:'CMU Sans Serif';stroke-width:0.178408"
       x="89.206558"
       y="56.106636"
       id="text962-6"><tspan
         sodipodi:role="line"
         id="tspan960-3"
         x="89.206558"
         y="56.106636"
         style="font-style:normal;font-variant:normal;font-weight:normal;font-stretch:normal;font-size:6.40997px;font-family:'CMU Serif';-inkscape-font-specification:'CMU Serif';stroke-width:0.178408">Crystal Hypergraph</tspan></text>
    <text
       id="text962-6-3"
       y="57.470226"
       x="162.3331"
       style="font-size:6.19125px;font-family:'CMU Sans Serif';-inkscape-font-specification:'CMU Sans Serif';stroke-width:0.244409"
       xml:space="preserve"><tspan
         style="font-style:normal;font-variant:normal;font-weight:normal;font-stretch:normal;font-size:6.19125px;font-family:'CMU Serif';-inkscape-font-specification:'CMU Serif';stroke-width:0.244409"
         y="57.470226"
         x="162.3331"
         id="tspan960-3-8"
         sodipodi:role="line">Relatives Determination</tspan></text>
    <text
       xml:space="preserve"
       style="font-size:6.17361px;font-family:'CMU Sans Serif';-inkscape-font-specification:'CMU Sans Serif';stroke-width:0.218708"
       x="246.22415"
       y="58.810539"
       id="text962-6-3-6"><tspan
         sodipodi:role="line"
         id="tspan960-3-8-7"
         x="246.22415"
         y="58.810539"
         style="font-style:normal;font-variant:normal;font-weight:normal;font-stretch:normal;font-size:6.17361px;font-family:'CMU Serif';-inkscape-font-specification:'CMU Serif';stroke-width:0.218708">Relatives Graph</tspan></text>
    <text
       id="text962-6-3-6-0"
       y="51.88636"
       x="246.79742"
       style="font-size:4.22835px;font-family:'CMU Sans Serif';-inkscape-font-specification:'CMU Sans Serif';stroke-width:0.11326"
       xml:space="preserve"><tspan
         style="font-style:normal;font-variant:normal;font-weight:normal;font-stretch:normal;font-size:4.22835px;font-family:'CMU Serif';-inkscape-font-specification:'CMU Serif';stroke-width:0.11326"
         y="51.88636"
         x="246.79742"
         id="tspan960-3-8-7-9"
         sodipodi:role="line">(Hyperedge)</tspan></text>
    <text
       xml:space="preserve"
       style="font-size:3.36468px;font-family:'CMU Sans Serif';-inkscape-font-specification:'CMU Sans Serif';stroke-width:0.090125"
       x="323.91629"
       y="40.680828"
       id="text962-6-3-6-0-2"><tspan
         id="tspan1761"
         sodipodi:role="line"
         x="323.91629"
         y="40.680828"
         style="font-style:normal;font-variant:normal;font-weight:normal;font-stretch:normal;font-size:3.36468px;font-family:'CMU Serif';-inkscape-font-specification:'CMU Serif';stroke-width:0.090125">Feature </tspan><tspan
         sodipodi:role="line"
         x="323.91629"
         y="44.886677"
         style="font-style:normal;font-variant:normal;font-weight:normal;font-stretch:normal;font-size:3.36468px;font-family:'CMU Serif';-inkscape-font-specification:'CMU Serif';stroke-width:0.090125"
         id="tspan393">Homogenization</tspan></text>
    <text
       id="text962-6-3-6-0-2-4"
       y="6.3901358"
       x="324.33533"
       style="font-size:3.5577px;font-family:'CMU Sans Serif';-inkscape-font-specification:'CMU Sans Serif';stroke-width:0.0952947"
       xml:space="preserve"><tspan
         style="font-style:normal;font-variant:normal;font-weight:normal;font-stretch:normal;font-size:3.5577px;font-family:'CMU Serif';-inkscape-font-specification:'CMU Serif';stroke-width:0.0952947"
         y="6.3901358"
         x="324.33533"
         sodipodi:role="line"
         id="tspan1761-7">Heterograph</tspan><tspan
         style="font-style:normal;font-variant:normal;font-weight:normal;font-stretch:normal;font-size:3.5577px;font-family:'CMU Serif';-inkscape-font-specification:'CMU Serif';stroke-width:0.0952947"
         y="10.83726"
         x="324.33533"
         sodipodi:role="line"
         id="tspan391">Network</tspan></text>
    <text
       id="text962-6-3-6-0-2-2"
       y="56.718948"
       x="324.806"
       style="font-size:3.36469px;font-family:'CMU Sans Serif';-inkscape-font-specification:'CMU Sans Serif';stroke-width:0.0901249"
       xml:space="preserve"><tspan
         style="font-style:normal;font-variant:normal;font-weight:normal;font-stretch:normal;font-size:3.36469px;font-family:'CMU Serif';-inkscape-font-specification:'CMU Serif';stroke-width:0.0901249"
         y="56.718948"
         x="324.806"
         sodipodi:role="line"
         id="tspan1761-8">MPNN</tspan></text>
    <text
       xml:space="preserve"
       style="font-size:5.36272px;font-family:'CMU Sans Serif';-inkscape-font-specification:'CMU Sans Serif';stroke-width:0.143643"
       x="327.35959"
       y="50.990196"
       id="text962-6-3-6-0-2-2-3"><tspan
         id="tspan1761-8-4"
         sodipodi:role="line"
         x="327.35959"
         y="50.990196"
         style="font-style:normal;font-variant:normal;font-weight:normal;font-stretch:normal;font-size:5.36272px;font-family:'CMU Serif';-inkscape-font-specification:'CMU Serif';stroke-width:0.143643">+</tspan></text>
    <text
       xml:space="preserve"
       style="font-size:6.19512px;font-family:'CMU Sans Serif';-inkscape-font-specification:'CMU Sans Serif';stroke-width:0.16594"
       x="36.669586"
       y="61.483505"
       id="text962-0"><tspan
         sodipodi:role="line"
         id="tspan960-2"
         x="36.669586"
         y="61.483505"
         style="font-style:normal;font-variant:normal;font-weight:normal;font-stretch:normal;font-size:6.19512px;font-family:'CMU Serif';-inkscape-font-specification:'CMU Serif';stroke-width:0.16594">Structure</tspan></text>
    <path
       id="path932-6"
       d="m 147.93084,25.125936 h 14.81343"
       style="fill:none;stroke:#000000;stroke-width:0.244794;stroke-linecap:butt;stroke-linejoin:miter;stroke-miterlimit:4;stroke-dasharray:none;stroke-opacity:1;marker-end:url(#Arrow1Lend-9)" />
    <path
       style="fill:none;stroke:#000000;stroke-width:0.244794;stroke-linecap:butt;stroke-linejoin:miter;stroke-miterlimit:4;stroke-dasharray:none;stroke-opacity:1;marker-end:url(#Arrow1Lend-9-0)"
       d="m 225.19902,24.418533 h 14.81343"
       id="path932-6-0" />
    <path
       inkscape:original-d="m 255.97066,37.15259 c 4.63767,-8.23766 9.2751,-16.47557 13.91226,-24.71374"
       inkscape:path-effect="#path-effect359"
       id="path1894"
       d="M 255.97066,37.15259 269.88292,12.43885"
       style="fill:none;stroke:#a1a1a1;stroke-width:1.8475;stroke-linecap:butt;stroke-linejoin:miter;stroke-miterlimit:4;stroke-dasharray:none;stroke-opacity:1" />
    <path
       inkscape:original-d="m 256.05707,37.06619 c 9.13108,-0.0285 18.26188,-0.0574 27.39241,-0.0864"
       inkscape:path-effect="#path-effect357"
       id="path1936"
       d="m 256.05707,37.06619 27.39241,-0.0864"
       style="fill:none;stroke:#a1a1a1;stroke-width:1.8475;stroke-linecap:butt;stroke-linejoin:miter;stroke-miterlimit:4;stroke-dasharray:none;stroke-opacity:1" />
    <path
       inkscape:original-d="m 269.79652,12.52526 c 4.49362,7.97893 8.9294,15.95761 13.39373,23.93604"
       inkscape:path-effect="#path-effect355"
       id="path1940"
       d="M 269.79652,12.52526 283.19025,36.4613"
       style="fill:none;stroke:#a1a1a1;stroke-width:1.8475;stroke-linecap:butt;stroke-linejoin:miter;stroke-miterlimit:4;stroke-dasharray:none;stroke-opacity:1" />
    <circle
       id="path852-1-4-0-7-1"
       style="opacity:1;fill:#b3b3b3;fill-opacity:1;stroke:none;stroke-width:6.30603"
       cx="269.88293"
       cy="13.648923"
       r="7.8825393" />
    <circle
       r="7.8825393"
       cy="37.239193"
       cx="255.97064"
       style="opacity:1;fill:#b3b3b3;fill-opacity:1;stroke:none;stroke-width:6.30603"
       id="path852-1-4-0-7-1-2" />
    <circle
       r="7.8825393"
       cy="36.375061"
       cx="282.84473"
       style="opacity:1;fill:#b3b3b3;fill-opacity:1;stroke:none;stroke-width:6.30603"
       id="path852-1-4-0-7-1-8" />
    <path
       id="path852-1-2-9-4-6-0"
       style="fill:none;stroke:#000000;stroke-width:0.150245;stroke-miterlimit:4;stroke-dasharray:none;stroke-opacity:1"
       d="m 290.12181,36.19446 c 0,0.667321 -0.35249,1.74335 -1.43638,2.221751 -1.40277,0.619138 -3.82935,0.550328 -6.21235,0.550328 -2.04322,0 -3.43555,0.074 -4.80754,-0.39905 -1.46451,-0.505 -1.8805,-1.45006 -1.8805,-2.240539 0,-0.494541 0.35734,-1.555121 0.98351,-1.95711 1.31231,-0.84246 2.84481,-0.947481 5.70453,-0.947481 2.43254,0 4.73236,-0.0853 6.13327,0.556101 1.03188,0.47248 1.51546,1.566619 1.51546,2.216"
       sodipodi:nodetypes="csssssssc" />
    <circle
       id="path852-1-2-9-4-0"
       style="fill:none;stroke:#000000;stroke-width:0.16558;stroke-miterlimit:4;stroke-dasharray:none;stroke-opacity:1"
       cx="255.87244"
       cy="37.137817"
       r="3.2182631" />
    <path
       id="path852-1-2-9-4-6-1-4-9"
       style="fill:none;stroke:#000000;stroke-width:0.0943094;stroke-miterlimit:4;stroke-dasharray:none;stroke-opacity:1"
       d="m 276.44833,13.19998 c 0.0208,1.57718 -0.56226,1.64201 -0.56226,1.64201 -0.35832,0.28336 -2.82242,0.26769 -3.29719,0.47724 -0.27677,0.12214 0.25316,2.21343 -0.2773,3.45717 -0.41994,0.98464 -1.89254,1.18974 -2.23313,1.20894 -0.40864,0.0229 -1.52188,-0.31742 -1.84274,-1.25883 -0.40258,-1.18114 -0.0115,-3.02178 -0.57183,-3.02178 -1.58564,0 -2.52059,0.11982 -3.58532,-0.2473 -1.13652,-0.3919 -1.31379,-1.39563 -1.31379,-2.00906 0,-0.38378 0.21492,-1.22764 0.70086,-1.5396 1.01841,-0.65378 1.875,-1.15116 4.09429,-1.15116 0.39818,0 -0.0151,-1.5948898 0.373,-2.3437498 0.48019,-0.9267 1.75645,-1.04397 2.18926,-1.02366 0.39114,0.0184 1.42627,0.21017 1.78987,1.10746 0.4503,1.11129 -0.0972,2.6916398 0.22038,2.8370698 0.52349,0.2397 2.82266,-0.003 3.28158,0.33966 0.27205,0.20301 1.10766,0.42028 1.03432,1.52559"
       sodipodi:nodetypes="csssssssssssssssc" />
    <path
       sodipodi:nodetypes="csssc"
       style="fill:none;stroke:#000000;stroke-width:0.207825;stroke-linecap:butt;stroke-linejoin:miter;stroke-miterlimit:4;stroke-dasharray:none;stroke-opacity:1;marker-end:url(#Arrow1Lend-1-2-7-9)"
       d="m 302.10875,24.486777 c 0,0 0,0 5.36352,0.124564 2.94666,0.0684 1.19893,-9.66367 2.27014,-12.40729 1.40668,-3.6028135 3.60377,-4.5850072 4.71861,-4.6609115 2.89843,-0.1973325 6.33846,-0.2464674 6.33846,-0.2464674"
       id="path932-9-3-5-7" />
    <path
       id="path932-9-3-5-9-4"
       d="m 302.1393,24.596882 5.33297,0.117652 c 2.94681,0.06501 1.19893,9.663677 2.27014,12.407297 1.40668,3.602813 3.60377,4.585007 4.71861,4.660911 2.89843,0.197333 6.33846,0.246468 6.33846,0.246468"
       style="fill:none;stroke:#000000;stroke-width:0.207825;stroke-linecap:butt;stroke-linejoin:miter;stroke-miterlimit:4;stroke-dasharray:none;stroke-opacity:1;marker-end:url(#Arrow1Lend-1-2-7-2-2)"
       sodipodi:nodetypes="csssc" />
  </g>
</svg>
