<?xml version="1.0" encoding="UTF-8" standalone="no"?>
<svg
   xmlns:dc="http://purl.org/dc/elements/1.1/"
   xmlns:cc="http://creativecommons.org/ns#"
   xmlns:rdf="http://www.w3.org/1999/02/22-rdf-syntax-ns#"
   xmlns:svg="http://www.w3.org/2000/svg"
   xmlns="http://www.w3.org/2000/svg"
   xmlns:sodipodi="http://sodipodi.sourceforge.net/DTD/sodipodi-0.dtd"
   xmlns:inkscape="http://www.inkscape.org/namespaces/inkscape"
   sodipodi:docname="functionvectors.svg"
   inkscape:version="1.0 (4035a4fb49, 2020-05-01)"
   id="svg8"
   version="1.1"
   viewBox="0 0 103.2321 141.52623"
   height="141.52623mm"
   width="103.23211mm">
  <defs
     id="defs2">
    <inkscape:path-effect
       only_selected="false"
       apply_with_weight="true"
       apply_no_weight="true"
       helper_size="0"
       steps="2"
       weight="33.333333"
       lpeversion="1"
       is_visible="true"
       id="path-effect2112"
       effect="bspline" />
    <inkscape:path-effect
       effect="bspline"
       id="path-effect1931"
       is_visible="true"
       lpeversion="1"
       weight="33.333333"
       steps="2"
       helper_size="0"
       apply_no_weight="true"
       apply_with_weight="true"
       only_selected="false" />
    <inkscape:path-effect
       only_selected="false"
       apply_with_weight="true"
       apply_no_weight="true"
       helper_size="0"
       steps="2"
       weight="33.333333"
       lpeversion="1"
       is_visible="true"
       id="path-effect1876"
       effect="bspline" />
    <inkscape:path-effect
       effect="bspline"
       id="path-effect1833"
       is_visible="true"
       lpeversion="1"
       weight="33.333333"
       steps="2"
       helper_size="0"
       apply_no_weight="true"
       apply_with_weight="true"
       only_selected="false" />
    <inkscape:path-effect
       effect="bspline"
       id="path-effect1824"
       is_visible="true"
       lpeversion="1"
       weight="33.333333"
       steps="2"
       helper_size="0"
       apply_no_weight="true"
       apply_with_weight="true"
       only_selected="false" />
    <marker
       inkscape:stockid="Arrow1Mend"
       orient="auto"
       refY="0"
       refX="0"
       id="marker1469"
       style="overflow:visible"
       inkscape:isstock="true">
      <path
         id="path1467"
         d="M 0,0 5,-5 -12.5,0 5,5 Z"
         style="fill:#000000;fill-opacity:1;fill-rule:evenodd;stroke:#000000;stroke-width:1pt;stroke-opacity:1"
         transform="matrix(-0.4,0,0,-0.4,-4,0)" />
    </marker>
    <marker
       inkscape:stockid="Arrow1Mend"
       orient="auto"
       refY="0"
       refX="0"
       id="marker1459"
       style="overflow:visible"
       inkscape:isstock="true">
      <path
         id="path1457"
         d="M 0,0 5,-5 -12.5,0 5,5 Z"
         style="fill:#000000;fill-opacity:1;fill-rule:evenodd;stroke:#000000;stroke-width:1pt;stroke-opacity:1"
         transform="matrix(-0.4,0,0,-0.4,-4,0)" />
    </marker>
    <marker
       inkscape:stockid="Arrow1Mend"
       orient="auto"
       refY="0"
       refX="0"
       id="marker1449"
       style="overflow:visible"
       inkscape:isstock="true">
      <path
         id="path1447"
         d="M 0,0 5,-5 -12.5,0 5,5 Z"
         style="fill:#000000;fill-opacity:1;fill-rule:evenodd;stroke:#000000;stroke-width:1pt;stroke-opacity:1"
         transform="matrix(-0.4,0,0,-0.4,-4,0)" />
    </marker>
    <marker
       inkscape:stockid="Arrow1Lend"
       orient="auto"
       refY="0"
       refX="0"
       id="marker1245"
       style="overflow:visible"
       inkscape:isstock="true">
      <path
         id="path1243"
         d="M 0,0 5,-5 -12.5,0 5,5 Z"
         style="fill:#000000;fill-opacity:1;fill-rule:evenodd;stroke:#000000;stroke-width:1pt;stroke-opacity:1"
         transform="matrix(-0.8,0,0,-0.8,-10,0)" />
    </marker>
    <marker
       inkscape:stockid="Arrow1Lend"
       orient="auto"
       refY="0"
       refX="0"
       id="marker1235"
       style="overflow:visible"
       inkscape:isstock="true">
      <path
         id="path1233"
         d="M 0,0 5,-5 -12.5,0 5,5 Z"
         style="fill:#000000;fill-opacity:1;fill-rule:evenodd;stroke:#000000;stroke-width:1pt;stroke-opacity:1"
         transform="matrix(-0.8,0,0,-0.8,-10,0)" />
    </marker>
    <marker
       inkscape:stockid="Arrow1Lend"
       orient="auto"
       refY="0"
       refX="0"
       id="marker1225"
       style="overflow:visible"
       inkscape:isstock="true">
      <path
         id="path1223"
         d="M 0,0 5,-5 -12.5,0 5,5 Z"
         style="fill:#000000;fill-opacity:1;fill-rule:evenodd;stroke:#000000;stroke-width:1pt;stroke-opacity:1"
         transform="matrix(-0.8,0,0,-0.8,-10,0)" />
    </marker>
    <marker
       inkscape:stockid="Arrow1Lstart"
       orient="auto"
       refY="0"
       refX="0"
       id="marker1171"
       style="overflow:visible"
       inkscape:isstock="true">
      <path
         id="path1169"
         d="M 0,0 5,-5 -12.5,0 5,5 Z"
         style="fill:#000000;fill-opacity:1;fill-rule:evenodd;stroke:#000000;stroke-width:1pt;stroke-opacity:1"
         transform="matrix(0.8,0,0,0.8,10,0)" />
    </marker>
    <marker
       inkscape:stockid="Arrow1Lstart"
       orient="auto"
       refY="0"
       refX="0"
       id="marker1161"
       style="overflow:visible"
       inkscape:isstock="true">
      <path
         id="path1159"
         d="M 0,0 5,-5 -12.5,0 5,5 Z"
         style="fill:#000000;fill-opacity:1;fill-rule:evenodd;stroke:#000000;stroke-width:1pt;stroke-opacity:1"
         transform="matrix(0.8,0,0,0.8,10,0)" />
    </marker>
    <marker
       inkscape:stockid="Arrow1Lstart"
       orient="auto"
       refY="0"
       refX="0"
       id="marker1151"
       style="overflow:visible"
       inkscape:isstock="true">
      <path
         id="path1149"
         d="M 0,0 5,-5 -12.5,0 5,5 Z"
         style="fill:#000000;fill-opacity:1;fill-rule:evenodd;stroke:#000000;stroke-width:1pt;stroke-opacity:1"
         transform="matrix(0.8,0,0,0.8,10,0)" />
    </marker>
    <inkscape:path-effect
       only_selected="false"
       apply_with_weight="true"
       apply_no_weight="true"
       helper_size="0"
       steps="2"
       weight="33.333333"
       lpeversion="1"
       is_visible="true"
       id="path-effect877"
       effect="bspline" />
    <inkscape:path-effect
       effect="bspline"
       id="path-effect858"
       is_visible="true"
       lpeversion="1"
       weight="33.333333"
       steps="2"
       helper_size="0"
       apply_no_weight="true"
       apply_with_weight="true"
       only_selected="false" />
    <inkscape:path-effect
       only_selected="false"
       apply_with_weight="true"
       apply_no_weight="true"
       helper_size="0"
       steps="2"
       weight="33.333333"
       lpeversion="1"
       is_visible="true"
       id="path-effect839"
       effect="bspline" />
    <inkscape:path-effect
       only_selected="false"
       apply_with_weight="true"
       apply_no_weight="true"
       helper_size="0"
       steps="2"
       weight="33.333333"
       lpeversion="1"
       is_visible="true"
       id="path-effect835"
       effect="bspline" />
  </defs>
  <sodipodi:namedview
     fit-margin-bottom="0"
     fit-margin-right="0"
     fit-margin-left="0"
     fit-margin-top="0"
     inkscape:window-maximized="1"
     inkscape:window-y="-11"
     inkscape:window-x="-11"
     inkscape:window-height="1046"
     inkscape:window-width="1920"
     inkscape:snap-global="false"
     showgrid="false"
     inkscape:document-rotation="0"
     inkscape:current-layer="layer1"
     inkscape:document-units="mm"
     inkscape:cy="309.52716"
     inkscape:cx="254.75181"
     inkscape:zoom="0.98994949"
     inkscape:pageshadow="2"
     inkscape:pageopacity="0.0"
     borderopacity="1.0"
     bordercolor="#666666"
     pagecolor="#ffffff"
     id="base" />
  <metadata
     id="metadata5">
    <rdf:RDF>
      <cc:Work
         rdf:about="">
        <dc:format>image/svg+xml</dc:format>
        <dc:type
           rdf:resource="http://purl.org/dc/dcmitype/StillImage" />
        <dc:title></dc:title>
      </cc:Work>
    </rdf:RDF>
  </metadata>
  <g
     transform="translate(15.022407,-47.14994)"
     id="layer1"
     inkscape:groupmode="layer"
     inkscape:label="Layer 1">
    <path
       sodipodi:nodetypes="cccccccc"
       inkscape:original-d="M -14.729614,161.93705 C -9.4144167,106.52624 -4.0993751,51.114564 1.2155156,-4.2980177 7.1702084,74.618097 13.124491,153.53022 19.078723,232.44296 25.07395,189.08122 31.143298,145.18102 37.063455,102.35758 c 5.040589,12.59022 10.207906,25.4971 15.311316,38.2445 3.483629,-6.50112 6.967033,-13.0026 10.450584,-19.50511 4.172606,5.17968 8.344529,10.35839 12.5164,15.5369 4.173075,-2.40428 8.345928,-4.80896 12.518799,-7.21411"
       inkscape:path-effect="#path-effect835"
       id="path833"
       d="M -14.729614,161.93705 C -9.414653,106.52622 -4.099611,51.114541 1.5352465,62.866323 7.1701039,74.618105 13.12439,153.53023 19.099011,171.3057 c 5.974621,17.77548 12.043969,-26.12472 17.524479,-41.2413 5.48051,-15.11658 10.647824,-2.2097 14.941206,0.91334 4.293383,3.12305 7.77679,-3.37843 11.605058,-4.03979 3.828269,-0.66135 8.000194,4.51736 12.172526,5.90431 4.172331,1.38695 8.345194,-1.01771 12.518274,-3.4225"
       style="fill:none;stroke:#000000;stroke-width:0.385714px;stroke-linecap:butt;stroke-linejoin:miter;stroke-opacity:1" />
    <path
       inkscape:transform-center-y="-47.694822"
       inkscape:transform-center-x="-19.384536"
       style="fill:none;stroke:#000000;stroke-width:0.678455;stroke-linecap:butt;stroke-linejoin:miter;stroke-miterlimit:4;stroke-dasharray:none;stroke-opacity:1;marker-end:url(#marker1449)"
       d="M -14.708144,160.77209 C -1.7744266,128.94922 11.159289,97.126355 24.093017,65.30346"
       id="path837-9"
       inkscape:path-effect="#path-effect858"
       inkscape:original-d="M -14.708144,160.77209 C -1.7737639,128.94949 11.159957,97.126626 24.093017,65.30346" />
    <path
       style="fill:none;stroke:#000000;stroke-width:0.385715px;stroke-linecap:butt;stroke-linejoin:miter;stroke-opacity:1"
       d="M -14.676234,161.38409 C -9.3556719,102.33273 -4.0350231,43.280413 1.6026372,53.211853 7.2402975,63.143293 13.194579,142.05535 19.169204,159.83083 c 5.974624,17.77548 12.043978,-26.12473 17.524477,-41.36735 5.480499,-15.24261 10.647897,-2.59399 14.941235,0.19868 4.293338,2.79266 7.776834,-4.1144 11.605066,-5.10608 3.828233,-0.99169 8.000347,3.93202 12.207963,5.612 4.207616,1.67998 8.451402,0.11672 12.695092,-1.4465"
       id="path833-5"
       inkscape:path-effect="#path-effect1824"
       inkscape:original-d="M -14.676234,161.38409 C -9.3553708,102.33276 -4.0347216,43.28044 1.2857088,-15.772829 7.2404017,63.143285 13.194686,142.05534 19.148913,220.96809 25.144149,177.60635 31.213496,133.70614 37.133651,90.882782 c 5.04064,12.338038 10.208035,24.986668 15.311322,37.478678 3.483652,-6.90645 6.967138,-13.81352 10.450593,-20.7214 4.172619,4.92436 8.344739,9.84806 12.5164,14.77118 4.243748,-1.56277 12.731071,-4.68966 12.731071,-4.68966"
       sodipodi:nodetypes="cccccccc" />
    <path
       style="fill:none;stroke:#000000;stroke-width:0.385715px;stroke-linecap:butt;stroke-linejoin:miter;stroke-opacity:1"
       d="M -14.727131,162.35398 C -9.3877822,111.14169 -4.0483431,59.928529 1.5987114,73.779616 7.2457658,87.630702 13.200055,166.54288 19.174675,184.31836 c 5.97462,17.77549 12.043969,-26.12473 17.524481,-41.36736 5.480513,-15.24262 10.647906,-2.59397 14.941234,0.52901 4.293327,3.12298 7.776816,-3.12341 11.605053,-3.78472 3.828237,-0.66131 8.000271,4.26229 12.172555,5.52157 4.172285,1.25928 8.345133,-1.14538 12.518213,-3.55017"
       id="path833-9"
       inkscape:path-effect="#path-effect1833"
       inkscape:original-d="M -14.727131,162.35398 C -9.3874772,111.14172 -4.0480368,59.928561 1.2911789,8.7145761 7.2458718,87.630694 13.200158,166.54287 19.154387,245.45563 c 5.995226,-43.36174 12.064577,-87.26196 17.984732,-130.08541 5.040632,12.33813 10.208027,24.98678 15.311322,37.47877 3.483661,-6.24579 6.967143,-12.49218 10.450579,-18.73936 4.17262,4.92438 8.344662,9.84798 12.516405,14.77118 4.173075,-2.40429 8.345928,-4.80894 12.518786,-7.21412"
       sodipodi:nodetypes="cccccccc" />
    <path
       sodipodi:nodetypes="ccccccccccc"
       inkscape:original-d="m -14.763221,162.59411 c 0,0 10.6589641,-118.866139 15.9882181,-178.300609 C 7.1796926,63.209617 13.133972,142.12167 19.088198,221.03443 25.083433,177.67269 31.152781,133.77247 37.072937,90.949114 c 5.040633,12.338026 10.208029,24.986656 15.311315,37.478696 3.483661,-6.90647 6.967148,-13.81355 10.450593,-20.72141 4.17262,4.92436 8.344748,9.84805 12.516401,14.77119 4.243747,-1.5628 12.731066,-4.68969 12.731066,-4.68969 L 87.950909,47.70875 -14.406962,47.14994 Z"
       inkscape:path-effect="#path-effect1876"
       id="path833-5-8"
       d="M -14.763221,162.59411 C -9.433815,103.16057 -4.1044908,43.72795 1.5375469,53.468788 7.1795846,63.209625 13.133865,142.12168 19.108489,159.89716 c 5.974624,17.77549 12.043979,-26.12473 17.524473,-41.36735 5.480495,-15.24262 10.647888,-2.59399 14.941234,0.19867 4.293345,2.79267 7.776845,-4.1144 11.605071,-5.10607 3.828226,-0.99167 8.000337,3.93203 12.207958,5.61201 4.207622,1.67997 8.451398,0.11671 12.695087,-1.44652 0,0 -0.131403,-70.07915 -0.131403,-70.07915 0,0 -102.357871,-0.55881 -102.357871,-0.55881 0,0 -0.356259,115.44417 -0.356259,115.44417 z"
       style="fill:#adadad;fill-opacity:0.308594;stroke:none;stroke-width:0.385715px;stroke-linecap:butt;stroke-linejoin:miter;stroke-opacity:1" />
    <path
       style="fill:#00c516;fill-opacity:0.2734375;stroke:none;stroke-width:0.385714px;stroke-linecap:butt;stroke-linejoin:miter;stroke-opacity:1"
       d="M -14.766273,160.80065 C -9.5331211,106.01616 -4.3000518,51.23253 1.2938594,63.297914 6.8877706,75.363298 12.842053,154.27538 18.816676,172.05087 c 5.974622,17.77549 12.043978,-26.12476 17.524475,-41.36738 5.480497,-15.24262 10.647889,-2.59398 14.941236,0.4664 4.293346,3.06038 7.776836,-3.31121 11.526311,-4.01938 3.749474,-0.70818 7.764082,4.247 12.059888,5.65927 4.295805,1.41226 8.873513,-0.718 13.451081,-2.84819 0,0 -0.66057,-82.330784 -0.66057,-82.330784 0,0 -102.357871,-0.558809 -102.357871,-0.558809 0,0 -0.0675,113.748653 -0.0675,113.748653 z"
       id="path833-5-8-1"
       inkscape:path-effect="#path-effect1931"
       inkscape:original-d="m -14.766273,160.80065 c 0,0 10.4664576,-109.568097 15.69945585,-164.3534782 C 6.8878793,75.36329 12.842156,154.27537 18.796387,233.18814 24.791619,189.8264 30.860971,145.92615 36.781121,103.10278 c 5.040637,12.33805 10.208032,24.98668 15.311319,37.47872 3.483608,-6.37106 6.9671,-12.74265 10.450593,-19.115 4.01517,4.95581 8.029777,9.91099 12.043931,14.86567 4.577575,-2.12981 13.732703,-6.39058 13.732703,-6.39058 L 87.659097,47.610806 -14.698774,47.051997 Z"
       sodipodi:nodetypes="ccccccccccc" />
    <path
       inkscape:transform-center-y="-33.229776"
       inkscape:original-d="M -14.717681,161.5256 C 5.9110508,139.35471 26.539259,117.1832 47.166928,95.011018"
       inkscape:path-effect="#path-effect877"
       id="path837-9-2"
       d="M -14.717681,161.5256 C 5.9104495,139.35415 26.538646,117.18263 47.166928,95.011018"
       style="fill:none;stroke:#000000;stroke-width:0.678455;stroke-linecap:butt;stroke-linejoin:miter;stroke-miterlimit:4;stroke-dasharray:none;stroke-opacity:1;marker-end:url(#marker1459)"
       inkscape:transform-center-x="-30.916713" />
    <path
       sodipodi:nodetypes="ccccccccccc"
       inkscape:original-d="m -15.101137,163.55649 c 0,0 11.53558,-103.242742 17.3030728,-154.8654015 C 7.4885743,87.518103 12.774629,166.34009 18.060619,245.16479 c 6.663383,-43.27265 13.409211,-87.08272 19.989256,-129.8181 4.952677,12.47001 10.029869,25.25395 15.044048,37.87962 3.394545,-6.54927 6.788924,-13.09899 10.183326,-19.64953 3.881528,5.04491 7.762495,10.08917 11.643022,15.13293 4.39941,-2.35252 13.198171,-7.05875 13.198171,-7.05875 L 88.25968,47.411246 -14.900003,47.253342 Z"
       inkscape:path-effect="#path-effect2112"
       id="path833-5-8-1-6"
       d="M -15.101137,163.55649 C -9.3334461,111.93469 -3.5658475,60.313716 1.9612406,73.915918 7.4883288,87.518119 12.774383,166.34011 18.749044,184.1161 c 5.97466,17.77599 12.720489,-26.03408 18.486929,-41.16671 5.76644,-15.13263 10.843634,-2.3487 15.047907,0.6894 4.204273,3.03809 7.598651,-3.51163 11.236755,-4.26435 3.638105,-0.75272 7.519073,4.29154 11.658975,5.63699 4.139902,1.34544 8.539442,-1.00755 12.938832,-3.36047 0,0 0.141238,-94.239714 0.141238,-94.239714 0,0 -103.159683,-0.157904 -103.159683,-0.157904 0,0 -0.201134,116.303148 -0.201134,116.303148 z"
       style="fill:#00c516;fill-opacity:0.273438;stroke:none;stroke-width:0.385715px;stroke-linecap:butt;stroke-linejoin:miter;stroke-opacity:1" />
    <path
       inkscape:original-d="m -14.723096,162.27537 c 24.986355,-9.50967 49.97239,-19.02019 74.958103,-28.53161"
       inkscape:path-effect="#path-effect839"
       id="path837"
       d="M -14.723096,162.27537 C 10.26293,152.76484 35.24896,143.2543 60.235007,133.74376"
       style="fill:none;stroke:#000000;stroke-width:0.678455;stroke-linecap:butt;stroke-linejoin:miter;stroke-miterlimit:4;stroke-dasharray:none;stroke-opacity:1;marker-end:url(#marker1469)" />
    <rect
       y="32.717384"
       x="-48.431099"
       height="181.476"
       width="175.86334"
       id="rect2126"
       style="opacity:0.811688;fill:#000000;fill-opacity:0.2734375;stroke:none;stroke-width:0.559001;stroke-miterlimit:4;stroke-dasharray:none" />
  </g>
</svg>
