<?xml version="1.0" encoding="UTF-8" standalone="no"?>
<!-- Created with Inkscape (http://www.inkscape.org/) -->

<svg
   width="132.25101mm"
   height="110.421mm"
   viewBox="0 0 132.25101 110.421"
   version="1.1"
   id="svg5"
   xml:space="preserve"
   inkscape:version="1.2.2 (b0a8486, 2022-12-01)"
   sodipodi:docname="perturbation.svg"
   xmlns:inkscape="http://www.inkscape.org/namespaces/inkscape"
   xmlns:sodipodi="http://sodipodi.sourceforge.net/DTD/sodipodi-0.dtd"
   xmlns="http://www.w3.org/2000/svg"
   xmlns:svg="http://www.w3.org/2000/svg"><sodipodi:namedview
     id="namedview7"
     pagecolor="#ffffff"
     bordercolor="#000000"
     borderopacity="0.25"
     inkscape:showpageshadow="2"
     inkscape:pageopacity="0.0"
     inkscape:pagecheckerboard="0"
     inkscape:deskcolor="#d1d1d1"
     inkscape:document-units="mm"
     showgrid="false"
     inkscape:zoom="0.52832446"
     inkscape:cx="221.45482"
     inkscape:cy="318.9328"
     inkscape:window-width="1512"
     inkscape:window-height="945"
     inkscape:window-x="0"
     inkscape:window-y="37"
     inkscape:window-maximized="0"
     inkscape:current-layer="g1956" /><defs
     id="defs2"><inkscape:path-effect
       effect="bspline"
       id="path-effect1746"
       is_visible="true"
       lpeversion="1"
       weight="33.333333"
       steps="2"
       helper_size="0"
       apply_no_weight="true"
       apply_with_weight="true"
       only_selected="false" /><inkscape:path-effect
       effect="bspline"
       id="path-effect1742"
       is_visible="true"
       lpeversion="1"
       weight="33.333333"
       steps="2"
       helper_size="0"
       apply_no_weight="true"
       apply_with_weight="true"
       only_selected="false" /><inkscape:path-effect
       effect="bspline"
       id="path-effect350"
       is_visible="true"
       lpeversion="1"
       weight="33.333333"
       steps="2"
       helper_size="0"
       apply_no_weight="true"
       apply_with_weight="true"
       only_selected="false" /><inkscape:path-effect
       effect="bspline"
       id="path-effect1746-6"
       is_visible="true"
       lpeversion="1"
       weight="33.333333"
       steps="2"
       helper_size="0"
       apply_no_weight="true"
       apply_with_weight="true"
       only_selected="false" /><inkscape:path-effect
       effect="bspline"
       id="path-effect1746-9"
       is_visible="true"
       lpeversion="1"
       weight="33.333333"
       steps="2"
       helper_size="0"
       apply_no_weight="true"
       apply_with_weight="true"
       only_selected="false" /><inkscape:path-effect
       effect="bspline"
       id="path-effect1746-9-7"
       is_visible="true"
       lpeversion="1"
       weight="33.333333"
       steps="2"
       helper_size="0"
       apply_no_weight="true"
       apply_with_weight="true"
       only_selected="false" /><inkscape:path-effect
       effect="bspline"
       id="path-effect1746-5"
       is_visible="true"
       lpeversion="1"
       weight="33.333333"
       steps="2"
       helper_size="0"
       apply_no_weight="true"
       apply_with_weight="true"
       only_selected="false" /><inkscape:path-effect
       effect="bspline"
       id="path-effect1746-9-6"
       is_visible="true"
       lpeversion="1"
       weight="33.333333"
       steps="2"
       helper_size="0"
       apply_no_weight="true"
       apply_with_weight="true"
       only_selected="false" /><inkscape:path-effect
       effect="bspline"
       id="path-effect1746-9-7-2"
       is_visible="true"
       lpeversion="1"
       weight="33.333333"
       steps="2"
       helper_size="0"
       apply_no_weight="true"
       apply_with_weight="true"
       only_selected="false" /></defs><g
     inkscape:label="Layer 1"
     inkscape:groupmode="layer"
     id="layer1"
     transform="translate(-12.69046,-26.470684)"><g
       id="g1956"><path
         style="fill:none;stroke:#000000;stroke-width:0.391135"
         d="M -8.668013,103.93067 C 3.8334374,73.090496 16.334788,42.250569 23.439037,40.503156 c 7.104249,-1.747412 8.810518,25.597379 15.605403,32.364638 6.794885,6.767259 18.67783,-7.043209 27.113721,-6.789206 8.435892,0.254003 13.423305,14.572482 19.370524,17.832708 5.947218,3.260226 12.854296,-4.537428 18.684095,-5.063259 5.82979,-0.525831 10.58138,6.219849 16.46917,7.806897 5.88778,1.587049 12.91168,-1.98402 18.37009,-1.571067 5.4584,0.412954 9.35005,4.809572 12.76393,6.811612 3.41389,2.002041 6.34995,1.609695 9.286,1.21735"
         id="path1744"
         inkscape:path-effect="#path-effect1746"
         inkscape:original-d="M -8.668013,103.93067 C 3.8337276,73.090614 16.335081,42.250688 28.836884,11.408803 c 1.706606,27.346928 3.412874,54.691719 5.118988,82.037308 11.883729,-13.81082 23.766674,-27.621288 35.650359,-41.433175 4.987936,14.319615 9.975356,28.638092 14.962539,42.956302 6.907531,-7.797364 13.814592,-15.595033 20.72168,-23.393465 4.75194,6.746562 9.50353,13.492242 14.25506,20.237444 7.02439,-3.570906 14.04829,-7.141975 21.07267,-10.713702 3.89223,4.397331 7.78388,8.793946 11.67541,13.190379 2.93631,-0.392051 5.87237,-0.784397 8.80838,-1.177065"
         sodipodi:nodetypes="cccccccccc" /><path
         style="fill:#c8c8c8;fill-opacity:1;stroke:#000000;stroke-width:0.391135"
         d="M -9.0510236,112.72747 C 3.4504599,81.887206 15.951776,51.047354 23.056026,49.299941 c 7.10425,-1.747414 8.810519,25.597294 15.605413,32.364557 6.794894,6.767262 18.677845,-7.0432 27.113716,-6.789199 8.43587,0.254001 13.423293,14.572477 19.370521,17.832706 5.947227,3.260229 12.854306,-4.537435 18.684094,-5.063267 5.82979,-0.525832 10.58138,6.219851 16.46917,7.806897 5.88779,1.587047 12.91168,-1.984017 18.37009,-1.571063 5.45841,0.412953 9.35005,4.809572 12.76393,6.811618 3.41389,2.00205 6.34996,1.6097 9.28601,1.21735"
         id="path1744-54"
         inkscape:path-effect="#path-effect1746-9"
         inkscape:original-d="M -9.0510236,112.72747 C 3.4507249,81.887313 15.952066,51.047472 28.453868,20.205589 c 1.706606,27.346926 3.412886,54.691633 5.119001,82.037231 11.883729,-13.810832 23.766674,-27.6213 35.650342,-41.433119 4.987956,14.31955 9.975369,28.638029 14.962559,42.956259 6.907521,-7.797382 13.814592,-15.595053 20.72167,-23.393483 4.75194,6.746555 9.50353,13.492241 14.25506,20.237443 7.0244,-3.570911 14.04829,-7.141975 21.07268,-10.713705 3.89223,4.397334 7.78388,8.793947 11.67541,13.190395 2.9363,-0.39206 5.87237,-0.7844 8.80838,-1.17707"
         sodipodi:nodetypes="cccccccccc" /><path
         style="fill:#a74f4f;fill-opacity:1;stroke:#000000;stroke-width:0.391135"
         d="M -9.0530746,121.13297 C 3.4484249,90.292656 15.949736,59.452807 23.053983,57.705393 c 7.104247,-1.747415 8.810514,25.597293 15.60542,32.364562 6.794906,6.76727 18.677846,-7.0432 27.11371,-6.789201 8.435864,0.253999 13.423283,14.572474 19.370522,17.832716 5.947238,3.26024 12.854316,-4.537443 18.684095,-5.063276 5.82978,-0.525832 10.58137,6.219866 16.46916,7.806916 5.8878,1.58706 12.9117,-1.98403 18.3701,-1.57107 5.4584,0.41295 9.35005,4.80959 12.76393,6.81164 3.41389,2.00205 6.34995,1.6097 9.28601,1.21735"
         id="path1744-54-8"
         inkscape:path-effect="#path-effect1746-9-7"
         inkscape:original-d="M -9.0530746,121.13297 C 3.4486809,90.29276 15.950021,59.452923 28.451824,28.611042 30.158429,55.957966 31.86471,83.302673 33.570822,110.64833 45.454554,96.837435 57.337499,83.02697 69.221166,69.215151 c 4.987961,14.31955 9.975374,28.638027 14.962564,42.956309 6.907531,-7.79741 13.814592,-15.595105 20.72167,-23.393532 4.75194,6.746555 9.50353,13.492252 14.25506,20.237492 7.02439,-3.57093 14.04829,-7.14202 21.07267,-10.713755 3.89224,4.397345 7.78389,8.793985 11.67541,13.190435 2.93631,-0.39205 5.87237,-0.7844 8.80839,-1.17707"
         sodipodi:nodetypes="cccccccccc" /><g
         data-mml-node="math"
         id="g3396"
         transform="matrix(0.01625074,-0.00105154,-0.00105154,-0.01625074,-5.9191228,94.424401)"
         style="opacity:1;fill:#000000;stroke:#000000;stroke-width:0"><rect
           style="opacity:1;fill:#c7c7c7;fill-opacity:0.772344;stroke:#000000;stroke-width:16.4585"
           id="rect4331"
           width="11268.78"
           height="10324.996"
           x="341.73773"
           y="-6372.9741"
           transform="matrix(0.99791304,-0.06457217,-0.06457217,-0.99791304,0,0)" /></g><path
         style="fill:#ffffff;fill-opacity:1;stroke:#000000;stroke-width:0.391135"
         d="M -9.4974043,129.37481 C 3.0040588,98.534586 15.505404,67.694654 22.609648,65.947239 c 7.104244,-1.747414 8.81051,25.597371 15.605401,32.364651 6.794891,6.76728 18.677838,-7.043215 27.113722,-6.789213 8.435883,0.254003 13.423299,14.572503 19.370514,17.832743 5.947215,3.26024 12.854304,-4.53745 18.684095,-5.06328 5.82979,-0.52583 10.58139,6.21988 16.46917,7.80693 5.88778,1.58705 12.91168,-1.98402 18.37009,-1.57107 5.45841,0.41295 9.35006,4.80958 12.76394,6.81163 3.41388,2.00205 6.34995,1.6097 9.286,1.21735"
         id="path1744-8"
         inkscape:path-effect="#path-effect1746-5"
         inkscape:original-d="M -9.4974043,129.37481 C 3.0043342,98.534698 15.505688,67.694769 28.007491,36.852891 c 1.706605,27.346921 3.412875,54.691706 5.118988,82.037369 11.883729,-13.81086 23.766676,-27.621355 35.650356,-41.433242 4.987945,14.319618 9.975358,28.638122 14.962548,42.956372 6.907521,-7.79737 13.814592,-15.59508 20.721667,-23.393538 4.75194,6.746588 9.50353,13.492298 14.25506,20.237518 7.0244,-3.5709 14.04829,-7.14199 21.07268,-10.71374 3.89223,4.39735 7.78388,8.79398 11.67541,13.19042 2.9363,-0.39205 5.87237,-0.78439 8.80838,-1.17707"
         sodipodi:nodetypes="cccccccccc" /><path
         style="fill:#c8c8c8;fill-opacity:1;stroke:#000000;stroke-width:0.391135"
         d="M -9.8804153,138.17156 C 2.6210611,107.33131 15.122384,76.491439 22.226633,74.744025 c 7.104249,-1.747414 8.810517,25.597285 15.605404,32.364585 6.794887,6.76729 18.677863,-7.04323 27.113727,-6.78923 8.435865,0.254 13.423308,14.57254 19.370523,17.83277 5.947215,3.26022 12.854288,-4.53745 18.684093,-5.06328 5.8298,-0.52583 10.58139,6.21986 16.46918,7.80691 5.88778,1.58705 12.91167,-1.98401 18.37008,-1.57105 5.45841,0.41295 9.35005,4.80956 12.76393,6.8116 3.41389,2.00204 6.34996,1.60969 9.28601,1.21735"
         id="path1744-54-5"
         inkscape:path-effect="#path-effect1746-9-6"
         inkscape:original-d="M -9.8804153,138.17156 C 2.6213332,107.33142 15.122672,76.491556 27.624475,45.649672 29.33108,72.996599 31.037362,100.3413 32.743477,127.68696 44.627206,113.87614 56.510154,100.0656 68.393813,86.253776 c 4.98797,14.319554 9.97538,28.638104 14.962573,42.956314 6.907521,-7.79736 13.814592,-15.59503 20.721664,-23.39351 4.75194,6.7466 9.50353,13.49229 14.25506,20.23749 7.0244,-3.57091 14.04829,-7.14197 21.07268,-10.7137 3.89223,4.39734 7.78388,8.79394 11.6754,13.19037 2.93631,-0.39205 5.87238,-0.7844 8.80839,-1.17706"
         sodipodi:nodetypes="cccccccccc" /><path
         style="fill:#a74f4f;fill-opacity:1;stroke:#000000;stroke-width:0.391135"
         d="M -9.8824663,146.57705 C 2.619005,115.73681 15.120344,84.896886 22.22459,83.149471 c 7.104246,-1.747414 8.810516,25.597339 15.605406,32.364609 6.794891,6.76727 18.677841,-7.04321 27.113724,-6.78921 8.435884,0.25401 13.423311,14.5725 19.370531,17.83273 5.94722,3.26023 12.8543,-4.53743 18.684089,-5.06326 5.82978,-0.52583 10.58137,6.21985 16.46916,7.8069 5.88779,1.58704 12.91168,-1.98402 18.37009,-1.57107 5.45841,0.41296 9.35006,4.80958 12.76394,6.81162 3.41388,2.00204 6.34995,1.60969 9.286,1.21734"
         id="path1744-54-8-9"
         inkscape:path-effect="#path-effect1746-9-7-2"
         inkscape:original-d="M -9.8824663,146.57705 C 2.6192882,115.73692 15.120628,84.897001 27.622431,54.055123 c 1.706606,27.346921 3.412887,54.691677 5.118998,82.037307 11.883732,-13.81084 23.766678,-27.62133 35.650347,-41.433198 4.987957,14.319598 9.975367,28.638098 14.96257,42.956308 6.907521,-7.79736 13.814592,-15.59503 20.721654,-23.39345 4.75194,6.74655 9.50353,13.49223 14.25506,20.23743 7.0244,-3.57091 14.04829,-7.14197 21.07268,-10.7137 3.89223,4.39733 7.78388,8.79395 11.67541,13.19038 2.9363,-0.39206 5.87237,-0.7844 8.80838,-1.17707"
         sodipodi:nodetypes="cccccccccc" /><g
         data-mml-node="msub"
         transform="matrix(0.03116712,0.00253169,0.00253169,-0.03116712,10.92438,60.162277)"
         id="g3312"
         style="opacity:1;fill:#000000;stroke:#000000;stroke-width:0"><g
           data-mml-node="mi"
           id="g3306"
           transform="matrix(1.3081085,0,0,1.3081085,62.958703,34.880977)"><path
             id="use3304"
             d="m 34,159 q 0,109 86,196 86,87 186,87 56,0 88,-24 32,-24 33,-63 0,-29 -19,-49 -19,-20 -48,-21 -19,0 -30,10 -11,10 -11,30 0,20 11,34 11,14 22,21 11,7 14,6 h 1 q 0,2 -6,6 -6,4 -21,8 -15,4 -34,4 -30,0 -57,-14 -21,-9 -43,-31 -44,-44 -64,-124 -20,-80 -21,-116 0,-46 26,-69 22,-24 58,-24 h 4 q 112,0 185,85 9,10 12,10 4,0 13,-9 9,-9 10,-14 1,-5 -9,-15 Q 410,73 391,55 372,37 346,25 320,13 282,0 244,-13 202,-11 127,-11 81,37 35,85 34,159 Z" /></g><g
           data-mml-node="mn"
           transform="matrix(0.65448361,0,0,0.65448361,633.63789,-163.3133)"
           id="g3310"><path
             id="use3308"
             d="m 96,585 q 56,81 153,81 48,0 96,-26 48,-26 78,-92 37,-83 37,-228 0,-155 -43,-237 -20,-42 -55,-67 -35,-25 -61,-31 -26,-6 -51,-7 -26,0 -52,6 -26,6 -61,32 -35,26 -55,67 -43,82 -43,237 0,174 57,265 z m 225,12 q -30,32 -71,32 -42,0 -72,-32 -25,-26 -33,-72 -8,-46 -8,-192 0,-158 8,-208 8,-50 36,-79 28,-30 69,-30 40,0 68,30 29,30 36,84 7,54 8,203 0,145 -8,191 -8,46 -33,73 z" /></g></g><g
         data-mml-node="mo"
         transform="matrix(0.01173771,9.5344721e-4,9.5344721e-4,-0.01173771,37.755919,74.84054)"
         id="g3316"
         style="opacity:1;fill:#000000;stroke:#000000;stroke-width:0"><path
           id="use3314"
           d="m 56,237 q 0,0 0,13 0,13 14,20 h 299 v 150 l 1,150 q 10,13 19,13 13,0 20,-15 V 270 h 298 q 15,-8 15,-20 0,-12 -15,-20 H 409 V -68 q -8,-14 -18,-14 h -2 -2 q -12,0 -18,14 V 230 H 70 q -14,7 -14,20 z" /></g><g
         data-mml-node="msub"
         transform="matrix(0.02326211,0.00188957,0.00188957,-0.02326211,48.100971,82.737028)"
         id="g3326"
         style="opacity:1;fill:#000000;stroke:#000000;stroke-width:0"><g
           data-mml-node="mi"
           id="g3320"><path
             id="use3318"
             d="m 34,159 q 0,109 86,196 86,87 186,87 56,0 88,-24 32,-24 33,-63 0,-29 -19,-49 -19,-20 -48,-21 -19,0 -30,10 -11,10 -11,30 0,20 11,34 11,14 22,21 11,7 14,6 h 1 q 0,2 -6,6 -6,4 -21,8 -15,4 -34,4 -30,0 -57,-14 -21,-9 -43,-31 -44,-44 -64,-124 -20,-80 -21,-116 0,-46 26,-69 22,-24 58,-24 h 4 q 112,0 185,85 9,10 12,10 4,0 13,-9 9,-9 10,-14 1,-5 -9,-15 Q 410,73 391,55 372,37 346,25 320,13 282,0 244,-13 202,-11 127,-11 81,37 35,85 34,159 Z" /></g><g
           data-mml-node="mn"
           transform="matrix(0.46496387,0,0,0.46496387,454.83702,-156.62121)"
           id="g3324"><path
             id="use3322"
             d="m 213,578 -13,-5 q -14,-5 -40,-10 -26,-5 -58,-7 H 83 v 46 h 19 q 47,2 87,15 40,13 56,24 16,11 28,22 2,3 12,3 9,0 17,-6 V 361 l 1,-300 q 7,-7 12,-9 5,-2 24,-4 19,-2 62,-2 h 26 V 0 H 416 Q 395,3 257,3 121,3 100,0 H 88 v 46 h 26 q 22,0 38,0 16,0 25,1 9,1 16,3 7,2 8,2 1,0 6,5 5,5 6,4 z" /></g></g><g
         data-mml-node="mi"
         transform="matrix(0.02326211,0.00188957,0.00188957,-0.02326211,67.559723,84.317652)"
         id="g3330"
         style="opacity:1;fill:#000000;stroke:#000000;stroke-width:0"><path
           id="use3328"
           d="m 190,-22 q -66,0 -114,33 -48,33 -49,96 0,67 70,125 l 10,7 -8,9 q -23,25 -23,56 0,60 68,104 68,44 146,44 h 12 q 58,0 103,-31 23,-16 23,-29 0,-11 -11,-23 -11,-12 -26,-13 -9,0 -20,9 -11,9 -33,18 -22,9 -55,9 -66,0 -116,-24 -50,-24 -51,-60 0,-19 17,-36 9,-9 12,-10 3,-1 12,2 31,14 81,14 h 5 q 65,0 65,-31 0,-41 -85,-41 -46,0 -81,13 l -10,-7 Q 68,169 68,112 68,39 201,39 q 52,0 85,10 33,10 42,23 9,13 17,22 8,9 17,11 14,-2 14,-17 0,-9 -11,-26 Q 354,45 334,26 314,7 275,-8 236,-23 190,-22 Z" /></g><g
         data-mml-node="mo"
         transform="matrix(0.01073914,8.723339e-4,8.723339e-4,-0.01073914,78.512253,92.04848)"
         id="g3334"
         style="opacity:1;fill:#000000;stroke:#000000;stroke-width:0"><path
           id="use3332"
           d="m 56,237 q 0,0 0,13 0,13 14,20 h 299 v 150 l 1,150 q 10,13 19,13 13,0 20,-15 V 270 h 298 q 15,-8 15,-20 0,-12 -15,-20 H 409 V -68 q -8,-14 -18,-14 h -2 -2 q -12,0 -18,14 V 230 H 70 q -14,7 -14,20 z" /></g><g
         data-mml-node="msub"
         transform="matrix(0.01623126,0.00131846,0.00131846,-0.01623126,88.875346,98.121391)"
         id="g3344"
         style="opacity:1;fill:#000000;stroke:#000000;stroke-width:0"><g
           data-mml-node="mi"
           id="g3338"><path
             id="use3336"
             d="m 34,159 q 0,109 86,196 86,87 186,87 56,0 88,-24 32,-24 33,-63 0,-29 -19,-49 -19,-20 -48,-21 -19,0 -30,10 -11,10 -11,30 0,20 11,34 11,14 22,21 11,7 14,6 h 1 q 0,2 -6,6 -6,4 -21,8 -15,4 -34,4 -30,0 -57,-14 -21,-9 -43,-31 -44,-44 -64,-124 -20,-80 -21,-116 0,-46 26,-69 22,-24 58,-24 h 4 q 112,0 185,85 9,10 12,10 4,0 13,-9 9,-9 10,-14 1,-5 -9,-15 Q 410,73 391,55 372,37 346,25 320,13 282,0 244,-13 202,-11 127,-11 81,37 35,85 34,159 Z" /></g><g
           data-mml-node="mn"
           transform="matrix(0.43518855,0,0,0.43518855,447.25159,-158.13767)"
           id="g3342"><path
             id="use3340"
             d="m 109,429 q -27,0 -43,18 -16,18 -16,44 0,71 53,123 53,52 132,52 91,0 152,-56 61,-56 62,-145 0,-43 -20,-82 -20,-39 -48,-68 -28,-29 -80,-74 -36,-31 -100,-92 l -59,-56 76,-1 q 157,0 167,5 7,2 24,89 v 3 h 40 v -3 Q 448,183 436,95 424,7 421,3 V 0 H 50 v 19 12 q 0,7 6,15 6,8 30,35 29,32 50,56 9,10 34,37 25,27 34,37 9,10 29,33 20,23 28,34 8,11 23,30 15,19 21,32 6,13 15,29 9,16 13,32 4,16 7,30 3,14 3,33 0,63 -34,109 -34,46 -97,46 -33,0 -58,-17 -25,-17 -35,-33 -10,-16 -10,-19 0,-1 5,-1 18,0 37,-14 19,-14 19,-46 0,-25 -16,-42 -16,-17 -45,-18 z" /></g></g><g
         data-mml-node="msup"
         transform="matrix(0.01623126,0.00131846,0.00131846,-0.01623126,102.45273,99.224276)"
         id="g3354"
         style="opacity:1;fill:#000000;stroke:#000000;stroke-width:0"><g
           data-mml-node="mi"
           id="g3348"><path
             id="use3346"
             d="m 190,-22 q -66,0 -114,33 -48,33 -49,96 0,67 70,125 l 10,7 -8,9 q -23,25 -23,56 0,60 68,104 68,44 146,44 h 12 q 58,0 103,-31 23,-16 23,-29 0,-11 -11,-23 -11,-12 -26,-13 -9,0 -20,9 -11,9 -33,18 -22,9 -55,9 -66,0 -116,-24 -50,-24 -51,-60 0,-19 17,-36 9,-9 12,-10 3,-1 12,2 31,14 81,14 h 5 q 65,0 65,-31 0,-41 -85,-41 -46,0 -81,13 l -10,-7 Q 68,169 68,112 68,39 201,39 q 52,0 85,10 33,10 42,23 9,13 17,22 8,9 17,11 14,-2 14,-17 0,-9 -11,-26 Q 354,45 334,26 314,7 275,-8 236,-23 190,-22 Z" /></g><g
           data-mml-node="mn"
           transform="matrix(0.707,0,0,0.707,466,413)"
           id="g3352"><path
             id="use3350"
             d="m 109,429 q -27,0 -43,18 -16,18 -16,44 0,71 53,123 53,52 132,52 91,0 152,-56 61,-56 62,-145 0,-43 -20,-82 -20,-39 -48,-68 -28,-29 -80,-74 -36,-31 -100,-92 l -59,-56 76,-1 q 157,0 167,5 7,2 24,89 v 3 h 40 v -3 Q 448,183 436,95 424,7 421,3 V 0 H 50 v 19 12 q 0,7 6,15 6,8 30,35 29,32 50,56 9,10 34,37 25,27 34,37 9,10 29,33 20,23 28,34 8,11 23,30 15,19 21,32 6,13 15,29 9,16 13,32 4,16 7,30 3,14 3,33 0,63 -34,109 -34,46 -97,46 -33,0 -58,-17 -25,-17 -35,-33 -10,-16 -10,-19 0,-1 5,-1 18,0 37,-14 19,-14 19,-46 0,-25 -16,-42 -16,-17 -45,-18 z" /></g></g><g
         data-mml-node="mo"
         transform="matrix(0.0100462,8.1604644e-4,8.1604644e-4,-0.0100462,114.48239,102.42542)"
         id="g3358"
         style="opacity:1;fill:#000000;stroke:#000000;stroke-width:0"><path
           id="use3356"
           d="m 56,237 q 0,0 0,13 0,13 14,20 h 299 v 150 l 1,150 q 10,13 19,13 13,0 20,-15 V 270 h 298 q 15,-8 15,-20 0,-12 -15,-20 H 409 V -68 q -8,-14 -18,-14 h -2 -2 q -12,0 -18,14 V 230 H 70 q -14,7 -14,20 z" /></g><g
         data-mml-node="msub"
         transform="matrix(0.01198708,9.7370371e-4,9.7370371e-4,-0.01198708,126.38056,105.07745)"
         id="g3368"
         style="opacity:1;fill:#000000;stroke:#000000;stroke-width:0"><g
           data-mml-node="mi"
           id="g3362"><path
             id="use3360"
             d="m 34,159 q 0,109 86,196 86,87 186,87 56,0 88,-24 32,-24 33,-63 0,-29 -19,-49 -19,-20 -48,-21 -19,0 -30,10 -11,10 -11,30 0,20 11,34 11,14 22,21 11,7 14,6 h 1 q 0,2 -6,6 -6,4 -21,8 -15,4 -34,4 -30,0 -57,-14 -21,-9 -43,-31 -44,-44 -64,-124 -20,-80 -21,-116 0,-46 26,-69 22,-24 58,-24 h 4 q 112,0 185,85 9,10 12,10 4,0 13,-9 9,-9 10,-14 1,-5 -9,-15 Q 410,73 391,55 372,37 346,25 320,13 282,0 244,-13 202,-11 127,-11 81,37 35,85 34,159 Z" /></g><g
           data-mml-node="mn"
           transform="matrix(0.45180166,0,0,0.45180166,447.07462,-159.65112)"
           id="g3366"><path
             id="use3364"
             d="m 127,463 q -27,0 -42,17 -15,17 -16,44 0,55 48,98 48,43 116,43 35,0 44,-1 74,-12 113,-53 39,-41 40,-89 0,-52 -34,-101 -34,-49 -94,-71 l -3,-2 q 0,-1 9,-3 9,-2 29,-9 20,-7 38,-21 82,-53 82,-140 0,-79 -62,-138 -62,-59 -157,-59 -80,0 -138,43 -58,43 -58,109 0,28 18,45 18,17 45,18 28,0 46,-18 18,-18 18,-45 0,-11 -3,-20 -3,-9 -7,-16 -4,-7 -11,-12 -7,-5 -12,-8 -5,-3 -10,-4 -5,-1 -8,-3 l -4,-1 q 51,-45 124,-45 55,0 83,53 17,33 17,101 v 20 q 0,95 -64,127 -15,6 -61,7 l -42,1 -3,2 q -2,3 -2,16 0,18 8,18 28,0 58,5 34,5 62,42 28,37 28,112 v 8 q 0,57 -35,79 -22,14 -47,14 -32,0 -59,-11 -27,-11 -38,-23 -11,-12 -11,-12 h 3 q 3,-1 8,-2 5,-1 10,-5 5,-4 12,-7 7,-3 10,-11 3,-8 8,-15 5,-7 3,-20 0,-22 -14,-39 -14,-17 -45,-18 z" /></g></g><g
         data-mml-node="msup"
         transform="matrix(0.01200146,-7.7658119e-4,-7.7658119e-4,-0.01200146,138.44606,97.557283)"
         id="g3378"
         style="opacity:1;fill:#000000;stroke:#000000;stroke-width:0"><g
           data-mml-node="mi"
           id="g3372"
           transform="rotate(-8.3461969,-4812.6014,825.20657)"><path
             id="use3370"
             d="m 190,-22 q -66,0 -114,33 -48,33 -49,96 0,67 70,125 l 10,7 -8,9 q -23,25 -23,56 0,60 68,104 68,44 146,44 h 12 q 58,0 103,-31 23,-16 23,-29 0,-11 -11,-23 -11,-12 -26,-13 -9,0 -20,9 -11,9 -33,18 -22,9 -55,9 -66,0 -116,-24 -50,-24 -51,-60 0,-19 17,-36 9,-9 12,-10 3,-1 12,2 31,14 81,14 h 5 q 65,0 65,-31 0,-41 -85,-41 -46,0 -81,13 l -10,-7 Q 68,169 68,112 68,39 201,39 q 52,0 85,10 33,10 42,23 9,13 17,22 8,9 17,11 14,-2 14,-17 0,-9 -11,-26 Q 354,45 334,26 314,7 275,-8 236,-23 190,-22 Z" /></g><g
           data-mml-node="mn"
           transform="matrix(0.69951222,-0.10262388,0.10262388,0.69951222,350.2613,-348.84446)"
           id="g3376"><path
             id="use3374"
             d="m 127,463 q -27,0 -42,17 -15,17 -16,44 0,55 48,98 48,43 116,43 35,0 44,-1 74,-12 113,-53 39,-41 40,-89 0,-52 -34,-101 -34,-49 -94,-71 l -3,-2 q 0,-1 9,-3 9,-2 29,-9 20,-7 38,-21 82,-53 82,-140 0,-79 -62,-138 -62,-59 -157,-59 -80,0 -138,43 -58,43 -58,109 0,28 18,45 18,17 45,18 28,0 46,-18 18,-18 18,-45 0,-11 -3,-20 -3,-9 -7,-16 -4,-7 -11,-12 -7,-5 -12,-8 -5,-3 -10,-4 -5,-1 -8,-3 l -4,-1 q 51,-45 124,-45 55,0 83,53 17,33 17,101 v 20 q 0,95 -64,127 -15,6 -61,7 l -42,1 -3,2 q -2,3 -2,16 0,18 8,18 28,0 58,5 34,5 62,42 28,37 28,112 v 8 q 0,57 -35,79 -22,14 -47,14 -32,0 -59,-11 -27,-11 -38,-23 -11,-12 -11,-12 h 3 q 3,-1 8,-2 5,-1 10,-5 5,-4 12,-7 7,-3 10,-11 3,-8 8,-15 5,-7 3,-20 0,-22 -14,-39 -14,-17 -45,-18 z" /></g></g><g
         data-mml-node="mo"
         transform="matrix(0.00851194,-4.9199869e-5,-4.9199869e-5,-0.00851194,145.53233,109.53397)"
         id="g3382"
         style="opacity:1;fill:#000000;stroke:#000000;stroke-width:0"><path
           id="use3380"
           d="m 56,237 q 0,0 0,13 0,13 14,20 h 299 v 150 l 1,150 q 10,13 19,13 13,0 20,-15 V 270 h 298 q 15,-8 15,-20 0,-12 -15,-20 H 409 V -68 q -8,-14 -18,-14 h -2 -2 q -12,0 -18,14 V 230 H 70 q -14,7 -14,20 z" /></g><g
         data-mml-node="mo"
         transform="matrix(0.00980388,-5.666727e-5,-5.666727e-5,-0.00980388,156.52146,111.91619)"
         id="g3386"
         style="opacity:1;fill:#000000;stroke:#000000;stroke-width:0"><path
           id="use3384"
           d="m 78,60 q 0,24 17,42 17,18 43,18 24,0 42,-16 Q 198,88 199,61 199,36 182,18 165,0 139,0 113,0 96,17 79,34 78,60 Z" /></g><g
         data-mml-node="mo"
         transform="matrix(0.00980388,-5.666727e-5,-5.666727e-5,-0.00980388,160.88126,111.89099)"
         id="g3390"
         style="opacity:1;fill:#000000;stroke:#000000;stroke-width:0"><path
           id="use3388"
           d="m 78,60 q 0,24 17,42 17,18 43,18 24,0 42,-16 Q 198,88 199,61 199,36 182,18 165,0 139,0 113,0 96,17 79,34 78,60 Z" /></g><g
         data-mml-node="mo"
         transform="matrix(0.00980388,-5.666727e-5,-5.666727e-5,-0.00980388,165.24004,111.8658)"
         id="g3394"
         style="opacity:1;fill:#000000;stroke:#000000;stroke-width:0"><path
           id="use3392"
           d="m 78,60 q 0,24 17,42 17,18 43,18 24,0 42,-16 Q 198,88 199,61 199,36 182,18 165,0 139,0 113,0 96,17 79,34 78,60 Z" /></g></g></g><g
     inkscape:groupmode="layer"
     id="layer2"
     inkscape:label="Layer 2"
     transform="translate(-12.69046,-26.470684)" /></svg>
