<?xml version="1.0" encoding="UTF-8" standalone="no"?>
<svg
   xmlns:dc="http://purl.org/dc/elements/1.1/"
   xmlns:cc="http://creativecommons.org/ns#"
   xmlns:rdf="http://www.w3.org/1999/02/22-rdf-syntax-ns#"
   xmlns:svg="http://www.w3.org/2000/svg"
   xmlns="http://www.w3.org/2000/svg"
   xmlns:sodipodi="http://sodipodi.sourceforge.net/DTD/sodipodi-0.dtd"
   xmlns:inkscape="http://www.inkscape.org/namespaces/inkscape"
   sodipodi:docname="harmonic.svg"
   inkscape:version="1.0 (4035a4fb49, 2020-05-01)"
   id="svg8"
   version="1.1"
   viewBox="0 0 210 297"
   height="297mm"
   width="210mm">
  <defs
     id="defs2">
    <inkscape:path-effect
       only_selected="false"
       apply_with_weight="true"
       apply_no_weight="true"
       helper_size="0"
       steps="2"
       weight="33.333333"
       lpeversion="1"
       is_visible="true"
       id="path-effect952"
       effect="bspline" />
    <inkscape:path-effect
       end_linecap_type="round"
       scale_width="1"
       miter_limit="4"
       linejoin_type="spiro"
       start_linecap_type="round"
       interpolator_beta="0.75"
       interpolator_type="CentripetalCatmullRom"
       sort_points="true"
       offset_points="4.1789587,0.5"
       lpeversion="1"
       is_visible="true"
       id="path-effect946"
       effect="powerstroke" />
    <inkscape:path-effect
       step="1"
       simplify_just_coalesce="false"
       simplify_individual_paths="false"
       helper_size="0"
       smooth_angles="0"
       threshold="0.10153846"
       steps="1"
       lpeversion="1"
       is_visible="true"
       id="path-effect944"
       effect="simplify" />
    <inkscape:path-effect
       only_selected="false"
       apply_with_weight="true"
       apply_no_weight="true"
       helper_size="0"
       steps="2"
       weight="33.333333"
       lpeversion="1"
       is_visible="true"
       id="path-effect929"
       effect="bspline" />
    <inkscape:path-effect
       only_selected="false"
       apply_with_weight="true"
       apply_no_weight="true"
       helper_size="0"
       steps="2"
       weight="33.333333"
       lpeversion="1"
       is_visible="true"
       id="path-effect919"
       effect="bspline" />
    <inkscape:path-effect
       end_linecap_type="round"
       scale_width="1"
       miter_limit="4"
       linejoin_type="spiro"
       start_linecap_type="round"
       interpolator_beta="0.75"
       interpolator_type="CentripetalCatmullRom"
       sort_points="true"
       offset_points="1,0.5"
       lpeversion="1"
       is_visible="true"
       id="path-effect913"
       effect="powerstroke" />
    <inkscape:path-effect
       step="1"
       simplify_just_coalesce="false"
       simplify_individual_paths="false"
       helper_size="0"
       smooth_angles="0"
       threshold="0.10153846"
       steps="1"
       lpeversion="1"
       is_visible="true"
       id="path-effect911"
       effect="simplify" />
    <inkscape:path-effect
       end_linecap_type="round"
       scale_width="1"
       miter_limit="4"
       linejoin_type="spiro"
       start_linecap_type="round"
       interpolator_beta="0.75"
       interpolator_type="CentripetalCatmullRom"
       sort_points="true"
       offset_points="0.5,0.5"
       lpeversion="1"
       is_visible="true"
       id="path-effect906"
       effect="powerstroke" />
    <inkscape:path-effect
       step="1"
       simplify_just_coalesce="false"
       simplify_individual_paths="false"
       helper_size="0"
       smooth_angles="0"
       threshold="0.10153846"
       steps="1"
       lpeversion="1"
       is_visible="true"
       id="path-effect904"
       effect="simplify" />
    <inkscape:path-effect
       end_linecap_type="round"
       scale_width="1"
       miter_limit="4"
       linejoin_type="spiro"
       start_linecap_type="round"
       interpolator_beta="0.75"
       interpolator_type="CentripetalCatmullRom"
       sort_points="true"
       offset_points="1.5,0.5"
       lpeversion="1"
       is_visible="true"
       id="path-effect899"
       effect="powerstroke" />
    <inkscape:path-effect
       step="1"
       simplify_just_coalesce="false"
       simplify_individual_paths="false"
       helper_size="0"
       smooth_angles="0"
       threshold="0.042618658"
       steps="1"
       lpeversion="1"
       is_visible="true"
       id="path-effect897"
       effect="simplify" />
    <inkscape:path-effect
       only_selected="false"
       apply_with_weight="true"
       apply_no_weight="true"
       helper_size="0"
       steps="2"
       weight="33.333333"
       lpeversion="1"
       is_visible="true"
       id="path-effect879"
       effect="bspline" />
    <inkscape:path-effect
       only_selected="false"
       apply_with_weight="true"
       apply_no_weight="true"
       helper_size="0"
       steps="2"
       weight="33.333333"
       lpeversion="1"
       is_visible="true"
       id="path-effect875"
       effect="bspline" />
    <inkscape:path-effect
       end_linecap_type="round"
       scale_width="1"
       miter_limit="4"
       linejoin_type="spiro"
       start_linecap_type="round"
       interpolator_beta="0.75"
       interpolator_type="CentripetalCatmullRom"
       sort_points="true"
       offset_points="1,0.5"
       lpeversion="1"
       is_visible="true"
       id="path-effect865"
       effect="powerstroke" />
    <inkscape:path-effect
       step="1"
       simplify_just_coalesce="false"
       simplify_individual_paths="false"
       helper_size="0"
       smooth_angles="0"
       threshold="0.042618658"
       steps="1"
       lpeversion="1"
       is_visible="true"
       id="path-effect863"
       effect="simplify" />
    <inkscape:path-effect
       end_linecap_type="round"
       scale_width="1"
       miter_limit="4"
       linejoin_type="spiro"
       start_linecap_type="round"
       interpolator_beta="0.75"
       interpolator_type="CentripetalCatmullRom"
       sort_points="true"
       offset_points="3.5667101,0.9955173"
       lpeversion="1"
       is_visible="true"
       id="path-effect858"
       effect="powerstroke" />
    <inkscape:path-effect
       step="1"
       simplify_just_coalesce="false"
       simplify_individual_paths="false"
       helper_size="0"
       smooth_angles="0"
       threshold="0.042618658"
       steps="1"
       lpeversion="1"
       is_visible="true"
       id="path-effect856"
       effect="simplify" />
    <inkscape:path-effect
       end_linecap_type="round"
       scale_width="1"
       miter_limit="4"
       linejoin_type="spiro"
       start_linecap_type="round"
       interpolator_beta="0.75"
       interpolator_type="CentripetalCatmullRom"
       sort_points="true"
       offset_points="1,0.5"
       lpeversion="1"
       is_visible="true"
       id="path-effect851"
       effect="powerstroke" />
    <inkscape:path-effect
       step="1"
       simplify_just_coalesce="false"
       simplify_individual_paths="false"
       helper_size="0"
       smooth_angles="0"
       threshold="0.042618658"
       steps="1"
       lpeversion="1"
       is_visible="true"
       id="path-effect849"
       effect="simplify" />
    <inkscape:path-effect
       end_linecap_type="round"
       scale_width="1"
       miter_limit="4"
       linejoin_type="spiro"
       start_linecap_type="round"
       interpolator_beta="0.75"
       interpolator_type="CentripetalCatmullRom"
       sort_points="true"
       offset_points="5.5,0.5"
       lpeversion="1"
       is_visible="true"
       id="path-effect844"
       effect="powerstroke" />
    <inkscape:path-effect
       step="1"
       simplify_just_coalesce="false"
       simplify_individual_paths="false"
       helper_size="0"
       smooth_angles="0"
       threshold="0.0081758242"
       steps="1"
       lpeversion="1"
       is_visible="true"
       id="path-effect842"
       effect="simplify" />
    <inkscape:path-effect
       only_selected="false"
       apply_with_weight="true"
       apply_no_weight="true"
       helper_size="0"
       steps="2"
       weight="33.333333"
       lpeversion="1"
       is_visible="true"
       id="path-effect839"
       effect="bspline" />
    <inkscape:path-effect
       only_selected="false"
       apply_with_weight="true"
       apply_no_weight="true"
       helper_size="0"
       steps="2"
       weight="33.333333"
       lpeversion="1"
       is_visible="true"
       id="path-effect835"
       effect="bspline" />
  </defs>
  <sodipodi:namedview
     inkscape:window-maximized="1"
     inkscape:window-y="-11"
     inkscape:window-x="-11"
     inkscape:window-height="1046"
     inkscape:window-width="1920"
     inkscape:guide-bbox="true"
     showguides="true"
     showgrid="false"
     inkscape:document-rotation="0"
     inkscape:current-layer="g937"
     inkscape:document-units="mm"
     inkscape:cy="246.74317"
     inkscape:cx="499.73898"
     inkscape:zoom="1.4"
     inkscape:pageshadow="2"
     inkscape:pageopacity="0.0"
     borderopacity="1.0"
     bordercolor="#666666"
     pagecolor="#ffffff"
     id="base" />
  <metadata
     id="metadata5">
    <rdf:RDF>
      <cc:Work
         rdf:about="">
        <dc:format>image/svg+xml</dc:format>
        <dc:type
           rdf:resource="http://purl.org/dc/dcmitype/StillImage" />
        <dc:title></dc:title>
      </cc:Work>
    </rdf:RDF>
  </metadata>
  <g
     id="layer1"
     inkscape:groupmode="layer"
     inkscape:label="Layer 1">
    <path
       inkscape:original-d="m 19.762879,20.977678 c 6.27e-4,40.526708 6.27e-4,81.052782 0,121.578242"
       inkscape:path-effect="#path-effect835"
       id="path833"
       d="m 19.762879,20.977678 c 0,40.526708 0,81.052782 0,121.578242"
       style="fill:none;stroke:#000000;stroke-width:1.726;stroke-linecap:butt;stroke-linejoin:miter;stroke-opacity:1;stroke-miterlimit:4;stroke-dasharray:none" />
    <path
       inkscape:original-d="m 11.717262,127.80562 c 64.067593,6.2e-4 128.134558,6.2e-4 192.200888,0"
       inkscape:path-effect="#path-effect839"
       id="path837"
       d="m 11.717262,127.80562 c 64.067593,0 128.134558,0 192.200888,0"
       style="fill:none;stroke:#000000;stroke-width:1.526;stroke-linecap:butt;stroke-linejoin:miter;stroke-opacity:1;stroke-miterlimit:4;stroke-dasharray:none" />
    <g
       transform="translate(-1.0583333)"
       style="opacity:1;stroke-width:9.2;stroke-miterlimit:4;stroke-dasharray:none"
       id="g937">
      <path
         sodipodi:nodetypes="czzzzzzzzzzzzzzzzc"
         style="fill:#000000;fill-rule:nonzero;stroke:none;stroke-width:1px;stroke-linecap:butt;stroke-linejoin:miter;stroke-opacity:1"
         inkscape:original-d="m 21.355655,46.113095 c 0.18434,6.710081 0.696972,15.072114 1.889881,19.84375 1.192909,4.771636 1.89663,6.753623 2.456845,8.882441 0.560215,2.128818 0.104535,1.88782 0.566964,3.96875 0.462429,2.08093 2.565305,6.453527 3.590774,8.504464 1.025468,2.050937 4.430813,-1.502347 4.898293,-1.34652 0.46748,0.155827 4.071494,5.416728 5.822609,4.366058 1.751115,-1.050669 0.908029,2.915097 1.9413,-0.184716 1.033271,-3.099813 2.986031,-6.701002 4.535715,-8.693453 1.549684,-1.992451 2.159159,-2.230465 3.590774,-3.401786 1.431615,-1.171321 24.827636,-8.174813 29.785771,-4.369654 4.958135,3.805159 8.731666,4.85181 9.145776,9.614074 0.41411,4.762264 9.608264,5.105066 10.394345,8.7407 0.786078,3.635634 8.776748,14.003027 13.196738,14.527527 4.41998,0.5245 -14.94337,1.27728 5.71455,-1.39401 20.65792,-2.67128 1.91338,-15.311248 18.60237,-16.614831 16.68899,-1.303583 4.99666,0.207765 14.83604,-0.941008 9.83938,-1.148773 23.3047,-1.900909 34.9628,-1.133929"
         inkscape:path-effect="#path-effect944;#path-effect946"
         id="path-1"
         d="m 20.85786,46.066191 c -0.789353,8.377421 -1.089753,16.632969 -0.266809,23.296765 v 0 c 0.338092,2.737699 0.863742,5.198675 1.617671,7.323316 v 0 c 0.690894,1.947005 1.571162,3.605599 2.672287,4.947591 l 10e-6,1.2e-5 c 1.027695,1.252496 2.23488,2.213654 3.635779,2.885284 v 0 c 1.319294,0.632506 2.78539,0.996602 4.402022,1.126686 l 1.6e-5,2e-6 c 1.536439,0.12363 3.194305,0.03503 4.980982,-0.223133 v 0 c 1.712141,-0.247394 3.524199,-0.647572 5.45163,-1.156119 v 0 c 3.640485,-0.960531 7.654678,-2.311518 11.915504,-3.574205 v 0 c 3.981092,-1.179787 8.265755,-2.299117 12.512407,-2.769143 v 0 c 2.056199,-0.227584 4.126237,-0.306215 6.179035,-0.163608 v 0 c 2.008506,0.13953 4.008466,0.491324 5.972139,1.128193 v 0 c 1.925047,0.624341 3.82429,1.525517 5.6709,2.779847 v 0 c 1.802303,1.224234 3.562367,2.790204 5.252515,4.776511 1.680655,3.094845 3.340299,5.757489 4.99016,8.018697 v 0 c 1.633773,2.239159 3.257886,4.08466 4.885242,5.569093 v 0 c 1.60625,1.46518 3.21469,2.57771 4.83836,3.37094 l 2e-5,1e-5 c 1.6053,0.78425 3.21768,1.25256 4.84794,1.4455 v 0 c 1.61212,0.1908 3.2306,0.11108 4.86625,-0.18896 l 2e-5,0 c 1.619,-0.29699 3.25127,-0.80911 4.90951,-1.48502 l 2e-5,-10e-6 c 3.27836,-1.33629 6.64818,-3.307914 10.23245,-5.524627 l 2e-5,-1.5e-5 c 3.51616,-2.174594 7.2776,-4.61046 11.2781,-6.838294 v 0 c 3.97394,-2.213046 8.23362,-4.250585 12.85256,-5.688933 l 3e-5,-10e-6 c 4.58794,-1.428693 9.54059,-2.269766 14.94215,-2.103322 v 0 c 9.0848,0.27994 19.46892,3.410614 31.56828,11.43728 12.12506,8.043721 25.82812,20.891621 41.83574,40.717031 16.05834,19.88825 34.25625,46.49624 57.78185,85.22014 23.15181,38.10861 53.6882,91.60258 98.76484,173.54999 41.85955,76.09888 113.99116,209.0716 215.28767,401.16278 99.9636,189.56357 262.93698,502.24674 493.86774,960.56434 231.5077,459.4624 571.9818,1145.8702 1042.0173,2124.4307 471.6974,982.0204 1110.4527,2334.3497 1950.0884,4160.4028 842.8196,1832.9774 1908.4117,4187.5547 3237.0453,7186.7757 1333.353,3009.874 2920.5271,6643.948 4797.7641,11013.91 1882.67,4382.609 4001.55,9376.099 6375.819,15041.942 2378.565,5676.091 4910.563,11781.452 7583.94,18286.835 2673.554,6505.817 5354.07,13084.563 7982.632,19576.088 2620.079,6470.576 5065.863,12551.556 7207.425,17895.691 2114.393,5276.334 3908.685,9775.824 5112.198,12797.924 190.606,478.63 1207.013,3033.67 1397.619,3512.3 158.939,399.73 639.955,1609.82 481.016,1210.09 v 0 c 716.267,1802.38 -1448.779,-3644.91 -732.512,-1842.52 382.45,961.6 -2469.037,-6201.76 -2086.587,-5240.15 294.406,738.46 -3503.901,-8773.409 -3209.495,-8034.942 219.1,547.427 -4261.793,-10621.383 -4042.694,-10073.956 C 36748.21,85750.639 35219.895,81963.949 33641.962,78069.813 32063.229,74173.704 30465.965,70246.881 28862.957,66324.141 27259.91,62401.305 25682.783,58560.041 24137.5,54816.197 22592.638,51073.376 21107.656,47495.894 19683.297,44084.84 18259.604,40675.383 16918.645,37485.292 15657.363,34504.579 14396.832,31525.642 13231.3,28792.27 12155.131,26286.849 10000.41,21270.455 8246.0743,17265.983 6832.4917,14089.226 6127.3023,12504.448 5506.7498,11125.288 4963.3896,9928.7952 4420.3812,8733.0767 3949.7815,7709.4764 3544.9407,6837.458 3140.3207,5965.915 2794.7392,5231.47 2502.718,4617.0981 2210.8097,4002.9638 1964.8574,3492.9023 1760.751,3073.9229 1360.376,2252.0535 1080.123,1696.7965 903.89569,1352.3964 726.59787,1005.9041 602.08869,770.42453 530.86089,636.98067 456.28098,497.2567 404.20877,402.17836 372.45031,345.1429 338.48681,284.14738 315.1978,244.0266 296.8701,214.14778 278.35674,183.9663 264.26031,163.19461 252.18731,147.11679 240.16795,131.11039 230.19262,119.87527 221.7938,111.62959 205.42435,95.55859 193.65479,89.607688 187.099,86.94418 a 0.5,0.5 90 0 0 0.3764,-0.926456 c 6.66258,2.706894 18.58208,8.748651 34.99001,24.881426 8.38185,8.24129 18.37368,19.53343 29.80486,35.02018 11.36473,15.39672 24.53423,35.50252 37.75919,59.43614 13.18361,23.85879 26.80436,52.29916 33.66914,74.85176 6.46066,21.22493 7.25434,40.44645 -18.20644,16.97091 C 281.10896,274.69615 225.36323,205.3333 106.40951,13.237532 -10.78872,-176.02334 -212.11855,-521.48004 -542.32544,-1142.957 c -167.14141,-314.5741 -373.42923,-711.4185 -625.85276,-1210.2855 -252.452,-498.9232 -556.1464,-1109.9659 -918.9683,-1855.9712 -722.4519,-1485.448 -1707.0734,-3563.0631 -3023.9575,-6441.3573 -1323.3874,-2892.508 -2983.6639,-6596.588 -5046.358,-11312.067 -1029.846,-2354.308 -2149.321,-4936.312 -3364.163,-7763.962 -1215.531,-2829.253 -2511.595,-5869.646 -3890.999,-9130.572 -1380.02,-3262.384 -2822.102,-6695.018 -4324.974,-10295.474 -1503.26,-3601.386 -3040.363,-7306.045 -4604.667,-11096.3 -1564.252,-3790.13 -3125.269,-7592.108 -4669.477,-11369.158 -1543.422,-3775.127 -3040.173,-7452.272 -4467.51,-10970.343 -1425.354,-3513.18 -2758.716,-6811.613 -3964.213,-9800.667 -238.766,-592.026 -2911.844,-7236.983 -3150.61,-7829.006 -271.251,-675.47 -1778.492,-4435.47 -2049.743,-5110.93 -237.267,-592.38 -482.559,-1205.59 -719.827,-1797.96 v 0 c -156.107,-390.1 316.593,790.78 472.701,1180.87 -260.852,-651.45 1633.997,4077.87 1373.145,3426.41 1181.877,2946.583 2944.642,7334.917 5018.354,12469.751 2100.239,5200.518 4498.25,11114.511 7061.224,17388.321 1276.698,3125.182 2574.919,6292.141 3884.961,9474.641 1310.246,3182.993 2615.529,6340.751 3909.675,9456.617 1294.134,3115.838 2560.688,6150.194 3796.451,9094.702 1235.605,2944.13 2425.595,5763.09 3569.269,8455.679 2297.306,5408.625 4337.671,10142.399 6139.171,14260.282 1796.6551,4106.811 3301.8095,7477.795 4553.998,10230.927 1248.2613,2744.4973 2231.354,4844.7243 2996.4006,6441.2273 762.8568,1591.9336 1321.1457,2708.5909 1721.27418,3483.9547 399.68988,774.514 663.5666,1251.19288 831.894974,1540.32666 C 134.01998,67.237255 225.53617,200.97587 272.14776,259.6602 c 47.77013,60.14294 57.64256,53.84761 54.9921,35.09536 -2.81462,-19.91371 -18.67171,-55.355 -34.44634,-84.52669 C 276.28464,179.88428 258.86163,153.69332 243.3442,134.28908 227.7136,114.74334 213.8252,101.7219 201.61763,93.623131 189.39513,85.514462 178.83246,82.306435 169.52757,82.019714 v 0 c -5.52753,-0.170326 -10.5914,0.691063 -15.27026,2.148069 l -3e-5,1e-5 c -4.70684,1.465722 -9.03218,3.537147 -13.04178,5.770049 v 0 c -4.02711,2.242659 -7.82452,4.701176 -11.31755,6.861466 l -2e-5,1.5e-5 c -3.58225,2.215463 -6.89002,4.147227 -10.08392,5.449087 l -2e-5,10e-6 c -1.61056,0.65648 -3.17593,1.1456 -4.71247,1.42746 l -2e-5,0 c -1.55047,0.28441 -3.06747,0.35711 -4.5683,0.17949 v 0 c -1.51605,-0.17943 -3.01997,-0.61495 -4.52651,-1.35095 l -2e-5,-1e-5 c -1.52568,-0.74535 -3.05643,-1.80013 -4.6034,-3.211238 v 0 c -1.568061,-1.430343 -3.148486,-3.222929 -4.751335,-5.419705 v 0 c -1.626447,-2.229119 -3.271049,-4.867675 -4.943767,-7.951758 -0.01642,-0.03028 -0.03593,-0.05879 -0.05821,-0.08506 -1.755349,-2.06981 -3.593187,-3.710039 -5.486636,-4.996185 v 0 c -1.927609,-1.309349 -3.912645,-2.251433 -5.924285,-2.903859 v 0 C 78.188007,77.271407 76.106551,76.90646 74.027697,76.762043 v 0 c -2.123883,-0.147545 -4.255068,-0.06552 -6.358348,0.167273 v 0 c -4.337383,0.480069 -8.690824,1.620171 -12.686531,2.80429 v 0 c -4.285059,1.269867 -8.29193,2.617666 -11.886486,3.566078 v 0 c -1.905057,0.502644 -3.677569,0.893166 -5.339523,1.133309 v 0 c -1.734482,0.250622 -3.314838,0.332181 -4.757767,0.216075 l -1.5e-5,-10e-7 C 31.483698,84.527134 30.140392,84.188568 28.94911,83.617435 v 0 c -1.262033,-0.605054 -2.354861,-1.472067 -3.295019,-2.617879 l -10e-6,-1.1e-5 C 24.643022,79.76732 23.813263,78.217759 23.151146,76.351853 v 0 c -0.722829,-2.037 -1.235586,-4.422698 -1.567634,-7.11146 v 0 C 20.773977,62.685179 21.066185,54.51526 21.85345,46.159999 a 0.5,0.5 90 0 0 -0.99559,-0.09381 z" />
      <path
         inkscape:original-d="m 275,266.42857 -3.03237,-2.80111"
         inkscape:path-effect="#path-effect952"
         id="path950"
         d="m 275,266.42857 c 0,0 -3.03237,-2.80111 -3.03237,-2.80111"
         style="fill:#000000;stroke:none;stroke-width:1px;stroke-linecap:butt;stroke-linejoin:miter;stroke-opacity:1" />
      <text
         id="text956"
         y="34.210499"
         x="3.9982982"
         style="font-style:oblique;font-weight:500;font-size:4.9389px;font-family:'CMU Sans Serif';-inkscape-font-specification:'CMU Sans Serif Medium Oblique';stroke-width:2.43417"
         xml:space="preserve"><tspan
           style="stroke-width:2.43417"
           y="34.210499"
           x="3.9982982"
           id="tspan954"
           sodipodi:role="line" /></text>
    </g>
    <ellipse
       ry="7.7775669"
       rx="10.870175"
       cy="102.63358"
       cx="111.49605"
       id="path871"
       style="opacity:1;fill:none;fill-opacity:1;stroke:#ff0000;stroke-width:0.440353;stroke-miterlimit:4;stroke-dasharray:1.7614, 0.880712;stroke-dashoffset:0;stroke-opacity:1" />
    <path
       inkscape:original-d="M 101.98082,97.782055 C 108.1854,78.070515 114.38971,58.35871 120.59376,38.646641"
       inkscape:path-effect="#path-effect875"
       id="path873"
       d="m 101.98082,97.782055 c 6.20426,-19.71164 12.40857,-39.423444 18.61294,-59.135414"
       style="fill:none;stroke:#000000;stroke-width:0.264583px;stroke-linecap:butt;stroke-linejoin:miter;stroke-opacity:1" />
    <path
       inkscape:original-d="M 121.66285,106.80041 C 141.97571,87.289958 162.28831,67.779282 182.6006,48.268343"
       inkscape:path-effect="#path-effect879"
       id="path877"
       d="M 121.66285,106.80041 C 141.97546,87.289697 162.28804,67.779005 182.6006,48.268343"
       style="fill:none;stroke:#000000;stroke-width:0.264583px;stroke-linecap:butt;stroke-linejoin:miter;stroke-opacity:1" />
    <ellipse
       style="opacity:1;fill:none;fill-opacity:1;stroke:#ff0000;stroke-width:1.27039;stroke-miterlimit:4;stroke-dasharray:5.08154, 2.5408;stroke-dashoffset:0;stroke-opacity:1"
       id="path871-8"
       cx="151.92142"
       cy="42.252354"
       rx="31.359835"
       ry="22.437836" />
    <path
       inkscape:original-d="m 130.6682,25.120415 c 7.11023,16.150327 14.2202,32.300054 21.32991,48.449187 7.11038,-16.14945 14.22021,-32.29886 21.32992,-48.449187"
       inkscape:path-effect="#path-effect929"
       id="path927"
       d="m 130.6682,25.120415 c 7.11023,16.150326 14.2202,32.300053 21.33002,32.299797 7.10983,-2.55e-4 14.21966,-16.149664 21.32981,-32.299797"
       style="fill:none;stroke:#000000;stroke-width:0.798;stroke-linecap:butt;stroke-linejoin:miter;stroke-miterlimit:4;stroke-dasharray:none;stroke-opacity:1" />
  </g>
</svg>
