<?xml version="1.0" encoding="UTF-8" standalone="no"?>
<!-- Created with Inkscape (http://www.inkscape.org/) -->

<svg
   width="198.25101mm"
   height="127.421mm"
   viewBox="0 0 198.25101 127.421"
   version="1.1"
   id="svg5"
   xml:space="preserve"
   inkscape:version="1.2.2 (b0a8486, 2022-12-01)"
   sodipodi:docname="perturbation.svg"
   xmlns:inkscape="http://www.inkscape.org/namespaces/inkscape"
   xmlns:sodipodi="http://sodipodi.sourceforge.net/DTD/sodipodi-0.dtd"
   xmlns="http://www.w3.org/2000/svg"
   xmlns:svg="http://www.w3.org/2000/svg"><sodipodi:namedview
     id="namedview7"
     pagecolor="#ffffff"
     bordercolor="#000000"
     borderopacity="0.25"
     inkscape:showpageshadow="2"
     inkscape:pageopacity="0.0"
     inkscape:pagecheckerboard="0"
     inkscape:deskcolor="#d1d1d1"
     inkscape:document-units="mm"
     showgrid="false"
     inkscape:zoom="0.81125967"
     inkscape:cx="329.1178"
     inkscape:cy="187.97927"
     inkscape:window-width="1512"
     inkscape:window-height="945"
     inkscape:window-x="0"
     inkscape:window-y="37"
     inkscape:window-maximized="0"
     inkscape:current-layer="layer1" /><defs
     id="defs2"><inkscape:path-effect
       effect="bspline"
       id="path-effect1746"
       is_visible="true"
       lpeversion="1"
       weight="33.333333"
       steps="2"
       helper_size="0"
       apply_no_weight="true"
       apply_with_weight="true"
       only_selected="false" /><inkscape:path-effect
       effect="bspline"
       id="path-effect1742"
       is_visible="true"
       lpeversion="1"
       weight="33.333333"
       steps="2"
       helper_size="0"
       apply_no_weight="true"
       apply_with_weight="true"
       only_selected="false" /><inkscape:path-effect
       effect="bspline"
       id="path-effect350"
       is_visible="true"
       lpeversion="1"
       weight="33.333333"
       steps="2"
       helper_size="0"
       apply_no_weight="true"
       apply_with_weight="true"
       only_selected="false" /><inkscape:path-effect
       effect="bspline"
       id="path-effect1746-6"
       is_visible="true"
       lpeversion="1"
       weight="33.333333"
       steps="2"
       helper_size="0"
       apply_no_weight="true"
       apply_with_weight="true"
       only_selected="false" /><inkscape:path-effect
       effect="bspline"
       id="path-effect1746-9"
       is_visible="true"
       lpeversion="1"
       weight="33.333333"
       steps="2"
       helper_size="0"
       apply_no_weight="true"
       apply_with_weight="true"
       only_selected="false" /><inkscape:path-effect
       effect="bspline"
       id="path-effect1746-9-7"
       is_visible="true"
       lpeversion="1"
       weight="33.333333"
       steps="2"
       helper_size="0"
       apply_no_weight="true"
       apply_with_weight="true"
       only_selected="false" /><inkscape:path-effect
       effect="bspline"
       id="path-effect1746-5"
       is_visible="true"
       lpeversion="1"
       weight="33.333333"
       steps="2"
       helper_size="0"
       apply_no_weight="true"
       apply_with_weight="true"
       only_selected="false" /><inkscape:path-effect
       effect="bspline"
       id="path-effect1746-9-6"
       is_visible="true"
       lpeversion="1"
       weight="33.333333"
       steps="2"
       helper_size="0"
       apply_no_weight="true"
       apply_with_weight="true"
       only_selected="false" /><inkscape:path-effect
       effect="bspline"
       id="path-effect1746-9-7-2"
       is_visible="true"
       lpeversion="1"
       weight="33.333333"
       steps="2"
       helper_size="0"
       apply_no_weight="true"
       apply_with_weight="true"
       only_selected="false" /></defs><g
     inkscape:label="Layer 1"
     inkscape:groupmode="layer"
     id="layer1"
     transform="translate(-4.2237916,-40.229026)"><path
       style="fill:none;stroke:#000000;stroke-width:0.391135"
       d="M 17.931771,110.52445 C 31.826896,80.286536 45.721889,50.048909 52.898445,48.627349 c 7.176557,-1.42156 7.633811,25.972598 14.11296,33.042741 6.47915,7.070143 18.979643,-6.183954 27.395178,-5.545443 8.415537,0.638511 12.744687,15.169573 18.537047,18.697672 5.79236,3.528099 13.04794,-3.946404 18.89566,-4.205778 5.84772,-0.259374 10.28668,6.696012 16.09596,8.549965 5.80927,1.853954 12.98874,-1.393036 18.42262,-0.731547 5.43388,0.66149 9.12095,5.231051 12.43997,7.386731 3.31901,2.15568 6.26991,1.89766 9.22081,1.63964"
       id="path1744"
       inkscape:path-effect="#path-effect1746"
       inkscape:original-d="m 17.931771,110.52445 c 13.8954,-30.237788 27.790402,-60.475411 41.68594,-90.714972 0.457494,27.396308 0.914748,54.790466 1.371813,82.185422 12.501293,-13.25442 25.001788,-26.508515 37.503086,-39.763995 4.32962,14.53222 8.65878,29.063279 12.98773,43.594095 7.25603,-7.474218 14.5116,-14.948728 21.76721,-22.424 4.43928,6.956283 8.87824,13.91167 13.31717,20.8666 7.17995,-3.24682 14.35942,-6.493801 21.5394,-9.741418 3.68761,4.570285 7.37468,9.139848 11.06163,13.709228 2.95113,-0.25771 5.90203,-0.51574 8.8529,-0.77408"
       sodipodi:nodetypes="cccccccccc" /><g
       data-mml-node="mo"
       transform="matrix(0.00850533,3.3909529e-4,3.3909529e-4,-0.00850533,173.49499,127.91007)"
       id="g3382"
       style="opacity:1;fill:#000000;stroke:#000000;stroke-width:0"><path
         id="use3380"
         d="m 56,237 q 0,0 0,13 0,13 14,20 h 299 v 150 l 1,150 q 10,13 19,13 13,0 20,-15 V 270 h 298 q 15,-8 15,-20 0,-12 -15,-20 H 409 V -68 q -8,-14 -18,-14 h -2 -2 q -12,0 -18,14 V 230 H 70 q -14,7 -14,20 z" /></g><path
       style="fill:#c8c8c8;fill-opacity:1;stroke:#000000;stroke-width:0.391135"
       d="M 17.147924,119.29463 C 31.043087,89.056622 44.938042,58.819068 52.114598,57.397508 c 7.176556,-1.42156 7.633815,25.972515 14.112983,33.04267 6.479168,7.070156 18.979658,-6.183945 27.395165,-5.545441 8.415504,0.638504 12.744664,15.169563 18.537034,18.697683 5.79237,3.52811 13.04796,-3.946425 18.89567,-4.205801 5.84771,-0.259377 10.28668,6.696041 16.09596,8.549991 5.80927,1.85395 12.98874,-1.39304 18.42263,-0.73155 5.4339,0.6615 9.12095,5.23106 12.43996,7.38674 3.31901,2.15568 6.26992,1.89766 9.22082,1.63964"
       id="path1744-54"
       inkscape:path-effect="#path-effect1746-9"
       inkscape:original-d="M 17.147924,119.29463 C 31.043335,89.056736 44.938322,58.819197 58.833858,28.579639 c 0.457495,27.396306 0.914765,54.79038 1.37183,82.185401 12.501294,-13.254487 25.001789,-26.508583 37.503067,-39.763995 4.329635,14.532155 8.658795,29.063215 12.987745,43.594075 7.25603,-7.47422 14.51161,-14.94877 21.76721,-22.424041 4.43927,6.956277 8.87824,13.911701 13.31716,20.866631 7.17997,-3.2468 14.35943,-6.4938 21.53942,-9.74144 3.68761,4.57032 7.37467,9.13988 11.06163,13.70925 2.95112,-0.25772 5.90203,-0.51574 8.8529,-0.77408"
       sodipodi:nodetypes="cccccccccc" /><path
       style="fill:#a74f4f;fill-opacity:1;stroke:#000000;stroke-width:0.391135"
       d="M 16.762487,127.69129 C 30.657669,97.453232 44.552619,67.21568 51.729172,65.794119 c 7.176553,-1.421561 7.63381,25.972514 14.11298,33.042683 6.479171,7.070168 18.979667,-6.183953 27.395169,-5.545451 8.415499,0.638502 12.744669,15.169599 18.537039,18.697709 5.79237,3.52812 13.04795,-3.94643 18.89567,-4.2058 5.84772,-0.25937 10.28668,6.69605 16.09595,8.55001 5.80927,1.85395 12.98875,-1.39305 18.42264,-0.73155 5.43388,0.66149 9.12094,5.23106 12.43995,7.38673 3.31902,2.15568 6.26992,1.89766 9.22082,1.63964"
       id="path1744-54-8"
       inkscape:path-effect="#path-effect1746-9-7"
       inkscape:original-d="M 16.762487,127.69129 C 30.657908,97.453342 44.552894,67.215807 58.448431,36.976251 c 0.457494,27.396304 0.914765,54.790378 1.371824,82.185449 12.5013,-13.25451 25.001794,-26.508634 37.503072,-39.764046 4.329643,14.532155 8.658803,29.063256 12.987753,43.594126 7.25603,-7.47423 14.51161,-14.94878 21.76721,-22.42409 4.43927,6.95632 8.87823,13.91174 13.31716,20.86668 7.17995,-3.24682 14.35943,-6.49382 21.53941,-9.74144 3.68762,4.5703 7.37468,9.13986 11.06162,13.70924 2.95114,-0.25772 5.90204,-0.51574 8.85291,-0.77408"
       sodipodi:nodetypes="cccccccccc" /><g
       data-mml-node="mo"
       transform="matrix(0.01068817,0.00136125,0.00136125,-0.01068817,104.16706,114.26504)"
       id="g3334"
       style="opacity:1;fill:#000000;stroke:#000000;stroke-width:0"><path
         id="use3332"
         d="m 56,237 q 0,0 0,13 0,13 14,20 h 299 v 150 l 1,150 q 10,13 19,13 13,0 20,-15 V 270 h 298 q 15,-8 15,-20 0,-12 -15,-20 H 409 V -68 q -8,-14 -18,-14 h -2 -2 q -12,0 -18,14 V 230 H 70 q -14,7 -14,20 z" /></g><g
       data-mml-node="msub"
       transform="matrix(0.03101921,0.00395064,0.00395064,-0.03101921,36.516387,80.387493)"
       id="g3312"
       style="opacity:1;fill:#000000;stroke:#000000;stroke-width:0"><g
         data-mml-node="mi"
         id="g3306"
         transform="matrix(1.3081085,0,0,1.3081085,62.958703,34.880977)"><path
           id="use3304"
           d="m 34,159 q 0,109 86,196 86,87 186,87 56,0 88,-24 32,-24 33,-63 0,-29 -19,-49 -19,-20 -48,-21 -19,0 -30,10 -11,10 -11,30 0,20 11,34 11,14 22,21 11,7 14,6 h 1 q 0,2 -6,6 -6,4 -21,8 -15,4 -34,4 -30,0 -57,-14 -21,-9 -43,-31 -44,-44 -64,-124 -20,-80 -21,-116 0,-46 26,-69 22,-24 58,-24 h 4 q 112,0 185,85 9,10 12,10 4,0 13,-9 9,-9 10,-14 1,-5 -9,-15 Q 410,73 391,55 372,37 346,25 320,13 282,0 244,-13 202,-11 127,-11 81,37 35,85 34,159 Z" /></g><g
         data-mml-node="mn"
         transform="matrix(0.65448361,0,0,0.65448361,633.63789,-163.3133)"
         id="g3310"><path
           id="use3308"
           d="m 96,585 q 56,81 153,81 48,0 96,-26 48,-26 78,-92 37,-83 37,-228 0,-155 -43,-237 -20,-42 -55,-67 -35,-25 -61,-31 -26,-6 -51,-7 -26,0 -52,6 -26,6 -61,32 -35,26 -55,67 -43,82 -43,237 0,174 57,265 z m 225,12 q -30,32 -71,32 -42,0 -72,-32 -25,-26 -33,-72 -8,-46 -8,-192 0,-158 8,-208 8,-50 36,-79 28,-30 69,-30 40,0 68,30 29,30 36,84 7,54 8,203 0,145 -8,191 -8,46 -33,73 z" /></g></g><g
       data-mml-node="msub"
       transform="matrix(0.02315171,0.00294862,0.00294862,-0.02315171,72.624617,104.63445)"
       id="g3326"
       style="opacity:1;fill:#000000;stroke:#000000;stroke-width:0"><g
         data-mml-node="mi"
         id="g3320"><path
           id="use3318"
           d="m 34,159 q 0,109 86,196 86,87 186,87 56,0 88,-24 32,-24 33,-63 0,-29 -19,-49 -19,-20 -48,-21 -19,0 -30,10 -11,10 -11,30 0,20 11,34 11,14 22,21 11,7 14,6 h 1 q 0,2 -6,6 -6,4 -21,8 -15,4 -34,4 -30,0 -57,-14 -21,-9 -43,-31 -44,-44 -64,-124 -20,-80 -21,-116 0,-46 26,-69 22,-24 58,-24 h 4 q 112,0 185,85 9,10 12,10 4,0 13,-9 9,-9 10,-14 1,-5 -9,-15 Q 410,73 391,55 372,37 346,25 320,13 282,0 244,-13 202,-11 127,-11 81,37 35,85 34,159 Z" /></g><g
         data-mml-node="mn"
         transform="matrix(0.46496387,0,0,0.46496387,454.83702,-156.62121)"
         id="g3324"><path
           id="use3322"
           d="m 213,578 -13,-5 q -14,-5 -40,-10 -26,-5 -58,-7 H 83 v 46 h 19 q 47,2 87,15 40,13 56,24 16,11 28,22 2,3 12,3 9,0 17,-6 V 361 l 1,-300 q 7,-7 12,-9 5,-2 24,-4 19,-2 62,-2 h 26 V 0 H 416 Q 395,3 257,3 121,3 100,0 H 88 v 46 h 26 q 22,0 38,0 16,0 25,1 9,1 16,3 7,2 8,2 1,0 6,5 5,5 6,4 z" /></g></g><g
       data-mml-node="mi"
       transform="matrix(0.02315171,0.00294862,0.00294862,-0.02315171,91.991024,107.10099)"
       id="g3330"
       style="opacity:1;fill:#000000;stroke:#000000;stroke-width:0"><path
         id="use3328"
         d="m 190,-22 q -66,0 -114,33 -48,33 -49,96 0,67 70,125 l 10,7 -8,9 q -23,25 -23,56 0,60 68,104 68,44 146,44 h 12 q 58,0 103,-31 23,-16 23,-29 0,-11 -11,-23 -11,-12 -26,-13 -9,0 -20,9 -11,9 -33,18 -22,9 -55,9 -66,0 -116,-24 -50,-24 -51,-60 0,-19 17,-36 9,-9 12,-10 3,-1 12,2 31,14 81,14 h 5 q 65,0 65,-31 0,-41 -85,-41 -46,0 -81,13 l -10,-7 Q 68,169 68,112 68,39 201,39 q 52,0 85,10 33,10 42,23 9,13 17,22 8,9 17,11 14,-2 14,-17 0,-9 -11,-26 Q 354,45 334,26 314,7 275,-8 236,-23 190,-22 Z" /></g><g
       data-mml-node="msub"
       transform="matrix(0.01615423,0.00205742,0.00205742,-0.01615423,115.82994,117.62933)"
       id="g3344"
       style="opacity:1;fill:#000000;stroke:#000000;stroke-width:0"><g
         data-mml-node="mi"
         id="g3338"><path
           id="use3336"
           d="m 34,159 q 0,109 86,196 86,87 186,87 56,0 88,-24 32,-24 33,-63 0,-29 -19,-49 -19,-20 -48,-21 -19,0 -30,10 -11,10 -11,30 0,20 11,34 11,14 22,21 11,7 14,6 h 1 q 0,2 -6,6 -6,4 -21,8 -15,4 -34,4 -30,0 -57,-14 -21,-9 -43,-31 -44,-44 -64,-124 -20,-80 -21,-116 0,-46 26,-69 22,-24 58,-24 h 4 q 112,0 185,85 9,10 12,10 4,0 13,-9 9,-9 10,-14 1,-5 -9,-15 Q 410,73 391,55 372,37 346,25 320,13 282,0 244,-13 202,-11 127,-11 81,37 35,85 34,159 Z" /></g><g
         data-mml-node="mn"
         transform="matrix(0.43518855,0,0,0.43518855,447.25159,-158.13767)"
         id="g3342"><path
           id="use3340"
           d="m 109,429 q -27,0 -43,18 -16,18 -16,44 0,71 53,123 53,52 132,52 91,0 152,-56 61,-56 62,-145 0,-43 -20,-82 -20,-39 -48,-68 -28,-29 -80,-74 -36,-31 -100,-92 l -59,-56 76,-1 q 157,0 167,5 7,2 24,89 v 3 h 40 v -3 Q 448,183 436,95 424,7 421,3 V 0 H 50 v 19 12 q 0,7 6,15 6,8 30,35 29,32 50,56 9,10 34,37 25,27 34,37 9,10 29,33 20,23 28,34 8,11 23,30 15,19 21,32 6,13 15,29 9,16 13,32 4,16 7,30 3,14 3,33 0,63 -34,109 -34,46 -97,46 -33,0 -58,-17 -25,-17 -35,-33 -10,-16 -10,-19 0,-1 5,-1 18,0 37,-14 19,-14 19,-46 0,-25 -16,-42 -16,-17 -45,-18 z" /></g></g><g
       data-mml-node="msup"
       transform="matrix(0.01615423,0.00205742,0.00205742,-0.01615423,126.16794,119.35036)"
       id="g3354"
       style="opacity:1;fill:#000000;stroke:#000000;stroke-width:0"><g
         data-mml-node="mi"
         id="g3348"><path
           id="use3346"
           d="m 190,-22 q -66,0 -114,33 -48,33 -49,96 0,67 70,125 l 10,7 -8,9 q -23,25 -23,56 0,60 68,104 68,44 146,44 h 12 q 58,0 103,-31 23,-16 23,-29 0,-11 -11,-23 -11,-12 -26,-13 -9,0 -20,9 -11,9 -33,18 -22,9 -55,9 -66,0 -116,-24 -50,-24 -51,-60 0,-19 17,-36 9,-9 12,-10 3,-1 12,2 31,14 81,14 h 5 q 65,0 65,-31 0,-41 -85,-41 -46,0 -81,13 l -10,-7 Q 68,169 68,112 68,39 201,39 q 52,0 85,10 33,10 42,23 9,13 17,22 8,9 17,11 14,-2 14,-17 0,-9 -11,-26 Q 354,45 334,26 314,7 275,-8 236,-23 190,-22 Z" /></g><g
         data-mml-node="mn"
         transform="matrix(0.707,0,0,0.707,466,413)"
         id="g3352"><path
           id="use3350"
           d="m 109,429 q -27,0 -43,18 -16,18 -16,44 0,71 53,123 53,52 132,52 91,0 152,-56 61,-56 62,-145 0,-43 -20,-82 -20,-39 -48,-68 -28,-29 -80,-74 -36,-31 -100,-92 l -59,-56 76,-1 q 157,0 167,5 7,2 24,89 v 3 h 40 v -3 Q 448,183 436,95 424,7 421,3 V 0 H 50 v 19 12 q 0,7 6,15 6,8 30,35 29,32 50,56 9,10 34,37 25,27 34,37 9,10 29,33 20,23 28,34 8,11 23,30 15,19 21,32 6,13 15,29 9,16 13,32 4,16 7,30 3,14 3,33 0,63 -34,109 -34,46 -97,46 -33,0 -58,-17 -25,-17 -35,-33 -10,-16 -10,-19 0,-1 5,-1 18,0 37,-14 19,-14 19,-46 0,-25 -16,-42 -16,-17 -45,-18 z" /></g></g><g
       data-mml-node="mo"
       transform="matrix(0.00999852,0.00127342,0.00127342,-0.00999852,138.03907,123.09687)"
       id="g3358"
       style="opacity:1;fill:#000000;stroke:#000000;stroke-width:0"><path
         id="use3356"
         d="m 56,237 q 0,0 0,13 0,13 14,20 h 299 v 150 l 1,150 q 10,13 19,13 13,0 20,-15 V 270 h 298 q 15,-8 15,-20 0,-12 -15,-20 H 409 V -68 q -8,-14 -18,-14 h -2 -2 q -12,0 -18,14 V 230 H 70 q -14,7 -14,20 z" /></g><g
       data-mml-node="msup"
       transform="matrix(0.01202439,-2.2836797e-4,-2.2836797e-4,-0.01202439,162.19984,116.68095)"
       id="g3378"
       style="opacity:1;fill:#000000;stroke:#000000;stroke-width:0"><g
         data-mml-node="mi"
         id="g3372"
         transform="rotate(-8.3461969,-4812.6014,825.20657)"><path
           id="use3370"
           d="m 190,-22 q -66,0 -114,33 -48,33 -49,96 0,67 70,125 l 10,7 -8,9 q -23,25 -23,56 0,60 68,104 68,44 146,44 h 12 q 58,0 103,-31 23,-16 23,-29 0,-11 -11,-23 -11,-12 -26,-13 -9,0 -20,9 -11,9 -33,18 -22,9 -55,9 -66,0 -116,-24 -50,-24 -51,-60 0,-19 17,-36 9,-9 12,-10 3,-1 12,2 31,14 81,14 h 5 q 65,0 65,-31 0,-41 -85,-41 -46,0 -81,13 l -10,-7 Q 68,169 68,112 68,39 201,39 q 52,0 85,10 33,10 42,23 9,13 17,22 8,9 17,11 14,-2 14,-17 0,-9 -11,-26 Q 354,45 334,26 314,7 275,-8 236,-23 190,-22 Z" /></g><g
         data-mml-node="mn"
         transform="matrix(0.69951222,-0.10262388,0.10262388,0.69951222,350.2613,-348.84446)"
         id="g3376"><path
           id="use3374"
           d="m 127,463 q -27,0 -42,17 -15,17 -16,44 0,55 48,98 48,43 116,43 35,0 44,-1 74,-12 113,-53 39,-41 40,-89 0,-52 -34,-101 -34,-49 -94,-71 l -3,-2 q 0,-1 9,-3 9,-2 29,-9 20,-7 38,-21 82,-53 82,-140 0,-79 -62,-138 -62,-59 -157,-59 -80,0 -138,43 -58,43 -58,109 0,28 18,45 18,17 45,18 28,0 46,-18 18,-18 18,-45 0,-11 -3,-20 -3,-9 -7,-16 -4,-7 -11,-12 -7,-5 -12,-8 -5,-3 -10,-4 -5,-1 -8,-3 l -4,-1 q 51,-45 124,-45 55,0 83,53 17,33 17,101 v 20 q 0,95 -64,127 -15,6 -61,7 l -42,1 -3,2 q -2,3 -2,16 0,18 8,18 28,0 58,5 34,5 62,42 28,37 28,112 v 8 q 0,57 -35,79 -22,14 -47,14 -32,0 -59,-11 -27,-11 -38,-23 -11,-12 -11,-12 h 3 q 3,-1 8,-2 5,-1 10,-5 5,-4 12,-7 7,-3 10,-11 3,-8 8,-15 5,-7 3,-20 0,-22 -14,-39 -14,-17 -45,-18 z" /></g></g><g
       data-mml-node="msub"
       transform="matrix(0.01193019,0.00151944,0.00151944,-0.01193019,149.80389,124.17215)"
       id="g3368"
       style="opacity:1;fill:#000000;stroke:#000000;stroke-width:0"><g
         data-mml-node="mi"
         id="g3362"><path
           id="use3360"
           d="m 34,159 q 0,109 86,196 86,87 186,87 56,0 88,-24 32,-24 33,-63 0,-29 -19,-49 -19,-20 -48,-21 -19,0 -30,10 -11,10 -11,30 0,20 11,34 11,14 22,21 11,7 14,6 h 1 q 0,2 -6,6 -6,4 -21,8 -15,4 -34,4 -30,0 -57,-14 -21,-9 -43,-31 -44,-44 -64,-124 -20,-80 -21,-116 0,-46 26,-69 22,-24 58,-24 h 4 q 112,0 185,85 9,10 12,10 4,0 13,-9 9,-9 10,-14 1,-5 -9,-15 Q 410,73 391,55 372,37 346,25 320,13 282,0 244,-13 202,-11 127,-11 81,37 35,85 34,159 Z" /></g><g
         data-mml-node="mn"
         transform="matrix(0.45180166,0,0,0.45180166,447.07462,-159.65112)"
         id="g3366"><path
           id="use3364"
           d="m 127,463 q -27,0 -42,17 -15,17 -16,44 0,55 48,98 48,43 116,43 35,0 44,-1 74,-12 113,-53 39,-41 40,-89 0,-52 -34,-101 -34,-49 -94,-71 l -3,-2 q 0,-1 9,-3 9,-2 29,-9 20,-7 38,-21 82,-53 82,-140 0,-79 -62,-138 -62,-59 -157,-59 -80,0 -138,43 -58,43 -58,109 0,28 18,45 18,17 45,18 28,0 46,-18 18,-18 18,-45 0,-11 -3,-20 -3,-9 -7,-16 -4,-7 -11,-12 -7,-5 -12,-8 -5,-3 -10,-4 -5,-1 -8,-3 l -4,-1 q 51,-45 124,-45 55,0 83,53 17,33 17,101 v 20 q 0,95 -64,127 -15,6 -61,7 l -42,1 -3,2 q -2,3 -2,16 0,18 8,18 28,0 58,5 34,5 62,42 28,37 28,112 v 8 q 0,57 -35,79 -22,14 -47,14 -32,0 -59,-11 -27,-11 -38,-23 -11,-12 -11,-12 h 3 q 3,-1 8,-2 5,-1 10,-5 5,-4 12,-7 7,-3 10,-11 3,-8 8,-15 5,-7 3,-20 0,-22 -14,-39 -14,-17 -45,-18 z" /></g></g><path
       style="fill:#ffffff;fill-opacity:1;stroke:#000000;stroke-width:0.391135"
       d="m 15.942696,135.90429 c 13.895133,-30.23795 27.79013,-60.475607 34.96668,-61.897169 7.17655,-1.421562 7.633803,25.97259 14.112951,33.042779 6.479148,7.07019 18.979664,-6.18397 27.395186,-5.54547 8.415527,0.63851 12.744687,15.16964 18.537027,18.69776 5.79235,3.52811 13.04795,-3.94643 18.89567,-4.2058 5.84772,-0.25937 10.28669,6.69604 16.09596,8.54999 5.80927,1.85396 12.98873,-1.39303 18.42263,-0.73154 5.43389,0.66149 9.12095,5.23105 12.43996,7.38672 3.31901,2.15567 6.26992,1.89765 9.22082,1.63963"
       id="path1744-8"
       inkscape:path-effect="#path-effect1746-5"
       inkscape:original-d="m 15.942696,135.90429 c 13.8954,-30.23783 27.790404,-60.475481 41.685941,-90.715034 0.457494,27.3963 0.91475,54.790452 1.37181,82.185534 12.501296,-13.25445 25.001793,-26.50863 37.503087,-39.764114 4.329616,14.532234 8.658776,29.063364 12.987726,43.594194 7.25602,-7.47419 14.51161,-14.94874 21.76721,-22.42405 4.43927,6.95632 8.87824,13.91173 13.31716,20.86666 7.17997,-3.24679 14.35943,-6.49379 21.53942,-9.74143 3.68761,4.5703 7.37467,9.13986 11.06162,13.70922 2.95113,-0.25771 5.90204,-0.51572 8.85291,-0.77408"
       sodipodi:nodetypes="cccccccccc" /><g
       data-mml-node="mo"
       transform="matrix(0.00753665,3.0047479e-4,3.0047479e-4,-0.00753665,183.48734,128.94468)"
       id="g3386"
       style="opacity:1;fill:#000000;stroke:#000000;stroke-width:0"><path
         id="use3384"
         d="m 78,60 q 0,24 17,42 17,18 43,18 24,0 42,-16 Q 198,88 199,61 199,36 182,18 165,0 139,0 113,0 96,17 79,34 78,60 Z" /></g><path
       style="fill:#c8c8c8;fill-opacity:1;stroke:#000000;stroke-width:0.391135"
       d="m 15.15885,144.67441 c 13.895135,-30.23795 27.790119,-60.475567 34.966674,-61.897128 7.176556,-1.421561 7.633815,25.972548 14.11296,33.042728 6.479145,7.07018 18.979663,-6.18397 27.395185,-5.54546 8.415521,0.63852 12.744701,15.16964 18.537041,18.69774 5.79235,3.52809 13.04793,-3.94642 18.89567,-4.2058 5.84773,-0.25937 10.28669,6.69603 16.09596,8.54998 5.80927,1.85395 12.98874,-1.39303 18.42263,-0.73153 5.43389,0.66149 9.12094,5.23102 12.43996,7.38669 3.31901,2.15567 6.26992,1.89766 9.22081,1.63964"
       id="path1744-54-5"
       inkscape:path-effect="#path-effect1746-9-6"
       inkscape:original-d="m 15.15885,144.67441 c 13.895412,-30.23782 27.790397,-60.475439 41.685935,-90.714998 0.457493,27.396306 0.914766,54.790418 1.371828,82.185458 12.501293,-13.25442 25.001794,-26.50859 37.503064,-39.764061 4.329643,14.532221 8.658793,29.063351 12.987753,43.594131 7.25602,-7.47418 14.51161,-14.94869 21.76721,-22.42401 4.43927,6.95632 8.87823,13.91172 13.31716,20.86662 7.17996,-3.2468 14.35943,-6.49377 21.53942,-9.74139 3.68761,4.5703 7.37467,9.13982 11.06161,13.70918 2.95114,-0.25772 5.90205,-0.51574 8.85291,-0.77407"
       sodipodi:nodetypes="cccccccccc" /><g
       data-mml-node="mo"
       transform="matrix(0.00753665,3.0047479e-4,3.0047479e-4,-0.00753665,186.8389,129.0783)"
       id="g3390"
       style="opacity:1;fill:#000000;stroke:#000000;stroke-width:0"><path
         id="use3388"
         d="m 78,60 q 0,24 17,42 17,18 43,18 24,0 42,-16 Q 198,88 199,61 199,36 182,18 165,0 139,0 113,0 96,17 79,34 78,60 Z" /></g><path
       style="fill:#a74f4f;fill-opacity:1;stroke:#000000;stroke-width:0.391135"
       d="m 14.773414,153.07106 c 13.895129,-30.23794 27.790132,-60.475612 34.966684,-61.897173 7.176553,-1.421562 7.633811,25.972623 14.112961,33.042773 6.47915,7.07015 18.979642,-6.18397 27.39518,-5.54545 8.415538,0.63851 12.744701,15.16959 18.537051,18.69769 5.79236,3.5281 13.04794,-3.94641 18.89566,-4.20578 5.84771,-0.25937 10.28668,6.69602 16.09596,8.54996 5.80927,1.85395 12.98873,-1.39303 18.42262,-0.73154 5.43389,0.66149 9.12095,5.23104 12.43997,7.38671 3.31901,2.15567 6.26992,1.89764 9.22081,1.63962"
       id="path1744-54-8-9"
       inkscape:path-effect="#path-effect1746-9-7-2"
       inkscape:original-d="M 14.773414,153.07106 C 28.668831,122.83325 42.56382,92.595574 56.459357,62.356021 c 0.457495,27.396301 0.914764,54.790489 1.371824,82.185469 12.501297,-13.25443 25.001794,-26.50854 37.503075,-39.76404 4.329627,14.53224 8.658774,29.06332 12.987754,43.5941 7.25602,-7.47418 14.5116,-14.94869 21.76719,-22.42395 4.43928,6.95627 8.87824,13.91166 13.31717,20.86656 7.17996,-3.2468 14.35942,-6.49377 21.53941,-9.74139 3.68761,4.57028 7.37468,9.13983 11.06163,13.70919 2.95113,-0.25773 5.90204,-0.51574 8.8529,-0.77409"
       sodipodi:nodetypes="cccccccccc" /><g
       data-mml-node="mo"
       transform="matrix(0.01168201,0.00148783,0.00148783,-0.01168201,62.650505,96.274309)"
       id="g3316"
       style="opacity:1;fill:#000000;stroke:#000000;stroke-width:0"><path
         id="use3314"
         d="m 56,237 q 0,0 0,13 0,13 14,20 h 299 v 150 l 1,150 q 10,13 19,13 13,0 20,-15 V 270 h 298 q 15,-8 15,-20 0,-12 -15,-20 H 409 V -68 q -8,-14 -18,-14 h -2 -2 q -12,0 -18,14 V 230 H 70 q -14,7 -14,20 z" /></g><g
       data-mml-node="mo"
       transform="matrix(0.00753665,3.0047479e-4,3.0047479e-4,-0.00753665,190.18968,129.21189)"
       id="g3394"
       style="opacity:1;fill:#000000;stroke:#000000;stroke-width:0"><path
         id="use3392"
         d="m 78,60 q 0,24 17,42 17,18 43,18 24,0 42,-16 Q 198,88 199,61 199,36 182,18 165,0 139,0 113,0 96,17 79,34 78,60 Z" /></g></g><g
     inkscape:groupmode="layer"
     id="layer2"
     inkscape:label="Layer 2"
     transform="translate(-4.2237916,-40.229026)" /></svg>
